<?xml version="1.0" encoding="utf-8"?>
<!-- Generator: Adobe Illustrator 24.0.0, SVG Export Plug-In . SVG Version: 6.00 Build 0)  -->
<svg version="1.1" xmlns="http://www.w3.org/2000/svg" xmlns:xlink="http://www.w3.org/1999/xlink" x="0px" y="0px"
	 viewBox="0 0 250 250" style="enable-background:new 0 0 250 250;" xml:space="preserve">
<style type="text/css">
	.st0{display:none;}
	.st1{display:inline;fill:#FFFFFF;stroke:#000000;stroke-miterlimit:10;}
	.st2{display:inline;}
	.st3{fill:#000000;}
	.st4{fill:#FFFFFF;}
	.st5{fill:#ED1C24;}
	.st6{opacity:0.16;}
	.st7{opacity:0.2;fill:#6D6E71;}
	.st8{opacity:0.3;fill:#757679;}
	.st9{display:inline;fill:#000000;}
	.st10{font-family:'RobotoCondensed-Bold';}
	.st11{font-size:80px;}
	.st12{fill:#000000;}
	.st13{display:inline;fill:#000000;}
	.st14{display:inline;fill:#F7F8F8;}
	.st15{display:inline;fill:#ED1C24;}
	.st16{fill:#000000;}
	.st17{fill:none;}
	.st18{fill:#000000;}
	.st19{fill-rule:evenodd;clip-rule:evenodd;fill:#000000;}
	.st20{fill-rule:evenodd;clip-rule:evenodd;fill:#ED1C24;}
	.st21{display:inline;fill:#000000;}
</style>
<g id="BG" class="st0">
	<rect x="25" y="25" class="st1" width="200" height="200"/>
</g>
<g id="Layer_1" class="st0">
	<g class="st2">
		<path class="st3" d="M200,125c0,41.4-33.6,75-75,75s-75-33.6-75-75c0-41.4,33.6-75,75-75c12.6,0,24.5,3.1,34.9,8.6
			c2.5,1.3,4.9,2.8,7.3,4.4C187,76.5,200,99.2,200,125z"/>
		<g>
			<path class="st4" d="M111.7,109.1c-1.8-0.4-3-1.5-3.9-3c-0.6-1-1.3-2-1.7-3c-3.1-6.9-8.7-9.4-15.9-9.2c-5.8,0.1-11,2.1-15.5,5.6
				c-7,5.5-8.8,14-5.2,22.9c1.8,4.5,4.8,8.2,8.5,11.4c1.2,1.1,2.5,2.2,3.9,3c6.6,3.8,12.5,8.4,18.2,13.5c1,0.9,9.5,7.1,11.7,8.3
				c13.7,7.6,28.1,11.3,43.8,7.3c3.4-0.9,6.7-2.2,9.7-4.2c8.5-5.5,9.6-16.8,2.2-23.7c-0.9-0.9-2-1.7-3-2.5c-0.4-0.3-0.9-0.5-0.8-1.1
				c0.1-0.7,0.8-0.7,1.3-0.8c3-0.6,6-0.7,8.9-0.1c4.7,1,7.6-2.1,5.5-6.6c-1.7-3.7-3-7.6-4.5-11.4c-0.8-2-2.3-3.5-4.1-4.8
				c-1.8-1.3-3.4-0.5-3.5,1.7c-0.2,2.1,0.4,4.2,0.7,6.3c0.1,0.6,0.2,1.2,0.3,1.8c0.2,1.7-0.4,2.5-2.2,2.1c-2.1-0.5-4.2-0.8-6.2-1.5
				c-3.4-1.2-6.7-0.8-9.9,0.6c-1.5,0.7-3,1.3-4.5,1.9c-0.4,0.2-0.9,0.5-1.3,0c-0.4-0.4-0.1-0.9,0-1.4c0.7-1.9,1.9-3.4,3.7-4.5
				c1.3-0.8,3-1.4,2.7-3.4c-0.2-1.8-3.1-4.8-4.9-5.1c-2.1-0.4-3.5,0.6-4.5,2.4c-1.8,3.3-3.7,6.5-5.5,9.8c-0.1-3.5,0.7-6.9,0.7-10.4
				c0-3.9-2.5-5.8-6.3-4.5c-0.5,0.2-0.9,0.3-1.3-0.1c-1.6-1.3-2.5-0.2-3.2,1.1c-1.1,2-0.6,4.5,1.1,6.1c3.2,2.9,2.5,7.9-1.5,9.4
				c-3.7,1.3-6.7,3.5-9.9,5.7c-1.1,0.7-2.1,1.6-3.5,1.9c0-0.9,0.7-1.4,1.1-1.9c1.1-1.3,2.3-2.5,3.3-3.9c0.7-0.8,1.4-1.8,1-2.8
				c-0.9-3-1.1-6.4-3.4-8.9c-0.4-0.5-0.6-1-0.4-1.5C114.2,110,113.1,109.3,111.7,109.1z"/>
		</g>
		<g>
			<path class="st4" d="M164.7,84.9c1.9,4.6,4.2,10.4-0.6,17.1c-7.7,10.6-14,23.9-14.1,24l-4.4-2.1c0.3-0.6,6.6-13.8,14.6-24.8
				c3.3-4.5,1.8-8.2,0.1-12.4c-1.7-4.2-3.9-9.5,1.2-14.5c3.4-3.4,1.2-9.2-1.4-13.7c2.5,1.3,4.9,2.8,7.3,4.4
				c1.3,4.5,1.2,9.2-2.4,12.8C162.2,78.4,162.9,80.6,164.7,84.9z"/>
		</g>
	</g>
</g>
<g id="Layer_2" class="st0">
	<g id="Element_36_" class="st2">
		<path class="st3" d="M205.8,66.6c-16.2-14.3-37.2,1.7-55.2-2.8c-7.6-1.9-14.5-6.7-22.2-7.8c-9.1-1.3-18.1,2.5-26.8,5.6
			c-8.8,3.1-16.8,4.2-25.8,1.3c-8.1-2.6-16.7-4-25.1-1.7C36.6,65.2,33.9,83,40.4,95c-0.2,0.4-0.4,0.8-0.5,1.3
			c-1.6,7.2,5.2,15,15.2,17.4c10,2.4,19.4-1.6,21-8.8c1.6-7.2-5.2-15-15.2-17.4c-6.7-1.6-13-0.3-17,2.8c-3.9-9.2-0.8-20.6,9.8-23.8
			c12.5-3.8,20.7,5.3,26,16.4c3.9,8.1,6.1,17,9.7,25.2c2.9,6.6,7.4,12.9,11.4,18.9c1.3,2,2.6,4,3.9,6c1,1.5,2.9,2.9,2,4.9
			c-0.4,1-1.2,1.8-1.7,2.7c-1.1,1.8-1.2,4-1.2,6.1c0.1,6.2,2.1,12.1,3.8,17.9c1.5,5.3,3.2,10.5,3.8,16c0.5,4.3-0.4,10.2,3.2,13.4
			c0.6,0.6,1.4,0.6,2.1,0c3.1-2.7,2.3-6.7,2.7-10.3c0.5-4.7,0.3-9.5,0-14.2c-0.3-4.3-0.7-8.8-2.5-12.7c-2.4-5.1-7-9.2-7.8-14.8
			c-0.1-0.5,0-1.2,0.5-1.3c0.3,0,0.5,0.2,0.7,0.5c1.4,1.6,8.1,8.5,9.1,3.3c0.7-3.7-0.2-7.3-0.6-10.9c-1.2-11.5-5-23-12.1-32
			c-5.7-7.3-14.2-12.3-18.8-20.4c-1.4-2.4-2.3-4.4,1-4.9c2-0.3,4.4,0.3,6.3,0.8c13,3.7,27,7.3,40.5,3.4c3.6-1,7.1-2.6,10.6-3.9
			c2.1-0.8,8.5-4.1,10.1-1.1c2.4,4.6-8.6,13.3-11.3,15.9c-4.4,4.3-8.3,8.9-11.5,14.1c-3.8,6.2-6.7,13.1-8.5,20.3
			c-0.9,3.6-1.4,7.2-1.8,10.9c-0.3,2.5-2.1,6.5-0.1,8.6c1.6,1.7,4.2,0.3,5.8-0.8c1.8-1.2,2.9-2.9,4.5-4.2c0.2-0.1,0.4-0.3,0.6-0.3
			c0.4,0.1,0.5,0.6,0.4,1c-0.5,4.6-2.6,7.8-4.9,11.6c-3.3,5.4-5.3,11.7-5.7,18.1c-0.4,6.7-0.9,13.1,0.6,19.8
			c0.5,2.3,3.7,5.2,5.6,2.5c1.8-2.5,0.9-8.1,1.2-11.1c0.7-6.9,3.5-13.2,5.7-19.7c2.1-6.2,4.3-13.8,3.1-20.4c-0.2-1.1-0.5-2.2-1.3-3
			c-0.4-0.4-1-0.7-1.3-1.2c-0.5-0.8-0.4-1.9,0-2.7c0.7-1.3,2-2.2,2.9-3.3c1-1.2,1.9-2.5,2.9-3.8c5.7-7.9,10.2-16.6,13.5-25.8
			c2.9-8.2,4.8-17,9.5-24.3c8.6-13.4,40.2-18,41.4,3.9c0.2,3.6-2.2,9-5.6,13.1c-3.2-5.3-11.3-7.9-19.8-5.8
			c-10,2.4-16.8,10.2-15.2,17.4c1.6,7.2,11,11.2,21,8.8c8.4-2,14.5-7.8,15.3-13.9c1.5-1.2,2.9-2.6,3.9-3.8
			C215,88,215,74.7,205.8,66.6z"/>
	</g>
</g>
<g id="Layer_4" class="st0">
	<g class="st2">
		<path class="st3" d="M141.9,83.8c3.9,0,7-3.2,7-7c0-3.9-3.2-7-7-7c-3.9,0-7,3.2-7,7C134.9,80.6,138,83.8,141.9,83.8z"/>
		<path class="st3" d="M108.3,170.4c0-3.9-3.2-7-7-7c-3.9,0-7,3.2-7,7c0,3.9,3.2,7,7,7C105.2,177.4,108.3,174.3,108.3,170.4z"/>
		<path class="st3" d="M45.8,89.1c-4.5,2.2-7.3,5.9-8.2,10.4c-1.7,9.2,3.5,15.2,9,17.8c6.4,3,15.9,3.6,24.8,1.8
			c4.3-0.9,11.4-3.8,13.4-6.6c0.2-6.1,1.4-12.1,3.4-17.5c-9.3-4.5-17.9-7.2-25.4-8C56.1,86.1,50.2,86.9,45.8,89.1z"/>
		<path class="st3" d="M124.9,129.1c0-5.8,4.7-10.5,10.5-10.5c1.5,0,3,0.3,4.3,0.9c2.7-5.7,5.1-10.5,7.4-14.4c0.3-0.5,0-0.9-0.1-1
			c-0.1-0.1-0.5-0.5-1-0.3c-13.9,4.2-30.9,4.2-44.3,0c-0.5-0.2-0.9,0.2-1,0.3c-0.1,0.1-0.4,0.5-0.1,1c7.9,14.3,16.8,35.9,21.4,47.5
			c0.1,0.2,0.1,0.4,0.1,0.6v26.1c0,0.9-0.8,1.7-1.7,1.7h-2.1c-2.1,0-3.7,1.7-3.7,3.7v19.3h18.7v-19.3c0-2.1-1.7-3.7-3.7-3.7h-2.1
			c-0.9,0-1.7-0.8-1.7-1.7v-26.4c0-0.2,0-0.4,0.1-0.6c1.8-4.6,3.6-9.2,5.4-13.6C127.6,137.2,124.9,133.5,124.9,129.1z"/>
		<path class="st3" d="M142.4,129.1c0-3.9-3.2-7-7-7s-7,3.2-7,7c0,3.9,3.2,7,7,7S142.4,133,142.4,129.1z"/>
		<path class="st3" d="M163.2,112.6c2.1,2.8,9.1,5.6,13.4,6.5c8.9,1.9,18.4,1.2,24.8-1.8c5.5-2.6,10.7-8.6,9-17.8
			c-0.9-4.6-3.7-8.2-8.2-10.4c-4.4-2.2-10.3-3-17.1-2.2c-7.5,0.9-16.1,3.6-25.4,8c0.1,0.1,0.1,0.3,0.2,0.4
			C161.9,100.8,163,106.6,163.2,112.6z"/>
		<path class="st3" d="M141.9,87.2c-5.8,0-10.5-4.7-10.5-10.5c0-1.6,0.4-3.2,1.1-4.6c-2.8-0.8-5.6-1.2-8.5-1.2
			c-19.7,0-35.8,19.4-35.8,43.3c0,11.8,3.8,22.8,10.8,31c0.2,0.2,0.3,0.5,0.4,0.9l2.1,13.9c5.7,0.1,10.2,4.8,10.2,10.4
			c0,4.6-3,8.6-7.2,9.9l3,19.8c0.3,2,1.8,3.5,3.7,3.8v-19.2c0-3.9,3.2-7.1,7.1-7.1h0.4v-24c-4.6-11.6-13.4-32.8-21.1-46.8
			c-0.9-1.6-0.7-3.5,0.4-4.9c1.1-1.4,3-1.9,4.7-1.4c12.8,4,29.1,4,42.3,0c1.7-0.5,3.6,0.1,4.7,1.5c1.1,1.4,1.3,3.3,0.4,4.9
			c-2.3,3.9-4.8,8.8-7.5,14.7c2,1.9,3.2,4.6,3.2,7.6c0,5.8-4.7,10.5-10.5,10.5c-0.2,0-0.4,0-0.6,0c-1.8,4.4-3.7,9-5.5,13.7v24.4h0.4
			c3.9,0,7.1,3.2,7.1,7.1V204c1.9-0.3,3.4-1.9,3.7-3.8l8.1-54.1c0-0.3,0.2-0.6,0.4-0.9c7-8.2,10.8-19.2,10.8-31
			c0-11.3-3.7-22.3-10.3-30.3C147.6,85.9,144.9,87.2,141.9,87.2z"/>
		<path class="st5" d="M161.2,70.8c0.1,0,0.1,0,0.2,0l16.9-1.5c0.9-0.1,1.6-0.9,1.6-1.9c-0.1-0.9-0.9-1.6-1.9-1.6l-16.9,1.5
			c-0.9,0.1-1.6,0.9-1.6,1.9C159.6,70.1,160.4,70.8,161.2,70.8z"/>
		<path class="st5" d="M170.2,47.5c-0.7-0.7-1.8-0.7-2.4,0l-12.2,12.2c-0.7,0.7-0.7,1.8,0,2.4c0.3,0.3,0.8,0.5,1.2,0.5
			c0.4,0,0.9-0.2,1.2-0.5l12.2-12.2C170.9,49.3,170.9,48.2,170.2,47.5z"/>
		<path class="st5" d="M148.5,39.5L147,56.4c-0.1,0.9,0.6,1.8,1.6,1.9c0.1,0,0.1,0,0.2,0c0.9,0,1.6-0.7,1.7-1.6l1.5-16.9
			c0.1-0.9-0.6-1.8-1.6-1.9C149.4,37.8,148.6,38.5,148.5,39.5z"/>
		<path class="st5" d="M74,198.8c0.3,0.3,0.7,0.4,1.1,0.4c0.5,0,1-0.2,1.3-0.6l10.9-13c0.6-0.7,0.5-1.8-0.2-2.4
			c-0.7-0.6-1.8-0.5-2.4,0.2l-10.9,13C73.2,197.1,73.3,198.2,74,198.8z"/>
		<path class="st5" d="M83.6,165.5l-14.7-8.4c-0.8-0.5-1.9-0.2-2.3,0.6c-0.5,0.8-0.2,1.9,0.6,2.3l14.7,8.4c0.3,0.2,0.6,0.2,0.8,0.2
			c0.6,0,1.2-0.3,1.5-0.9C84.7,167,84.4,166,83.6,165.5z"/>
		<path class="st5" d="M63.1,179.6c0.1,0.8,0.9,1.4,1.7,1.4c0.1,0,0.2,0,0.3,0l17-3.1c0.9-0.2,1.5-1.1,1.4-2c-0.2-0.9-1.1-1.5-2-1.4
			l-17,3.1C63.5,177.7,62.9,178.6,63.1,179.6z"/>
	</g>
</g>
<g id="Layer_5" class="st0">
	<g class="st2">
		<g>
			<path class="st3" d="M75,60.7L75,60.7c-1.8,0-3.6,0.1-5.5,0.3c-6.2,0.6-11.8,2.4-16.8,5.4c-4.7,2.8-8.7,6.6-11.9,11.2
				c-4.1,5.8-6.8,13-8,20.7c-1.1,7.3-0.7,14.9,1.2,22.1c1.8,7.1,5.4,14.5,10.8,22.2c4.6,6.6,10.3,13.2,17.1,19.6
				c6.1,5.8,12.9,11.3,19.6,15.9c6.5,4.5,13,8.1,18.6,10.4c1.2,0.6,2.5,0.8,3.8,0.8c0,0,0,0,0,0c0,0,0,0,0,0c1.3,0,2.6-0.3,3.8-0.8
				c5.6-2.3,12-5.9,18.6-10.4c6.8-4.6,13.5-10.1,19.6-15.9c6.8-6.4,12.5-13,17.1-19.6c5.3-7.6,9-15.1,10.8-22.2
				c1.8-7.2,2.3-14.8,1.2-22.1c-1.1-7.7-3.9-14.8-7.9-20.7c-3.2-4.6-7.2-8.4-11.9-11.2c-5-3-10.7-4.8-16.8-5.4
				c-1.9-0.2-3.7-0.3-5.6-0.3c-8.2,0-15.7,1.9-22.2,5.7c-2.4,1.4-4.6,2.9-6.6,4.7c-2-1.8-4.2-3.4-6.6-4.8
				C90.7,62.6,83.2,60.7,75,60.7L75,60.7z"/>
			<path class="st3" d="M137.3,70c-16.8-1.7-27.5,5.7-33.5,15c-5.9-9.3-16.6-16.7-33.4-15c-24.2,2.4-33,27.6-27.7,48.2
				c6.5,25.4,40.6,53.9,61,62.2c0,0,0,0,0.1,0c0,0,0.1,0,0.1,0c20.4-8.3,54.6-36.7,61.1-62.1C170.2,97.6,161.5,72.4,137.3,70z"/>
			<polygon class="st5" points="108.2,183.1 101.6,183.1 101.6,115.5 114.2,103.1 80.1,103.1 107.4,70.4 112.5,74.7 94.2,96.5 
				130.3,96.5 108.2,118.3 			"/>
			<g class="st6">
				<path class="st3" d="M164.9,118.2c0.2-0.9,0.4-1.8,0.6-2.8h-45.4c-10.5,0-20.4,4.1-27.8,11.6c-7.4,7.4-11.6,17.3-11.6,27.8v3.1
					c0,3.2,0.4,6.4,1.2,9.5c7.8,5.8,15.4,10.3,21.8,12.9c0,0,0,0,0.1,0c0,0,0.1,0,0.1,0C124.2,172,158.4,143.6,164.9,118.2z"/>
			</g>
		</g>
		<g>
			<path class="st3" d="M190.4,184.8h-74.3c-12.6,0-22.9-10.3-22.9-22.9v-11.1c0-12.6,10.3-22.9,22.9-22.9h74.3
				c12.6,0,22.9,10.3,22.9,22.9v11.1C213.4,174.5,203,184.8,190.4,184.8z"/>
			<path class="st4" d="M186.4,189.3h-66.3c-8.4,0-16.2-3.3-22.2-9.2c-5.9-5.9-9.2-13.8-9.2-22.2v-3.1c0-8.4,3.3-16.2,9.2-22.2
				c5.9-5.9,13.8-9.2,22.2-9.2h66.3c8.4,0,16.2,3.3,22.2,9.2c5.9,5.9,9.2,13.8,9.2,22.2v3.1c0,8.4-3.3,16.2-9.2,22.2
				C202.7,186,194.8,189.3,186.4,189.3z M120.1,132.3c-12.4,0-22.4,10.1-22.4,22.4v3.1c0,12.4,10.1,22.4,22.4,22.4h66.3
				c12.4,0,22.4-10.1,22.4-22.4v-3.1c0-12.4-10.1-22.4-22.4-22.4H120.1z"/>
			<path class="st7" d="M186.4,132.3h-66.3c-12.4,0-22.4,10.1-22.4,22.4v3.1c0,0.2,0,0.3,0,0.4c0.2-12.2,10.2-22,22.4-22h66.3
				c12.2,0,22.2,9.8,22.4,22c0-0.1,0-0.3,0-0.4v-3.1C208.9,142.4,198.8,132.3,186.4,132.3z"/>
			<g>
				<rect x="129" y="145.7" class="st4" width="48.5" height="21.2"/>
				<g>
					<g>
						<rect x="143.1" y="145.7" class="st5" width="4.9" height="21.2"/>
					</g>
				</g>
				<rect x="129" y="145.7" class="st8" width="48.5" height="2.3"/>
			</g>
			<g>
				<circle class="st4" cx="193.7" cy="156.3" r="4"/>
				<circle class="st4" cx="112.8" cy="156.3" r="4"/>
			</g>
		</g>
	</g>
</g>
<g id="Layer_6" class="st0">
	<text transform="matrix(1 0 0 1 33.3223 146.5068)" class="st9 st10 st11">PCOS</text>
</g>
<g id="Layer_7" class="st0">
	
		<ellipse transform="matrix(0.7043 -0.7099 0.7099 0.7043 -32.5036 115.6364)" class="st9" cx="122.5" cy="96.8" rx="34.7" ry="34.7"/>
	<g class="st2">
		<g>
			<g>
				<g>
					<path class="st3" d="M122.5,149.2c-7.1,0-13.9-1.4-20.4-4.1c-6.2-2.6-11.8-6.4-16.6-11.2c-4.8-4.8-8.6-10.4-11.2-16.6
						c-2.7-6.5-4.1-13.3-4.1-20.4c0-7.1,1.4-13.9,4.1-20.4c2.6-6.2,6.4-11.8,11.2-16.6c4.8-4.8,10.4-8.6,16.6-11.2
						c6.5-2.7,13.3-4.1,20.4-4.1c7.1,0,13.9,1.4,20.4,4.1c6.2,2.6,11.8,6.4,16.6,11.2c4.8,4.8,8.6,10.4,11.2,16.6
						c2.7,6.5,4.1,13.3,4.1,20.4c0,7.1-1.4,13.9-4.1,20.4c-2.6,6.2-6.4,11.8-11.2,16.6c-4.8,4.8-10.4,8.6-16.6,11.2
						C136.5,147.8,129.6,149.2,122.5,149.2z M121.5,58.7c-20.2,0.5-36.6,16.9-37.1,37.1c-0.6,21.8,17.4,39.8,39.2,39.2
						c20.2-0.5,36.6-16.9,37.1-37.1C161.3,76,143.3,58.1,121.5,58.7z"/>
				</g>
			</g>
		</g>
	</g>
	<g class="st2">
		<g>
			<g>
				<path class="st3" d="M129.6,146.8v59.1c0,1.5-1.2,2.7-2.7,2.7h-8.8c-1.5,0-2.7-1.2-2.7-2.7v-59.1c0-1.5,1.2-2.7,2.7-2.7h8.8
					C128.4,144.1,129.6,145.3,129.6,146.8z"/>
			</g>
		</g>
	</g>
	<g class="st2">
		<g>
			<g>
				<path class="st3" d="M93,169.3h59.1c1.5,0,2.7,1.2,2.7,2.7v8.8c0,1.5-1.2,2.7-2.7,2.7H93c-1.5,0-2.7-1.2-2.7-2.7V172
					C90.3,170.5,91.5,169.3,93,169.3z"/>
			</g>
		</g>
	</g>
	<g class="st2">
		<path class="st5" d="M116.2,75.8h-8.8c-1.5,0-2.7,1.2-2.7,2.7v37.8c0,1.5,1.2,2.7,2.7,2.7h8.8c1.5,0,2.7-1.2,2.7-2.7V78.5
			C118.9,77,117.7,75.8,116.2,75.8z"/>
		<path class="st5" d="M137.6,75.8h-8.8c-1.5,0-2.7,1.2-2.7,2.7v37.8c0,1.5,1.2,2.7,2.7,2.7h8.8c1.5,0,2.7-1.2,2.7-2.7V78.5
			C140.3,77,139.1,75.8,137.6,75.8z"/>
	</g>
</g>
<g id="Layer_8">
	<path class="st12" d="M101,136.1c-0.8-3.4-6-5-11.6-3.6c-4.5,1.1-7.8,3.8-8.5,6.6l-2.6,0.3c-0.7,0.1-1.2,0.5-1.5,0.9
		c-1.6,0.3-3.2,0.9-4.7,1.7c-1.6,0.9-3,2.1-4,3.7c-0.5,0.8-0.9,1.6-1.2,2.4c-0.3,0.9-0.5,1.7-0.7,2.5c-0.9,3.4-1.1,6.8-2,10
		c-0.9,3.2-2.9,5.9-5.4,8.1c-2.5,2.2-5.4,4.1-8.4,5.5c-3,1.5-6.2,2.6-9.4,3.9c-1.6,0.7-3.1,1.4-4.6,2.3c-1.4,0.9-2.7,2.2-3.4,3.8
		c-0.7,1.6-0.8,3.4-0.6,5.1c0.2,1.7,0.7,3.3,1.2,4.9c-0.5-1.6-1-3.3-1.1-5c-0.2-1.7,0-3.4,0.7-4.9c0.7-1.5,2-2.7,3.4-3.6
		c1.4-0.9,3-1.6,4.5-2.2c3.2-1.2,6.4-2.3,9.5-3.7c3.1-1.4,6.1-3.2,8.7-5.4c1.3-1.1,2.6-2.3,3.6-3.8c1-1.4,1.8-3,2.4-4.7
		c1.1-3.4,1.3-6.8,2.2-10c0.4-1.6,0.9-3.2,1.9-4.4c0.9-1.3,2.1-2.3,3.5-3c1.2-0.6,2.6-1.1,4-1.3c0.4,0.5,1.1,0.8,1.8,0.7l2.8-0.4
		c1.8,2.4,6.2,3.3,10.9,2.2C98,143.4,101.8,139.5,101,136.1z"/>
	<path class="st5" d="M166,114.6c0,14.5-11.8,26.3-26.3,26.3c-14.5,0-26.3-11.8-26.3-26.3c0-14.5,11.8-26.3,26.3-26.3
		C154.2,88.3,166,100.1,166,114.6z"/>
	<path class="st12" d="M98.7,119.3c-1.7-18.9,8.5-36.9,26.7-43.6c18.1-6.6,38.5,0.7,48.8,16.7c10.2,15.8,7.5,36.8-5.3,50.3
		c-14.6,15.4-39.5,16.4-55.7,2.9c-6.9-5.7-16.8,4.1-9.9,9.9c19.8,16.5,48.5,18.3,69.3,2.5c18.7-14.3,26.4-39.2,18.9-61.6
		c-7.5-22.2-28.8-36.9-52-37.2c-23.6-0.3-44.1,15.5-52,37.2c-2.6,7.2-3.4,15.2-2.7,22.8C85.5,128.2,99.5,128.3,98.7,119.3
		L98.7,119.3z"/>
</g>
<g id="Layer_9" class="st0">
	<g class="st2">
		<path class="st12" d="M126.7,75.5H81.9c-3.2,0-5.8-2.6-5.8-5.8l0,0c0-3.2,2.6-5.8,5.8-5.8h44.9c3.2,0,5.8,2.6,5.8,5.8l0,0
			C132.5,72.9,129.9,75.5,126.7,75.5z"/>
		<path class="st12" d="M173.4,103.4h-6.7h-10.2c-0.3,0-0.5,0.2-0.5,0.5v6.2c0,0.3,0.2,0.5,0.5,0.5h3.9c0.5,0,0.7,0.6,0.4,0.9
			l-7.4,7.4c-0.2,0.2-0.2,0.6,0,0.8l4.4,4.4c0.2,0.2,0.6,0.2,0.8,0l7.2-7.2c0.3-0.3,0.9-0.1,0.9,0.4v3.4c0,0.3,0.2,0.5,0.5,0.5h6.2
			c0.3,0,0.5-0.2,0.5-0.5V104C173.9,103.7,173.7,103.4,173.4,103.4L173.4,103.4z"/>
		<path class="st12" d="M148.6,171.7h-6.4c-0.3,0-0.5-0.2-0.5-0.5v-6.9c0-0.3-0.2-0.5-0.5-0.5h-6.2c-0.3,0-0.5,0.2-0.5,0.5v6.9
			c0,0.3-0.2,0.5-0.5,0.5h-6.4c-0.3,0-0.5,0.2-0.5,0.5v6.2c0,0.3,0.2,0.5,0.5,0.5h6.4c0.3,0,0.5,0.2,0.5,0.5v6
			c0,0.3,0.2,0.5,0.5,0.5h6.2c0.3,0,0.5-0.2,0.5-0.5v-6c0-0.3,0.2-0.5,0.5-0.5h6.4c0.3,0,0.5-0.2,0.5-0.5v-6.2
			C149.2,171.9,148.9,171.7,148.6,171.7z"/>
		<path class="st12" d="M138.1,111.4c-15.2,0-27.6,12.4-27.6,27.6s12.4,27.6,27.6,27.6c15.2,0,27.6-12.4,27.6-27.6
			S153.3,111.4,138.1,111.4z M138.1,159.3c-11.2,0-20.3-9.1-20.3-20.3s9.1-20.3,20.3-20.3s20.3,9.1,20.3,20.3
			S149.3,159.3,138.1,159.3z"/>
		<path class="st12" d="M115.7,161.3c-6-6-9.3-13.9-9.3-22.4s3.3-16.4,9.3-22.4c2.4-2.4,5.2-4.4,8.2-5.9V79.5H84.7v9.9h7.5
			c1.5,0,2.7,1.2,2.7,2.7c0,1.5-1.2,2.7-2.7,2.7h-7.5v9.4h7.5c1.5,0,2.7,1.2,2.7,2.7c0,1.5-1.2,2.7-2.7,2.7h-7.5v9.4h7.5
			c1.5,0,2.7,1.2,2.7,2.7c0,1.5-1.2,2.7-2.7,2.7h-7.5v9.4h7.5c1.5,0,2.7,1.2,2.7,2.7c0,1.5-1.2,2.7-2.7,2.7h-7.5v9.4h7.5
			c1.5,0,2.7,1.2,2.7,2.7s-1.2,2.7-2.7,2.7h-7.5v12.5c0,10.8,8.8,19.6,19.6,19.6c0.2,0,0.3,0,0.5,0c0.1,0,0.3,0,0.4,0
			c0.1,0,0.2,0,0.3,0c0,0,0.1,0,0.1,0c0.1,0,0.2,0,0.4,0c0.1,0,0.1,0,0.2,0c0,0,0,0,0,0c0.1,0,0.1,0,0.2,0c0,0,0.1,0,0.1,0
			c0.1,0,0.1,0,0.2,0c0.1,0,0.2,0,0.3,0c0.1,0,0.2,0,0.3,0c0.2,0,0.4-0.1,0.5-0.1c0.1,0,0.1,0,0.2,0c0,0,0.1,0,0.1,0
			c0.1,0,0.1,0,0.2,0c0,0,0,0,0.1,0c0,0,0.1,0,0.1,0c0,0,0,0,0.1,0c0.1,0,0.2-0.1,0.4-0.1c0.1,0,0.1,0,0.2,0c0.1,0,0.1,0,0.2-0.1
			c0.1,0,0.1,0,0.2-0.1c0.1,0,0.3-0.1,0.4-0.1c0.2,0,0.3-0.1,0.5-0.1c0,0,0,0,0,0c0.1,0,0.2-0.1,0.3-0.1c0,0,0.1,0,0.1,0h0
			c0.1,0,0.3-0.1,0.4-0.1c0,0,0.1,0,0.1-0.1c0.1,0,0.2-0.1,0.3-0.1c0,0,0,0,0,0c0,0,0,0,0,0c0.2-0.1,0.4-0.2,0.6-0.2
			c0.1,0,0.2-0.1,0.3-0.1c0.1,0,0.2-0.1,0.3-0.1c0.1,0,0.2-0.1,0.2-0.1c0.1,0,0.2-0.1,0.2-0.1c0,0,0,0,0.1,0
			c0.1-0.1,0.3-0.1,0.4-0.2c0,0,0,0,0,0c0,0,0.1,0,0.1,0c0.1,0,0.2-0.1,0.2-0.1c0,0,0,0,0,0c0,0,0.1,0,0.1-0.1c0,0,0,0,0,0
			c0.4-0.2,0.7-0.5,1.1-0.7c0,0,0,0,0,0c0.1-0.1,0.2-0.1,0.3-0.2c0,0,0,0,0,0c0.1-0.1,0.3-0.2,0.4-0.3c0,0,0,0,0,0c0,0,0,0,0,0
			c0,0,0,0,0,0c0.1-0.1,0.3-0.2,0.4-0.3c0,0,0,0,0,0c0.1-0.1,0.1-0.1,0.2-0.2c0.1-0.1,0.2-0.2,0.3-0.3c0,0,0.1-0.1,0.1-0.1
			c0.1-0.1,0.1-0.1,0.2-0.2c0.1-0.1,0.1-0.1,0.2-0.2c0,0,0,0,0,0c0.1-0.1,0.2-0.1,0.2-0.2c0,0,0.1-0.1,0.1-0.1
			c0.1-0.1,0.1-0.1,0.2-0.2c0.1-0.1,0.1-0.1,0.2-0.2c0.1-0.1,0.2-0.2,0.3-0.3c0,0,0,0,0,0c0.1-0.1,0.2-0.2,0.2-0.3c0,0,0,0,0.1-0.1
			c0.1-0.1,0.2-0.2,0.3-0.3c0,0,0,0,0.1-0.1c0.1-0.1,0.1-0.2,0.2-0.2c0.1-0.1,0.1-0.2,0.2-0.2c0,0,0-0.1,0.1-0.1
			c0.1-0.2,0.2-0.3,0.3-0.5c0,0,0,0,0,0c0,0,0,0,0,0c0.1-0.1,0.1-0.2,0.2-0.3c0.2-0.2,0.3-0.5,0.5-0.7c0.3-0.5,0.6-1,0.8-1.5v0
			c0.1-0.3,0.3-0.5,0.4-0.8c0,0,0,0,0,0c0.1-0.1,0.1-0.2,0.2-0.3c0.1-0.1,0.1-0.3,0.2-0.4c0.1-0.1,0.1-0.3,0.2-0.4
			c0-0.1,0.1-0.2,0.1-0.3c0.1-0.2,0.2-0.5,0.3-0.7c0.1-0.4,0.2-0.7,0.3-1.1c0-0.1,0.1-0.2,0.1-0.3c0-0.2,0.1-0.3,0.1-0.5
			c0-0.1,0-0.2,0.1-0.3c0,0,0,0,0,0c0-0.1,0.1-0.3,0.1-0.4c0-0.1,0-0.2,0.1-0.3c0,0,0-0.1,0-0.1c0-0.1,0-0.2,0-0.3
			c0-0.1,0-0.1,0-0.2c0-0.1,0-0.2,0-0.3v0c0-0.2,0.1-0.5,0.1-0.7c0-0.2,0-0.4,0-0.5c0-0.1,0-0.2,0-0.2c0,0,0,0,0-0.1
			C120.9,165.8,118.1,163.8,115.7,161.3z"/>
	</g>
</g>
<g id="Layer_20" class="st0">
	<path class="st9" d="M175.4,151c-3-8.6-6.8-14.9-10.2-20.2c-5.4,5.4-11.9,11.5-14.4,13.1c-4.8,3.1-7.3,7.1-9.9,8.3
		c-2.6,1.2-11.2,5.6-16.1,8.5c-4.9,2.9-12.9,4.2-15.7,4.7c-2.8,0.5-11.9,0.2-14.8,0.1c-2.9-0.1-2.2-1-2-1.6c0.2-0.6,6-0.7,6-0.7
		s-7.1-0.2-8.2-0.5c-1.1-0.4,0.1-2,0.8-2.2c0.7-0.2,7.7-0.7,6.4-0.8c-1.3-0.2-6.6,0-7.2-0.1c-0.6-0.1-2.3-0.2-0.7-2.6
		c1.5-2.4,8-1.9,9.8-2c1.8-0.1,8.4-1.9,11.9-3.1c3.5-1.2,4.5-3,3.7-3.2c-0.8-0.2-5.4,0.7-7.8,0.9c-2.4,0.2-4.3,1.6-5.2-0.9
		c-0.7-2.2,4.2-2.2,13.2-6.7c6.7-3.4,8.8,0.1,13.9-0.5c12.6-1.4,30.7-33.5,30.7-33.5c0,0,0,0,0,0c0.4-0.8,0.8-1.6,1.3-2.4
		c9.3-14.9,10.5-35.5,10.5-35.5c-27.1-29.3-72.6-11.2-72.6-11.2s-5.1,13.5-8.6,17.7c-3.5,4.2,4.9,11,11,13.1c0,0-6.9,4.6-13.9,12.2
		c0,0,0,0,0.1,0c3.6,0.7,8.1-0.9,10.7-1.9c2.6-1,4.8,0.1,7.6,0.6c2.8,0.5,2.6,0.4,4.2,1.6c1.5,1.2,4.9,3.2,5.4,3.5
		c0.5,0.3,1.1,1.1-0.5,2c-1.6,0.9-4.2-1.1-5.1-1.5c-0.8-0.4-4.7-1.8-5.6-2.2c0.7,0.5,3,2.8,6.1,3.5c3.6,0.8,7.4,3.7,11.6,6.7
		c4.2,3,2.5,4.9,0.8,3.8c-1.7-1.1-8.2-4.7-10-5.2c-1.8-0.5-3.7-1.4-3.6-1.1c0.1,0.3,4.4,2.5,5.6,2.7c1.3,0.2,8.2,4.4,9.5,5.3
		c1.4,1,0.9,1.6,0.3,2.4c-0.6,0.8-4.3-1.5-6.2-2.5c-2-1-11-3.9-11.5-3.8c-0.6,0.1,1.8,1.1,3.6,1.7c1.8,0.6,7.6,4.2,9.3,4.9
		c1.7,0.7,1.9,4.3-2.4,2.2c-4.2-2.1-16-6.7-13.8-5.6c2.2,1.1,4.1,2.9,7.7,3.9c3.7,1,2.9,3.2,1.1,3.6c-1.9,0.4-8.7-3-15.5-4.3
		c-6.8-1.3-12.3-8-14.5-8.1c-0.7,0-2.4,0.5-4.3,1.1c-2.9,5.5-4.8,11.7-4.6,18.3c0.7,24.8,20.2,35.8,22.2,42.6
		c1.4,4.1,1.4,8.1-1.2,10.3h73.1C168.4,183.9,181.7,169.1,175.4,151z"/>
</g>
<g id="Layer_21" class="st0">
	<path class="st9" d="M184.1,78.3H153c0.2,1.3,0.3,2.7,0.3,4.1c0,15.8-12.9,28.7-28.7,28.7c-15.8,0-28.7-12.9-28.7-28.7
		c0-1.4,0.1-2.8,0.3-4.1H65.1c-1.1,0-2.1,0.9-2.1,2.1v67.7h123.1V80.3C186.1,79.2,185.2,78.3,184.1,78.3z M149.2,113.2h6.2v4.1h-6.2
		V113.2z M73.3,98.8h12.3c3.4,0,6.2,2.8,6.2,6.2s-2.8,6.2-6.2,6.2H73.3c-3.4,0-6.2-2.8-6.2-6.2S69.9,98.8,73.3,98.8z M138.9,123.4
		v4.1V144h-28.7h-4.1H95.8h-4.1H81.5h-4.1H67.1v-16.4v-4.1v-8.2h10.3h4.1h10.3h4.1h10.3h4.1h28.7V123.4z M182,125.5h-22.7
		l-11.6,11.6l-2.9-2.9l12.8-12.8H182V125.5z M182,117.3h-22.6v-4.1H182V117.3z M182,109.1h-32.8V105H182V109.1z M103,94.3
		c-2-3.5-3.1-7.6-3.1-11.9c0-1.4,0.1-2.8,0.3-4.1c0.1-0.7,0.3-1.4,0.4-2.1c0.2-0.7,0.4-1.4,0.6-2.1c2-5.6,5.9-10.2,10.9-13.1v9
		c0,1.8,0.6,3.1,1.5,4.1c1.3,1.5,3.2,2.1,4.7,2.1h3.3v2.1v6.8c0,1.7-1.3,3.2-3,3.4h-0.3c-1.6,0-3,0.6-4.1,1.6h-4.1
		C107.2,90.1,104.5,91.7,103,94.3z M116.4,70.1V59.2c2.6-0.9,5.3-1.4,8.2-1.4c10.7,0,19.8,6.9,23.2,16.4c0.2,0.7,0.5,1.4,0.6,2.1
		c0.2,0.7,0.3,1.4,0.4,2.1c0.2,1.3,0.3,2.7,0.3,4.1c0,13.6-11,24.6-24.6,24.6c-7.6,0-14.4-3.5-18.9-8.9l0.9-1.8
		c0.7-1.3,2.1-2.2,3.6-2.2h2.1c0,0.2,0,0.3,0,0.5c0,3.4,2.8,6.2,6.2,6.2l7.8,0c5.3,0,15.3-3.4,15.3-16.3v-6.3v-2.1v-0.9
		c0-0.4,0-0.8-0.1-1.2c-0.3-2.4-1.4-4.6-3.2-6.2c-2.1-1.9-4.9-2.8-7.7-2.4c-3.8,0.4-6.8,3.1-8.1,6.5h-3.9
		C117.5,72.1,116.4,71.7,116.4,70.1z M71.2,105c0-1.1,0.9-2.1,2.1-2.1h12.3c1.1,0,2.1,0.9,2.1,2.1s-0.9,2.1-2.1,2.1H73.3
		C72.1,107,71.2,106.1,71.2,105z M118.4,96.8c-1.1,0-2.1-0.9-2.1-2.1c0-0.2,0-0.4,0.1-0.5c0.1-0.5,0.5-0.9,0.9-1.2
		c0.3-0.2,0.7-0.3,1.1-0.3l0.7,0c3.8-0.4,6.8-3.6,6.8-7.5v-6.8v-2.1v-0.6c0-0.5,0.1-1,0.2-1.4c0.6-2.4,2.5-4.2,4.9-4.5
		c1.7-0.2,3.3,0.3,4.5,1.4c0.9,0.8,1.6,1.9,1.8,3.1c0.1,0.4,0.1,0.8,0.1,1.2v0.9v2.1v6.3c0,11.8-10,12.2-11.2,12.2L118.4,96.8z
		 M81.5,119.3h10.3v4.1H81.5V119.3z M71.2,119.3h6.2v4.1h-6.2V119.3z M71.2,127.5h6.2v12.3h-6.2V127.5z M110.2,127.5h24.6v12.3
		h-24.6V127.5z M81.5,127.5h10.3v12.3H81.5V127.5z M110.2,119.3h24.6v4.1h-24.6V119.3z M95.8,119.3h10.3v4.1H95.8V119.3z M63,162.4
		c0,1.1,0.9,2.1,2.1,2.1h45.1h28.7h45.1c1.1,0,2.1-0.9,2.1-2.1v-10.3H63V162.4z M130.7,156.3h4.1v4.1c-4.1,0,0,0-4.1,0V156.3z
		 M122.5,156.3h4.1v4.1c-4.1,0,0,0-4.1,0V156.3z M114.3,156.3h4.1v4.1c-4.1,0,0,0-4.1,0V156.3z M95.8,127.5h10.3v12.3H95.8V127.5z
		 M144,180.9h5.2v4.1H148h-46.8H100v-4.1h5.2c2.8-3.1,4.6-7.5,4.9-12.3h2.1h2.1h20.7h2.1h2.1C139.4,173.4,141.2,177.8,144,180.9z"/>
</g>
<g id="Layer_22" class="st0">
	<path class="st13" d="M99.5,119.4c3.2,0.5,47.1,0.5,50.2,0c7.6-1.2,10.7-7,10.7-14.6c0-3.9-0.7-7.5-2.3-10.9
		c-1.9-3.9-3.4-8.1-4.3-12.4c-0.9-4.3-0.4-8.8-1.6-13c-2.1-7.8-7.2-14.6-14.7-17.8c-3.4-1.4-9.3-3.5-13-3c-3.6-0.5-9.6,1.6-13,3
		c-7.5,3.2-12.6,10-14.7,17.8c-1.1,4.2-0.7,8.7-1.6,13c-0.9,4.3-2.4,8.4-4.3,12.4c-1.6,3.4-2.3,7-2.3,10.9
		C88.8,112.4,91.9,118.1,99.5,119.4z"/>
	<path class="st14" d="M157.6,127.5c-12.7-2.2-18.8-4.3-23.7-18.4c-2.5-7.2-16-7.2-18.6,0c-4.9,14-11,16.2-23.7,18.4h0l33,58
		L157.6,127.5L157.6,127.5z"/>
	<path class="st13" d="M157.6,127.5c-16.9,11-50,10.8-66.1,0c0,0-16.4-2.4-16.4,20.1c0,22.5,0,45.9,0,45.9h16.4l1.5-17.8l3.1,17.8
		h28.4H153l3.1-17.8l1.5,17.8H174c0,0,0-23.4,0-45.9C174,125.2,157.6,127.5,157.6,127.5z"/>
	<ellipse class="st14" cx="124.6" cy="87.3" rx="21.5" ry="27.9"/>
</g>
<g id="Layer_10" class="st0">
	<g class="st2">
		<path class="st3" d="M148.2,103.3c-0.3,2.8-5.3,6.1-5.9,13.9c-0.6,7.8-5.9,7.9-8.1,5.9c-2.2-2-3.6-7.6-6.4-7.6c-2.8,0-2.8,0-2.8,0
			s0,0-2.8,0c-2.8,0-4.2,5.6-6.4,7.6c-2.2,2-7.5,1.9-8.1-5.9c-0.6-7.8-5.6-11.2-5.9-13.9c-0.3-2.8,0.3-4.7,0-10.6
			c-0.3-5.9,5.6-8.1,8.6-6.1c3.1,2,1.4,6.7,3.9,8.1c2.5,1.4,3.3,9,5,9.9c0.2,0.1,0.4,0.2,0.6,0.2c1,0.3,2.1-0.3,2.4-1.3
			c0.4-1.6,1.4-2.7,2.6-2.7c1.2,0,2.2,1.1,2.6,2.7c0.3,1,1.4,1.6,2.4,1.3c0.2-0.1,0.4-0.1,0.6-0.2c1.7-1,2.5-8.6,5-9.9
			c2.5-1.4,0.8-6.1,3.9-8.1c3.1-2,8.9,0.3,8.6,6.1C147.9,98.6,148.4,100.5,148.2,103.3L148.2,103.3z M118.9,126.3
			c0.1-1.2,1.5-2.2,3.2-2.2h5.9c1.6,0,3.1,0.9,3.2,2.2c0.1,1.3-1.2,2.3-2.9,2.3h-6.4C120.1,128.6,118.7,127.5,118.9,126.3
			L118.9,126.3z M121.7,131.6h6.7c1.8,0,3.5,1.2,3.6,2.8c0.2,1.6-1.3,3-3.3,3h-7.2c-2,0-3.5-1.4-3.3-3
			C118.2,132.8,119.8,131.6,121.7,131.6L121.7,131.6z M129.2,148.9h-8.4c-2.3,0-4-1.8-3.8-4c0.2-2.1,2.1-3.6,4.2-3.6h7.6
			c2.1,0,4,1.6,4.2,3.6C133.2,147,131.5,148.9,129.2,148.9L129.2,148.9z M208.9,138.4c-5.6-16.2-35.8-19.4-35.8-19.4
			c-20-4.4-15.7-43.7-15.7-43.7H92.6c0,0,4.3,39.2-15.7,43.7c0,0-30.2,3.2-35.8,19.4c-1.3,3.7-2.7,17.8-4.1,25.2
			c-0.4,1.9,1.1,3.6,3,3.6h170.2c1.9,0,3.4-1.8,3-3.6C211.6,156.2,210.2,142.1,208.9,138.4L208.9,138.4z"/>
	</g>
</g>
<g id="Layer_11" class="st0">
	<rect x="117.4" y="161.3" class="st9" width="15.2" height="47.7"/>
	<path class="st9" d="M133.5,41h-16.9c-16.7,0-30.2,13.5-30.2,30.2v53.8c0,16.7,13.5,30.2,30.2,30.2h16.9
		c16.7,0,30.2-13.5,30.2-30.2V71.3C163.7,54.6,150.2,41,133.5,41z M112.9,137.3c-2.6,0-4.7-2.1-4.7-4.7c0-2.6,2.1-4.7,4.7-4.7
		c2.6,0,4.7,2.1,4.7,4.7C117.6,135.1,115.5,137.3,112.9,137.3z M137.1,137.3c-2.6,0-4.7-2.1-4.7-4.7c0-2.6,2.1-4.7,4.7-4.7
		c2.6,0,4.7,2.1,4.7,4.7C141.8,135.1,139.7,137.3,137.1,137.3z M153.6,117H96.4V59.8h57.2V117z"/>
	<path class="st15" d="M125,110.8c6.7,0,12.2-5,12.2-11.2c0-8.5-3.9-11.5-12.2-31.9c-8.3,20.4-12.2,23.4-12.2,31.9
		C112.8,105.9,118.3,110.8,125,110.8z"/>
</g>
<g id="Layer_12" class="st0">
	<g class="st2">
		<g>
			<g>
				<g>
					<path class="st3" d="M159.5,198.4c-26.9,0-48.9-21.9-48.9-48.9c0-26.9,21.9-48.9,48.9-48.9c26.9,0,48.9,21.9,48.9,48.9
						C208.3,176.5,186.4,198.4,159.5,198.4z M159.5,106.5c-23.7,0-43,19.3-43,43c0,23.7,19.3,43,43,43c23.7,0,43-19.3,43-43
						C202.5,125.8,183.2,106.5,159.5,106.5z"/>
				</g>
				<g>
					<path class="st3" d="M158.8,119.4c-1.3,0-2.3-1-2.3-2.3V112c0-1.3,1-2.3,2.3-2.3h1.8c1.3,0,2.3,1,2.3,2.3v5.1
						c0,1.3-1,2.3-2.3,2.3H158.8z"/>
				</g>
				<g>
					<path class="st3" d="M191.9,152.8c-1.3,0-2.3-1-2.3-2.3v-1.8c0-1.3,1-2.3,2.3-2.3h5.1c1.3,0,2.3,1,2.3,2.3v1.8
						c0,1.3-1,2.3-2.3,2.3H191.9z"/>
				</g>
				<g>
					<path class="st3" d="M158.6,189.6c-1.3,0-2.3-1-2.3-2.3v-5.1c0-1.3,1-2.3,2.3-2.3h1.8c1.3,0,2.3,1,2.3,2.3v5.1
						c0,1.3-1,2.3-2.3,2.3H158.6z"/>
				</g>
				<g>
					<path class="st3" d="M121.9,153c-1.3,0-2.3-1-2.3-2.3v-1.8c0-1.3,1-2.3,2.3-2.3h5.1c1.3,0,2.3,1,2.3,2.3v1.8
						c0,1.3-1,2.3-2.3,2.3H121.9z"/>
				</g>
			</g>
			
				<ellipse transform="matrix(0.1616 -0.9869 0.9869 0.1616 -13.7023 282.9576)" class="st3" cx="159.7" cy="149.5" rx="8.6" ry="8.6"/>
			<polygon class="st3" points="140.3,117.1 155.4,155.9 161.3,152.4 167.1,148.9 			"/>
		</g>
		<path class="st3" d="M100.1,147.7c0-31.1,25.2-56.3,56.3-56.3c8.6,0,16.8,1.9,24.1,5.4c1.8-16.6-6.2-41.1-33-43.8
			c-30-3-36.6,20.3-36.6,20.3c-1.7-13.2-16.8-19.6-16.8-19.6c-27.6-8-41.5,9.5-47.7,19.4c-6.1,9.8-6.9,25.2,0.5,38.7
			c7.4,13.5,29.8,30.2,36.3,35.2c3.7,2.9,11.8,8.6,18.2,13C100.6,156,100.1,151.9,100.1,147.7z"/>
	</g>
</g>
<g id="Layer_13" class="st0">
	<g id="heart_3_" class="st2">
		<path id="heart_4_" class="st3" d="M204.6,107.5c0-23.2-18.8-41.9-41.9-41.9c-13.4,0-25.4,7.2-33.1,17c-7.7-9.8-19.6-17-33.1-17
			c-23.2,0-41.9,18.8-41.9,41.9c0,0-6,37.4,75,89.5C210.6,145,204.6,107.5,204.6,107.5z"/>
		<path id="line_2_" class="st4" d="M132,158.1c-0.1,0-0.1,0-0.2,0c-0.9-0.1-1.7-0.7-1.9-1.7l-10.1-49.8l-10.7,30.4
			c-0.3,0.8-1.1,1.4-2,1.4H81.5c-1.1,0-2.1-0.9-2.1-2.1c0-1.1,0.9-2.1,2.1-2.1h24.2l12.7-36.1c0.3-0.9,1.2-1.4,2.1-1.4
			c0.9,0.1,1.7,0.7,1.9,1.7l10.2,50l9.6-25.7c0.3-0.8,1-1.3,1.8-1.3c0.8,0,1.6,0.4,2,1.1l5,10h26.6c1.1,0,2.1,0.9,2.1,2.1
			s-0.9,2.1-2.1,2.1h-27.9c-0.8,0-1.5-0.4-1.9-1.1l-3.5-6.9L134,156.7C133.7,157.6,132.9,158.1,132,158.1z"/>
	</g>
</g>
<g id="Layer_14" class="st0">
	<g class="st2">
		<g>
			<path class="st16" d="M115.2,157c-0.9,13.8-6,20.7-10.6,26.2c-4.5,5.5-37.9,7-44.5,0.2c0,0,0,0,0,0c-0.1-0.1-0.1-0.1-0.2-0.2
				c-3.4-3.9-2.3-12-2-16.6c0.5-7.8,1.6-15.6,3-23.2c0.3-1.6,0.6-3.1,0.9-4.7c1-5.3,2-9,2.4-9.7c0.1-0.1,0.2-0.3,0.3-0.6
				c1.1-3.2,2.5-6.3,3.8-9.4c2.3-5.6,4.7-11.4,7.6-17c0.3-0.7,0.5-1.2,0.6-1.6c0.3-0.8,1.2-2.3,2.5-4.1c4.8-7.9,10.7-15,18.9-19.7
				c0.1,0,0.1-0.1,0.2-0.1h0v0c0.1,0,0.1-0.1,0.2-0.1c0,0,0,0,0.1,0c0,0,0.1-0.1,0.1-0.1c0,0,0,0,0.1,0c0.1,0,0.1-0.1,0.2-0.1
				c0,0,0,0,0,0c0.1,0,0.1-0.1,0.2-0.1c0,0,0,0,0,0c0.1,0,0.1,0,0.2-0.1c0,0,0,0,0.1,0c0.1,0,0.1,0,0.2-0.1c0,0,0,0,0,0
				c0.1,0,0.1,0,0.2-0.1c0,0,0,0,0,0c0.1,0,0.1,0,0.2-0.1c0,0,0,0,0,0c0.1,0,0.1,0,0.2,0c0,0,0,0,0,0c0.1,0,0.2-0.1,0.4-0.1
				c0,0,0,0,0,0c0.1,0,0.1,0,0.2,0c0,0,0,0,0,0c0.1,0,0.1,0,0.2,0c0,0,0,0,0,0c0.1,0,0.1,0,0.2,0c0,0,0,0,0,0c0.1,0,0.1,0,0.2,0
				c0,0,0,0,0,0c0.1,0,0.1,0,0.2,0h0c0.1,0,0.2,0,0.3,0c0,0,0,0,0,0c0.1,0,0.1,0,0.1,0c0,0,0,0,0,0c0.1,0,0.2,0,0.3,0c0,0,0,0,0,0
				c0.1,0,0.1,0,0.2,0c0,0,0,0,0,0c0.2,0,0.3,0.1,0.5,0.1c0,0,0,0,0,0c0.1,0,0.1,0,0.1,0.1c0,0,0,0,0,0c0.1,0,0.2,0.1,0.3,0.1
				c0,0,0,0,0,0c0,0,0.1,0,0.1,0.1c0,0,0,0,0,0c0.2,0.1,0.3,0.2,0.5,0.2c0,0,0,0,0,0c3.4,2,5.3,7.4,6.2,10
				c1.4,3.8,1.8,11.5,1.8,11.5c0.1,1.4,0.5,6.1,0.9,11.8c0.3,3.2,0.6,6.7,0.9,10c0.5,5.2,1.2,10.1,1.8,13
				C117.6,140.3,115.2,157,115.2,157z"/>
			<path class="st16" d="M187.3,177.5c-0.2,2-0.6,4.2-1.9,5.6c-0.1,0.1-0.1,0.1-0.2,0.2c0,0,0,0,0,0c-6.6,6.8-39.9,5.3-44.5-0.2
				c-4.6-5.5-9.6-12.4-10.6-26.2c0,0-2.4-16.7-0.6-24.5c0.7-2.9,1.3-7.8,1.8-13.1c0.3-3.4,0.7-6.9,0.9-10.1
				c0.5-5.5,0.8-10.2,0.9-11.5c0,0,0.5-7.6,1.8-11.5c0.9-2.6,2.8-8,6.2-10c0,0,0,0,0,0c0.1-0.1,0.3-0.2,0.5-0.2c0,0,0,0,0,0
				c0,0,0.1,0,0.1-0.1c0,0,0,0,0,0c0.1,0,0.2-0.1,0.3-0.1c0,0,0,0,0,0c0,0,0.1,0,0.1,0c0,0,0,0,0,0c0.1,0,0.1,0,0.2,0h0
				c0.1,0,0.1,0,0.2,0c0,0,0,0,0,0c0,0,0.1,0,0.1,0l0,0c0,0,0.1,0,0.1,0c0,0,0,0,0,0c0.1,0,0.2,0,0.3,0c0,0,0,0,0,0c0,0,0.1,0,0.1,0
				c0,0,0,0,0,0c0.1,0,0.1,0,0.2,0h0c0.1,0,0.1,0,0.2,0c0,0,0,0,0,0c0,0,0.1,0,0.1,0c0,0,0,0,0,0c0,0,0.1,0,0.1,0c0,0,0,0,0,0
				c0.1,0,0.1,0,0.2,0c0,0,0,0,0,0c0,0,0.1,0,0.1,0c0,0,0,0,0.1,0c0,0,0.1,0,0.1,0c0,0,0,0,0,0c0.1,0,0.1,0,0.2,0c0,0,0,0,0,0
				c0.1,0,0.1,0,0.2,0c0,0,0,0,0.1,0c0,0,0.1,0,0.1,0c0,0,0,0,0.1,0c0.1,0,0.1,0,0.2,0c0,0,0,0,0,0c0.1,0,0.1,0,0.2,0.1c0,0,0,0,0,0
				c0,0,0.1,0,0.1,0.1c0,0,0,0,0.1,0c0,0,0.1,0,0.1,0.1c0,0,0,0,0,0c0.1,0,0.1,0.1,0.2,0.1c0,0,0,0,0,0c0.1,0,0.1,0.1,0.2,0.1
				c0,0,0,0,0.1,0l0.1,0.1c0,0,0,0,0.1,0c0.1,0,0.1,0.1,0.2,0.1c0.8,0.5,1.8,1.1,2.7,1.9c0.1,0.1,0.3,0.2,0.4,0.3
				c0.4,0.3,0.8,0.7,1.2,1c0.1,0.1,0.3,0.2,0.4,0.4c0.1,0.1,0.1,0.1,0.2,0.2c0.1,0.1,0.2,0.2,0.3,0.3c0.1,0.1,0.2,0.2,0.3,0.3
				c0.2,0.2,0.5,0.5,0.7,0.7c0.1,0.1,0.1,0.1,0.2,0.2c6.6,6.4,13.9,15.9,15.1,18.7v0c0,0.1,0.1,0.2,0.1,0.3c1.1,2.8,5.2,12,8.4,19.3
				c1.6,3.3,3.3,6.6,4.4,10.2c0.9,2.9,1.5,6,2,9.1C185.8,150.4,188.5,168,187.3,177.5z"/>
		</g>
		<path class="st16" d="M132.4,109.3c-0.3,3.2-0.6,6.7-0.9,10.1c-4.6-5.5-8.8-10.4-8.8-10.4v0.3c0,0-4.2,4.8-8.6,10.2
			c-0.3-3.3-0.7-6.8-0.9-10c2.3-2.6,4-5.5,4.5-6.5l-0.1,0l0-0.9c0,0,0,0-0.1-0.1c0,0,0,0,0.1,0l0-1.9c0,0,0,0,0-0.1c0,0,0,0,0,0
			l0-1.9c0,0,0,0,0,0c0,0,0,0,0,0l0-1.9c0,0,0,0,0,0c0,0,0,0,0,0l0-1.9c0,0,0,0,0,0c0,0,0,0,0,0l0-1.9c0,0,0,0,0,0c0,0,0,0,0,0
			l0-31.1c0-2.8,2.3-5.2,5.1-5.2h0c2.8,0,5.1,2.3,5.1,5.1l0.2,41.6h0C128.5,104,130.2,106.8,132.4,109.3z"/>
		<path class="st4" d="M107.4,127.6c-0.4,0.6-0.8,1.1-1.2,1.7c0.5,0.7,1,1.5,1.5,2.2c0-0.1,0.1-0.1,0.2-0.1c1.4-0.4,3.5,0.1,4.7,1
			c0.2,0.2-0.1,0.5-0.3,0.4c-0.8-0.4-1.6-0.5-2.5-0.5c-0.5,0-1,0-1.6,0c0.8,1.2,1.8,2.1,3.2,2.7c0.1,0,0.1,0.2-0.1,0.2
			c-2.8-0.2-4-3.1-5.5-5.2c-3.4,5.1-5.2,9.9-6.1,14.3c0.5,0.8,1.2,1.6,1.7,2.4c0.9,0.4,1.9,0.5,2.7,1.1c1.1,0.7,2,1.6,2.8,2.7
			c0.1,0.1-0.1,0.3-0.2,0.2c-1-1-2.6-2.2-4.1-2.5c-0.2,0-0.4-0.1-0.5-0.1c0.6,1.1,1.1,2.3,1.6,3.6c0.8,2.2,1.1,5.5,3.4,6.6
			c0.2,0.1,0,0.4-0.2,0.3c-2.2-0.9-3-3.7-3.7-5.8c-0.2-0.5-0.3-1-0.5-1.5c0,0.7,0.1,1.5,0.1,2.2c0.1,1.2,0.5,2.3,1,3.4
			c0.1,0.2-0.3,0.4-0.4,0.2c-0.4-1-1.1-2-1.2-3.1c-0.1-1.5-0.3-3-0.4-4.5c0-0.1,0-0.1,0-0.2c-0.3-0.6-0.6-1.1-1-1.7
			c-0.2-0.1-0.3-0.3-0.5-0.5c0-0.1,0-0.1-0.1-0.2c-0.3-0.4-0.6-0.8-0.9-1.2c-0.1,0.8-0.3,1.6-0.4,2.4c-0.3,2.1-0.3,4.3-0.2,6.3
			c0.1,1.3,0.4,2.5,0.7,3.9c0.5,1.9,0.8,3.8,1,5.8c0.1,0,0.1,0.1,0.1,0.1c0.6,1,1.4,1.9,2,2.9c0.5,0.9,0.8,1.9,1.1,3
			c0.4,1.7,1.1,4.8,3,5.4c0,0,0,0,0.1,0.1c0,0,0,0,0,0c0,0.1-0.1,0.1-0.1,0.1c-0.5,0-1.1-0.6-1.4-1c-0.7-0.9-1.2-2-1.6-3.1
			c-0.5-1.3-0.8-2.7-1.4-3.9c-0.4-0.7-1-1.4-1.5-2.1c0.2,2.4,0.3,4.7,0.4,7.1c0.1,2.1,0.4,4.2,1.3,6.2c0,0,0,0.1-0.1,0
			c-1.3-1.4-1.6-3.6-1.8-5.4c0-0.4-0.1-0.8-0.1-1.2c-0.2,0.7-0.5,1.3-0.8,1.9c-0.5,0.9-1.1,1.9-1.3,2.9c-0.2,1,0.1,1.9,0,2.9
			c0,0.1-0.1,0.1-0.2,0c-0.6-1.6-0.5-3.2,0.2-4.7c0.8-1.9,1.5-3.6,1.7-5.6c0-0.1,0.1-0.2,0.1-0.3c-0.1-1.3-0.3-2.6-0.4-3.9
			c-0.1-0.6-0.2-1.3-0.3-1.9c-0.1,0.5-0.2,1-0.4,1.5c-0.4,1.3-1.1,2.3-1.9,3.4c-1.7,2.5-2.6,5.1-2.3,8.2c0,0.2-0.2,0.1-0.2,0
			c-0.3-2.6,0.2-5.1,1.4-7.4c0.5-0.9,1-1.7,1.5-2.6c-0.6,0.4-1.4,0.6-2,1.1c-1.7,1-2.3,3-2.8,4.8c-0.1,0.2-0.3,0.1-0.3-0.1
			c0.2-1.6,0.5-3.3,1.6-4.6c1.1-1.3,2.9-1.6,3.9-3.1c0.1-0.1,0.2-0.2,0.4-0.2c0.2-1.2,0.2-2.4,0.5-3.6c0-0.1,0.1-0.2,0.2-0.3
			c0-0.2-0.1-0.4-0.1-0.6c0,0,0,0,0,0c-0.4-0.4-0.6-1.3-0.9-2.5l0,0.7c0,0-0.2,0-0.4,0c0,0-0.1,0-0.1,0c0,0-0.1,0-0.1,0
			c-0.1,0-0.1,0-0.2,0c-0.1,0-0.3,0-0.5,0.1c-0.4,0.1-0.9,0.2-1.4,0.5c-0.5,0.3-1.1,0.7-1.7,1.2c-0.6,0.6-1.3,1.3-1.9,2.1
			c0,0,0,0,0,0c-0.1,0.3-0.1,0.6-0.2,1.1c-0.2,1-0.3,2.3-0.5,3.6c-0.1,0.3-0.1,0.7-0.2,1c-0.1,0.3-0.2,0.6-0.2,0.9
			c-0.1,0.3-0.2,0.6-0.3,0.9c-0.1,0.3-0.2,0.5-0.3,0.7c-0.1,0.1-0.1,0.2-0.2,0.3c-0.1,0.1-0.1,0.2-0.2,0.3c-0.1,0.2-0.2,0.3-0.3,0.4
			c-0.2,0.2-0.3,0.3-0.3,0.3s0.1-0.1,0.3-0.4c0.1-0.1,0.2-0.3,0.3-0.4c0-0.1,0.1-0.2,0.2-0.3c0-0.1,0.1-0.2,0.1-0.3
			c0.1-0.2,0.2-0.5,0.3-0.7c0.1-0.3,0.1-0.6,0.2-0.9c0.1-0.3,0.1-0.6,0.1-0.9c0-0.3,0.1-0.6,0.1-1c0.1-1.1,0.1-2.3,0.1-3.3
			c-0.2,0.3-0.4,0.6-0.7,1c-0.6,0.9-1.3,1.9-1.9,2.9c-0.7,1-1.4,2-2.2,2.9c-0.1,0.1-0.2,0.2-0.3,0.3l-0.2,0.2l-0.1,0.1l0,0l0,0l0,0
			l-0.3,0.3c-0.1,0.1-0.3,0.2-0.4,0.3c-0.5,0.4-1.1,0.7-1.7,1c0,0-0.1,0-0.1,0.1l0.2,0.1c0,0-0.1,0.2-0.2,0.6
			c-0.1,0.4-0.3,0.9-0.5,1.5c0.1,0.1,0.2,0.1,0.3,0.2c0.1,0.1,0.2,0.1,0.2,0.2c0.1,0.1,0.2,0.2,0.2,0.2c0.2,0.2,0.3,0.4,0.5,0.6
			c0.1,0.1,0.2,0.2,0.2,0.3c0.1,0.1,0.2,0.2,0.2,0.4c0.1,0.2,0.3,0.5,0.4,0.8c0.1,0.3,0.2,0.6,0.3,0.8c0.1,0.3,0.2,0.6,0.2,0.9
			c0.1,0.3,0.1,0.6,0.2,0.9c0,0.3,0.1,0.5,0.1,0.8c0,0.3,0,0.5,0,0.7c0,0.2,0,0.4,0,0.6c0,0.2,0,0.3,0,0.5c0,0.3,0,0.4,0,0.4
			s0-0.1,0-0.4c0-0.1,0-0.3,0-0.5c0-0.2,0-0.4,0-0.6c0-0.2,0-0.5-0.1-0.7c0-0.3-0.1-0.5-0.1-0.8c-0.1-0.3-0.1-0.6-0.2-0.8
			c-0.1-0.3-0.2-0.6-0.3-0.8c-0.1-0.3-0.2-0.6-0.3-0.8c-0.1-0.3-0.3-0.5-0.4-0.7c-0.1-0.1-0.2-0.2-0.2-0.3c-0.1-0.1-0.1-0.2-0.2-0.3
			c-0.2-0.2-0.3-0.4-0.5-0.5c-0.1-0.1-0.2-0.1-0.2-0.2c-0.1-0.1-0.2-0.1-0.2-0.2c-0.1-0.1-0.1-0.1-0.2-0.2c-0.2,0.6-0.4,1.3-0.7,2
			c-0.3,0.8-0.7,1.7-1.2,2.5c-0.2,0.4-0.5,0.8-0.8,1.1c-0.3,0.4-0.6,0.7-1,0.9c-0.4,0.3-0.7,0.5-1.1,0.6c-0.4,0.2-0.7,0.3-1.1,0.4
			c-0.3,0.1-0.7,0.1-0.9,0.2c-0.3,0-0.5,0-0.7,0.1c-0.4,0-0.6,0-0.6,0s0.2,0,0.6,0c0.2,0,0.4,0,0.7-0.1c0.3,0,0.6-0.1,0.9-0.2
			c0.3-0.1,0.7-0.2,1-0.4c0.3-0.2,0.7-0.4,1-0.7c0.3-0.3,0.6-0.6,0.9-0.9c0.3-0.4,0.5-0.7,0.7-1.1c0.4-0.8,0.7-1.7,1-2.5
			c0.2-0.8,0.4-1.6,0.6-2.3c0.2-0.7,0.3-1.2,0.5-1.6c0,0,0,0,0-0.1c-0.9,0.2-1.7,0.3-2.5,0.4c-1.2,0.1-2.2,0-3.3,0c-1,0-2-0.1-2.9,0
			c-0.9,0.1-1.7,0.2-2.4,0.4c-0.7,0.2-1.2,0.5-1.7,0.8c-0.2,0.1-0.4,0.3-0.6,0.4c-0.2,0.1-0.3,0.2-0.4,0.3c-0.2,0.2-0.3,0.3-0.3,0.3
			c0,0,0.1-0.1,0.3-0.3c0.1-0.1,0.2-0.2,0.4-0.4c0.1-0.1,0.3-0.3,0.5-0.5c0.4-0.3,1-0.7,1.7-0.9c0.7-0.3,1.5-0.5,2.4-0.6
			c0.9-0.1,1.9-0.2,2.9-0.3c0.4,0,0.9,0,1.3-0.1c-0.2-0.3-0.4-0.6-0.6-1c-0.2-0.3-0.3-0.5-0.5-0.8c-0.2-0.3-0.4-0.5-0.7-0.8
			l-0.2-0.2l-0.1-0.1l0,0l0,0l0,0l-0.1,0c-0.2-0.1-0.3-0.2-0.5-0.3l-0.2-0.2l-0.3-0.1l-0.5-0.3c-0.4-0.2-0.7-0.3-1.1-0.5
			c-0.4-0.1-0.7-0.3-1.1-0.4c-0.7-0.2-1.4-0.5-2-0.7c-0.3-0.1-0.6-0.2-0.8-0.3c-0.2-0.1-0.4-0.2-0.6-0.2c-0.3-0.1-0.5-0.2-0.5-0.2
			s0.2,0.1,0.5,0.2c0.2,0,0.4,0.1,0.6,0.2c0.2,0.1,0.5,0.1,0.8,0.2c0.6,0.1,1.3,0.3,2.1,0.5c0.4,0.1,0.8,0.2,1.2,0.3
			c0.4,0.1,0.8,0.3,1.2,0.4l0.6,0.3l0.3,0.1l0.3,0.2c0.2,0.1,0.3,0.2,0.5,0.3l0.1,0l0,0l0,0l0,0l0.1,0.1c0.1,0.1,0.2,0.1,0.2,0.2
			c0.3,0.3,0.6,0.6,0.8,0.8c0.2,0.3,0.4,0.6,0.6,0.8c0.4,0.5,0.6,0.9,0.8,1.2c0,0.1,0.1,0.1,0.1,0.2c0.3,0,0.6-0.1,0.8-0.1
			c1.1-0.2,2.2-0.4,3.1-0.9c0.5-0.2,0.9-0.6,1.3-0.9c0.1-0.1,0.2-0.2,0.3-0.3l0.3-0.3l0,0l0,0c0,0,0,0,0,0c0,0,0,0,0,0l0,0l0,0
			l0.1-0.1l0.1-0.2c0.1-0.1,0.2-0.2,0.3-0.3c0.7-0.9,1.3-1.9,1.8-2.9c0,0,0-0.1,0.1-0.1c0,0,0,0,0,0c-0.3-0.1-0.6-0.3-0.9-0.6
			c-0.3-0.2-0.6-0.5-1-0.8c-0.3-0.2-0.6-0.4-1.1-0.5l-0.6,0c0,0,0-0.1,0-0.1c-0.4-0.1-0.8-0.1-1.2-0.2c-0.6,0-1.2,0-1.8,0.1
			c-0.6,0.1-1.2,0.1-1.9,0.2c-0.1,0-0.2,0-0.2,0l-0.1,0.1c0,0,0,0-0.1-0.1c-0.5,0-0.9,0.1-1.4,0.1c-0.6,0-1.2,0-1.8-0.1
			c-0.3,0-0.6-0.1-0.9-0.1c-0.3,0-0.6-0.1-0.8-0.2c-0.5-0.1-1-0.3-1.4-0.5c-0.4-0.2-0.8-0.4-1.1-0.7c-0.1-0.1-0.2-0.1-0.2-0.2
			c-0.1-0.1-0.1-0.1-0.2-0.2c-0.1-0.1-0.2-0.2-0.3-0.3c-0.2-0.2-0.3-0.4-0.4-0.5c-0.1-0.1-0.1-0.1-0.2-0.2c0,0,0.1,0.1,0.2,0.2
			c0.1,0.1,0.3,0.3,0.5,0.4c0.1,0.1,0.2,0.2,0.4,0.3c0.1,0.1,0.1,0.1,0.2,0.2c0.1,0,0.2,0.1,0.2,0.1c0.3,0.2,0.7,0.4,1.1,0.6
			c0.4,0.2,0.9,0.4,1.4,0.5c0.3,0.1,0.5,0.1,0.8,0.1c0.3,0,0.6,0.1,0.9,0.1c0.6,0,1.2,0,1.8,0c0.3,0,0.7-0.1,1-0.1
			c-0.1-0.1-0.1-0.1-0.2-0.2c-0.1-0.2-0.2-0.4-0.4-0.6c-0.1-0.2-0.3-0.4-0.4-0.7c-0.1-0.1-0.2-0.2-0.3-0.3c-0.1-0.1-0.2-0.2-0.3-0.3
			c-0.1-0.1-0.2-0.2-0.3-0.3c-0.1-0.1-0.3-0.2-0.4-0.3c-0.1-0.1-0.3-0.1-0.4-0.2c-0.1-0.1-0.3-0.1-0.5-0.2c-0.6-0.2-1.3-0.4-1.8-0.6
			c-0.6-0.2-1.2-0.4-1.6-0.6c-0.1-0.1-0.2-0.1-0.3-0.2c-0.1-0.1-0.2-0.1-0.3-0.2c-0.2-0.1-0.3-0.2-0.4-0.3c-0.2-0.2-0.3-0.3-0.3-0.3
			c0,0,0.2,0.1,0.3,0.3c0.1,0.1,0.3,0.2,0.4,0.3c0.1,0,0.2,0.1,0.3,0.2c0.1,0,0.2,0.1,0.3,0.2c0.5,0.2,1,0.4,1.6,0.5
			c0.6,0.2,1.2,0.3,1.9,0.5c0.2,0.1,0.3,0.1,0.5,0.2c0.2,0.1,0.3,0.1,0.5,0.2c0.3,0.2,0.6,0.4,0.8,0.6c0.1,0.1,0.2,0.2,0.3,0.3
			c0.1,0.1,0.2,0.2,0.3,0.3c0.2,0.2,0.3,0.5,0.5,0.7c0.1,0.2,0.3,0.4,0.4,0.5c0.1,0.1,0.2,0.2,0.3,0.3c0.2,0,0.3,0,0.5-0.1
			c0.6-0.1,1.2-0.2,1.8-0.3c0.6-0.1,1.2-0.2,1.9-0.2c0.4,0,0.8,0,1.2,0.1v0c0-0.2,0-0.4,0-0.6c0-0.2,0-0.5-0.1-0.7
			c0-0.2-0.1-0.5-0.2-0.8c-0.1-0.3-0.2-0.5-0.3-0.8c-0.1-0.3-0.3-0.5-0.5-0.8c-0.2-0.2-0.4-0.5-0.6-0.7c-0.2-0.2-0.4-0.4-0.6-0.6
			c-0.4-0.4-0.8-0.7-1.2-1c-0.2-0.1-0.4-0.3-0.5-0.4c-0.2-0.1-0.3-0.2-0.4-0.3c-0.2-0.1-0.3-0.2-0.3-0.2c0,0,0.2,0.1,0.4,0.2
			c0.1,0.1,0.3,0.1,0.4,0.2c0.2,0.1,0.3,0.2,0.5,0.3c0.4,0.2,0.8,0.5,1.3,0.9c0.2,0.2,0.5,0.4,0.7,0.6c0.2,0.2,0.4,0.4,0.7,0.7
			c0.2,0.2,0.4,0.5,0.6,0.8c0.2,0.3,0.3,0.5,0.5,0.8c0.1,0.3,0.2,0.6,0.3,0.8c0.1,0.3,0.1,0.5,0.2,0.8c0.1,0.2,0.1,0.5,0.1,0.7
			c0,0.1,0,0.2,0,0.2c0.4,0.1,0.8,0.3,1.1,0.5c0.4,0.3,0.8,0.5,1.1,0.7c0.3,0.2,0.6,0.4,0.8,0.5c0,0,0.1,0,0.1,0
			c0.4-0.7,0.8-1.4,1.2-2.1c1.1-2,2.3-3.8,3.6-5.3c0.7-0.7,1.4-1.3,2.2-1.8c0.7-0.5,1.5-0.8,2.1-0.9c0.3-0.1,0.6-0.2,0.9-0.2
			c0.1,0,0.2,0,0.3,0c-0.1-0.3-0.2-0.6-0.4-0.9c-0.4-0.8-0.5-2.8-0.4-5.3c-0.7,0.6-1.5,1.1-2.3,1.5c0,0,0,0.1-0.1,0.1
			c-1.1,0.9-1.6,2.4-2.2,3.7c-0.4,0.9-0.9,1.8-1.1,2.8c-0.1,0.5-0.2,0.9-0.4,1.3c0,0.1-0.1,0-0.1,0c0.2-0.8,0.3-1.7,0.5-2.5
			c0.3-0.9,0.6-1.8,1-2.7c0.2-0.6,0.4-1.2,0.7-1.8c-0.6,0.3-1.2,0.5-1.8,0.7c-0.7,0.2-1.3,0.4-2,0.5c0,0.1,0,0.2-0.1,0.3
			c-0.8,1.1-1.5,2.3-2.5,3.2c-0.6,0.6-1.3,1.4-2.1,1.7c-0.1,0-0.2-0.1-0.1-0.2c0.8-0.4,1.5-1.4,2.1-2.1c0.7-0.8,1.4-1.8,1.8-2.9
			c-2.1,0.3-4.2,0.2-6.3-0.4c-0.1,0-0.1-0.2,0-0.1c3,0.5,6.2,0.2,9-0.9c1.4-0.5,2.7-1.2,3.9-2c0.8-0.6,1.5-1.3,2.1-2
			c0.2-2.6,0.4-5.5,0.7-7.9c-0.1,0-0.1-0.1-0.3-0.1c-0.1-0.1-0.2-0.1-0.4-0.2c0,0-0.1,0-0.1-0.1c0,0-0.1,0-0.1,0
			c-0.1,0-0.1,0-0.2-0.1c-0.1,0-0.1-0.1-0.2-0.1c-0.1,0-0.2-0.1-0.3-0.1c-0.2,0-0.4-0.1-0.7-0.1c-0.2,0-0.5-0.1-0.8-0.1
			c-0.1,0-0.3,0-0.4,0c-0.2,0-0.3,0-0.5,0c-0.3,0-0.7,0.1-1,0.1c-0.2,0-0.4,0.1-0.5,0.1c-0.1,0-0.1,0-0.2,0
			c-0.1,0.3-0.2,0.5-0.2,0.8c-0.1,0.3-0.2,0.7-0.3,1.1c-0.1,0.4-0.2,0.8-0.3,1.2c-0.1,0.4-0.2,0.9-0.2,1.3c0,0.2-0.1,0.5-0.1,0.7
			c0,0.2-0.1,0.5-0.1,0.7c-0.1,0.5-0.2,0.9-0.3,1.4c-0.1,0.2-0.2,0.4-0.2,0.7c-0.1,0.2-0.2,0.4-0.3,0.6c-0.2,0.4-0.4,0.8-0.6,1.1
			c-0.1,0.1-0.1,0.2-0.2,0.2c-0.1,0.1-0.1,0.1-0.2,0.2c-0.1,0.1-0.1,0.1-0.2,0.2c-0.1,0.1-0.1,0.1-0.2,0.2c-0.1,0.1-0.1,0.1-0.2,0.2
			c-0.1,0-0.1,0.1-0.2,0.1c-0.1,0-0.1,0.1-0.2,0.1c-0.1,0-0.1,0.1-0.2,0.1c-0.3,0.1-0.5,0.2-0.7,0.2c-0.2,0-0.4,0-0.5,0.1
			c-0.1,0-0.2,0-0.2,0s0.1,0,0.2,0c0.1,0,0.3,0,0.5-0.1c0.2-0.1,0.4-0.1,0.7-0.3c0.1,0,0.1-0.1,0.2-0.1c0.1,0,0.1-0.1,0.2-0.1
			c0.1,0,0.1-0.1,0.2-0.1c0.1-0.1,0.1-0.1,0.2-0.2c0.1-0.1,0.1-0.1,0.2-0.2c0.1-0.1,0.1-0.1,0.2-0.2c0.1-0.1,0.1-0.1,0.2-0.2
			c0.1-0.1,0.1-0.2,0.2-0.2c0.2-0.3,0.4-0.7,0.6-1.1c0.1-0.2,0.1-0.4,0.2-0.6c0.1-0.2,0.1-0.4,0.2-0.7c0.1-0.4,0.2-0.9,0.2-1.4
			c0-0.2,0-0.4,0.1-0.7c0-0.2,0-0.5,0-0.7c0-0.5,0.1-0.9,0.1-1.4c0.1-0.4,0.2-0.9,0.3-1.3c0.1-0.4,0.2-0.8,0.3-1.1
			c0-0.1,0.1-0.3,0.1-0.4c-0.6,0.2-1.2,0.4-1.8,0.6c-0.8,0.3-1.6,0.7-2.5,1.2c-0.4,0.2-0.9,0.4-1.3,0.7c-0.4,0.2-0.9,0.5-1.3,0.7
			c-0.9,0.4-1.8,0.8-2.8,1.1c-0.9,0.3-1.8,0.6-2.7,0.8c0,0,0,0-0.1,0c0,0-0.1,0.1-0.1,0.1c0,0-0.1,0.1-0.1,0.1
			c-0.1,0.1-0.2,0.2-0.4,0.4c-0.1,0.2-0.3,0.4-0.4,0.6c-0.3,0.5-0.5,1.1-0.9,1.8c-0.2,0.3-0.3,0.7-0.6,1c-0.2,0.3-0.5,0.6-0.7,0.9
			c-0.3,0.3-0.5,0.6-0.8,0.9c-0.3,0.3-0.6,0.5-0.9,0.7c-0.3,0.2-0.6,0.4-0.9,0.5c-0.3,0.1-0.6,0.3-0.9,0.3c-0.3,0.1-0.6,0.1-0.8,0.1
			c-0.2,0-0.4,0-0.6,0c-0.2,0-0.3,0-0.4,0c-0.1,0-0.1,0-0.1,0s0,0,0.1,0c0.1,0,0.2,0,0.4,0c0.2,0,0.4,0,0.6-0.1
			c0.2,0,0.5-0.1,0.8-0.2c0.3-0.1,0.6-0.2,0.8-0.4c0.3-0.2,0.6-0.4,0.9-0.6c0.3-0.2,0.5-0.5,0.8-0.8c0.3-0.3,0.5-0.6,0.7-0.9
			c0.2-0.3,0.4-0.6,0.6-0.9c0.2-0.3,0.3-0.6,0.4-1c0.3-0.7,0.5-1.3,0.7-1.9c0.1-0.2,0.1-0.3,0.2-0.4c-1.3,0.3-2.4,0.4-3.5,0.5
			c-1.5,0.1-2.7-0.1-3.6-0.4c-0.4-0.1-0.7-0.3-0.9-0.4c-0.2-0.1-0.3-0.2-0.3-0.2s0.1,0.1,0.3,0.2c0.2,0.1,0.5,0.2,0.9,0.3
			c0.6,0.2,1.5,0.2,2.5,0.2c0,0-0.1-0.2-0.1-0.3c0-0.1-0.1-0.2-0.2-0.4c-0.1-0.1-0.1-0.3-0.2-0.5c-0.1-0.2-0.2-0.3-0.3-0.5
			c-0.1-0.2-0.3-0.3-0.5-0.5c-0.2-0.2-0.4-0.3-0.6-0.5c-0.2-0.2-0.4-0.3-0.6-0.4c-0.2-0.1-0.4-0.3-0.7-0.4c-0.2-0.1-0.5-0.2-0.7-0.3
			c-0.4-0.2-0.9-0.4-1.2-0.6c-0.7-0.3-1.1-0.5-1.2-0.5c0.1,0,0.5,0.2,1.2,0.5c0.4,0.1,0.8,0.3,1.2,0.5c0.2,0.1,0.5,0.2,0.7,0.3
			c0.2,0.1,0.5,0.2,0.7,0.4c0.2,0.1,0.5,0.3,0.7,0.4c0.2,0.1,0.4,0.3,0.6,0.5c0.2,0.2,0.4,0.3,0.5,0.5c0.2,0.2,0.3,0.4,0.4,0.5
			c0.1,0.2,0.2,0.3,0.3,0.5c0.1,0.1,0.1,0.3,0.2,0.4c0.1,0.2,0.1,0.3,0.1,0.3l-0.2,0.1c0.3,0,0.6-0.1,0.9-0.1
			c1.4-0.2,3.1-0.6,4.8-1.3c0.8-0.3,1.7-0.7,2.6-1.1c0.9-0.4,1.7-0.8,2.5-1.3c0.3-0.2,0.7-0.4,1-0.7c-0.3-0.1-0.6-0.2-0.9-0.3
			c-0.3-0.1-0.6-0.2-1-0.4c-0.3-0.2-0.7-0.4-1-0.6c-0.2-0.1-0.3-0.3-0.5-0.4c-0.2-0.2-0.3-0.3-0.5-0.5l-0.1-0.1c0,0,0,0-0.1-0.1
			l-0.1-0.1l-0.2-0.2c-0.1-0.2-0.2-0.4-0.4-0.6c-0.2-0.4-0.4-0.8-0.6-1.1c-0.2-0.4-0.3-0.8-0.5-1.1c-0.2-0.4-0.3-0.7-0.6-1
			c-0.1-0.1-0.2-0.3-0.3-0.4c-0.1-0.1-0.2-0.2-0.4-0.3c-0.1-0.1-0.2-0.2-0.4-0.2c-0.1-0.1-0.3-0.1-0.4-0.2c-0.2-0.1-0.5-0.1-0.6-0.2
			c-0.4-0.1-0.6-0.1-0.6-0.1s0.2,0,0.6,0.1c0.2,0,0.4,0.1,0.7,0.1c0.1,0,0.3,0.1,0.4,0.1c0.1,0.1,0.3,0.1,0.4,0.2
			c0.1,0.1,0.3,0.2,0.4,0.3c0.1,0.1,0.3,0.2,0.4,0.4c0.2,0.3,0.5,0.6,0.7,1c0.2,0.3,0.4,0.7,0.6,1.1c0.2,0.4,0.4,0.7,0.6,1.1
			c0.1,0.2,0.2,0.3,0.4,0.5l0.2,0.2l0.1,0.1c0,0,0,0,0,0l0.1,0c0.1,0.1,0.3,0.3,0.4,0.4c0.2,0.1,0.3,0.2,0.5,0.3
			c0.3,0.2,0.6,0.3,1,0.5c0.1,0,0.1,0.1,0.2,0.1c0-0.1,0.1-0.2,0.1-0.4c0.1-0.2,0.2-0.4,0.3-0.6c0.1-0.2,0.3-0.4,0.4-0.7
			c0.2-0.2,0.3-0.5,0.5-0.7c0.1-0.1,0.2-0.3,0.2-0.4c0-0.1,0.1-0.1,0.1-0.2c0-0.1,0.1-0.1,0.1-0.2c0-0.1,0.1-0.1,0.1-0.2
			c0,0,0,0,0,0v0l0,0l0-0.1l0-0.1c0-0.2,0.1-0.3,0.1-0.5c0-0.3,0-0.7,0-1.1c0-0.4-0.1-0.7-0.2-1.1c-0.1-0.3-0.2-0.7-0.3-1
			c-0.1-0.3-0.2-0.6-0.4-0.9c-0.1-0.3-0.3-0.5-0.4-0.8c-0.3-0.5-0.6-0.8-0.8-1.1c-0.1-0.1-0.2-0.2-0.2-0.3c0,0-0.1-0.1-0.1-0.1
			c0,0,0,0,0.1,0.1c0.1,0.1,0.2,0.1,0.3,0.3c0.2,0.2,0.5,0.6,0.9,1c0.2,0.2,0.3,0.5,0.5,0.8c0.2,0.3,0.3,0.6,0.5,0.9
			c0.1,0.3,0.3,0.7,0.4,1c0.1,0.4,0.2,0.7,0.3,1.1c0.1,0.4,0.1,0.8,0.1,1.2c0,0.2,0,0.4,0,0.6l0,0.1l0,0.1l0,0c0,0,0,0,0,0.1
			c0,0.1-0.1,0.2-0.1,0.3c0,0.1,0,0.2-0.1,0.3c0,0.1-0.1,0.2-0.1,0.3c-0.1,0.2-0.1,0.3-0.2,0.5c-0.1,0.3-0.3,0.6-0.4,0.8
			c-0.1,0.2-0.2,0.5-0.3,0.6c-0.1,0.2-0.1,0.3-0.2,0.5c-0.1,0.3-0.1,0.4-0.1,0.5c0.5,0.1,1,0.3,1.3,0.3c0.1,0,0.1,0,0.2,0.1
			c0.1-0.1,0.3-0.2,0.4-0.3c0.8-0.5,1.7-1,2.5-1.5c0.8-0.5,1.7-0.9,2.5-1.2c0.1-0.1,0.3-0.1,0.4-0.2c0-0.1,0.1-0.2,0.1-0.4
			c0-0.1,0.1-0.3,0.1-0.4c0.1-0.3,0.1-0.6,0.1-1c0-0.3,0-0.7,0-1c0-0.4,0-0.7-0.1-1.1l-0.1-0.5c0-0.2-0.1-0.4-0.1-0.5
			c-0.1-0.4-0.2-0.7-0.2-1c-0.1-0.3-0.2-0.7-0.3-0.9c-0.1-0.3-0.2-0.6-0.3-0.8c-0.1-0.3-0.2-0.5-0.3-0.7c-0.1-0.2-0.2-0.4-0.3-0.5
			c-0.1-0.2-0.2-0.4-0.2-0.4c0,0,0.1,0.2,0.3,0.4c0.1,0.1,0.2,0.3,0.3,0.5c0.1,0.2,0.2,0.4,0.4,0.7c0.1,0.2,0.3,0.5,0.4,0.8
			c0.1,0.3,0.3,0.6,0.4,0.9c0.1,0.3,0.2,0.7,0.3,1c0,0.2,0.1,0.4,0.1,0.5l0.1,0.6c0.1,0.4,0.1,0.7,0.1,1.1c0,0.4,0,0.7,0,1.1
			c0,0.4,0,0.7,0,1c0,0.2,0,0.3,0,0.4c0.4-0.1,0.8-0.2,1.2-0.3c0.4-0.1,0.8-0.1,1.2-0.1c0.4,0,0.8,0,1.1,0c0.3,0,0.7,0.1,1,0.1
			c0.1,0,0.3,0.1,0.5,0.1c0.1,0,0.3,0.1,0.4,0.1c0.1,0,0.3,0.1,0.4,0.1c0.1,0,0.1,0,0.1,0c0.2-1,0.3-1.8,0.4-2.2
			c0.2-0.7,1.3-2.8,2.7-5.2c-1.1-0.1-2.1,0-3.1-0.1c-0.3,0.5-0.9,0.9-1.4,1.2c-0.7,0.5-1.4,1.1-2.1,1.7c-0.1,0.2-0.4-0.1-0.3-0.2
			c0.5-0.7,1.1-1.3,1.8-1.9c0.3-0.3,0.5-0.6,0.8-0.9c-1.2-0.1-2.4-0.3-3.7-0.8c-0.1,0,0-0.2,0.1-0.1c1.5,0.4,3,0.6,4.5,0.4
			c0,0,0,0,0,0c0,0,0.1,0,0.1,0c0.2,0,0.4,0,0.6-0.1c1.1-0.2,2.1-0.4,3.2-0.2c0.6-1,1.2-2,1.8-3c-0.1-0.2-0.2-0.5-0.3-0.6
			c-0.2-0.6-0.4-1.3-0.5-1.9c-0.9,0.3-1.8-0.1-2.5-0.7c-0.1-0.1,0-0.2,0.1-0.1c0.6,0.5,1.5,0.8,2.3,0.4c-0.2-0.6-0.4-1.2-0.8-1.7
			c-0.3-0.3,0.2-0.8,0.5-0.5c1.2,1.3,1,3.2,1.6,4.7c2-3.3,3.9-6.3,4.3-6.8c0.2-0.2,0.2-0.5,0.1-0.7c-0.1,0-0.1,0-0.2,0
			c-0.6,0.1-1.2,0.1-2-0.1c-0.8-0.2-1.5-0.5-2.2-0.9c-0.7-0.4-1.3-0.9-1.9-1.3c-0.6-0.4-1.3-0.8-2-1c-0.2-0.1-0.4-0.1-0.6-0.1
			l-0.1,0l0,0l0,0l0,0c0,0,0,0,0,0c0,0,0,0,0,0l-0.1,0l-0.3,0l-0.3,0c-0.1,0-0.2,0-0.3,0c-0.2,0-0.4,0-0.6,0c-0.6,0-1.3,0.1-2,0.2
			l0,0.1c0,0-0.1,0-0.1,0.1c0,0,0,0-0.1,0c0,0,0,0,0,0c0,0,0,0,0,0c0,0,0,0-0.1,0c-0.1,0.1-0.2,0.1-0.3,0.3
			c-0.1,0.1-0.2,0.4-0.3,0.7c-0.1,0.3-0.2,0.6-0.2,0.9c-0.1,0.3-0.1,0.7-0.2,1.1c-0.1,0.6-0.2,1.3-0.3,2c0.1,0.1,0.2,0.1,0.3,0.2
			c0.2,0.1,0.4,0.2,0.6,0.4c0.2,0.1,0.4,0.3,0.6,0.5c0.2,0.2,0.4,0.4,0.6,0.6c0.2,0.2,0.4,0.5,0.6,0.7c0.2,0.3,0.3,0.5,0.5,0.8
			c0.1,0.3,0.3,0.6,0.4,0.9c0.1,0.3,0.2,0.6,0.2,0.9c0,0.2,0,0.3,0,0.4c0,0.1,0,0.1,0,0.2c0,0.1,0,0.1,0,0.2c0,0.1,0,0.3,0,0.4
			c0,0.1-0.1,0.2-0.1,0.4c0,0.2-0.2,0.4-0.2,0.6c0,0.1-0.1,0.2-0.1,0.2c0,0.1-0.1,0.1-0.1,0.2c-0.1,0.2-0.2,0.3-0.2,0.3
			c0,0,0.1-0.2,0.2-0.4c0-0.1,0.1-0.1,0.1-0.2c0-0.1,0.1-0.2,0.1-0.2c0.1-0.2,0.1-0.4,0.2-0.6c0-0.1,0-0.2,0.1-0.4v-0.6
			c0-0.1,0-0.1,0-0.2c0-0.1,0-0.3-0.1-0.4c-0.1-0.3-0.2-0.6-0.3-0.8c-0.1-0.3-0.3-0.5-0.4-0.8c-0.2-0.2-0.3-0.5-0.5-0.7
			c-0.2-0.2-0.4-0.4-0.6-0.6c-0.2-0.2-0.4-0.4-0.6-0.5c-0.2-0.1-0.4-0.3-0.6-0.4c-0.2-0.1-0.4-0.2-0.5-0.3c0,0,0,0,0,0
			c-0.1,0.3-0.1,0.6-0.2,0.9c-0.1,0.4-0.2,0.8-0.4,1.2c-0.1,0.2-0.2,0.4-0.3,0.6c-0.1,0.2-0.2,0.3-0.3,0.5c-0.1,0.2-0.2,0.3-0.3,0.4
			c-0.1,0.1-0.2,0.3-0.4,0.4c-0.1,0.1-0.2,0.2-0.4,0.3c-0.1,0.1-0.2,0.2-0.4,0.2c-0.2,0.1-0.4,0.2-0.6,0.3c-0.2,0.1-0.3,0.1-0.4,0.1
			c-0.1,0-0.1,0-0.1,0c0,0,0.1,0,0.1-0.1c0.1,0,0.2-0.1,0.4-0.2c0.2-0.1,0.4-0.2,0.6-0.4c0.1-0.1,0.2-0.2,0.3-0.3
			c0.1-0.1,0.2-0.2,0.3-0.3c0.1-0.1,0.2-0.2,0.3-0.4c0.1-0.1,0.2-0.3,0.3-0.4c0.1-0.2,0.2-0.3,0.2-0.5c0.1-0.2,0.1-0.4,0.2-0.5
			c0.1-0.4,0.2-0.8,0.2-1.2c0-0.4,0.1-0.7,0.1-1.1c0,0-0.1,0-0.1,0l0.1-0.1c0.1-1.7,0-3.4,0.2-4.8c0-0.1,0-0.2,0.1-0.2
			c-0.4,0.1-0.7,0.3-1.1,0.4c-0.8,0.3-1.7,0.7-2.5,1.1c0,0,0,0-0.1,0c-0.3,0.3-0.7,0.8-1.1,1.3c-0.4,0.5-0.8,1.2-1.4,1.8
			c0,0.1,0,0.2,0,0.3c0,0.1,0,0.3,0,0.5c0,0.2,0,0.4,0,0.6c0,0.2,0,0.5,0.1,0.8c0,0.3,0.1,0.6,0.1,0.8c0.1,0.6,0.2,1.2,0.3,1.9
			c0,0.3,0.1,0.7,0.1,1l0,0.2l0,0.2c0,0.2,0,0.3-0.1,0.5c0,0.2-0.1,0.3-0.1,0.5c0,0.1-0.1,0.3-0.1,0.4c0,0.1,0,0.1-0.1,0.2
			c0,0.1-0.1,0.1-0.1,0.2c-0.1,0.1-0.1,0.2-0.2,0.3c-0.1,0.2-0.3,0.4-0.4,0.6c-0.1,0.2-0.2,0.3-0.3,0.4c-0.2,0.2-0.3,0.3-0.3,0.3
			s0.1-0.1,0.3-0.4c0.1-0.1,0.2-0.2,0.3-0.4c0.1-0.2,0.2-0.4,0.3-0.6c0-0.1,0.1-0.2,0.1-0.3c0-0.1,0-0.1,0.1-0.2c0-0.1,0-0.1,0-0.2
			c0-0.1,0.1-0.3,0.1-0.4c0-0.1,0-0.3,0-0.4c0-0.1,0-0.3,0-0.4l0-0.2l0-0.2c0-0.3-0.1-0.6-0.1-0.9c-0.1-0.3-0.1-0.6-0.2-0.9
			c-0.1-0.3-0.2-0.6-0.2-0.9c-0.1-0.3-0.1-0.6-0.2-0.9c-0.1-0.3-0.1-0.5-0.1-0.8c0-0.2,0-0.4-0.1-0.5c-0.3,0.3-0.6,0.5-1,0.7
			c-0.3,0.1-0.6,0.3-0.8,0.3c-0.3,0.1-0.6,0.2-0.8,0.3c-1.9,0.5-3.8,0.8-5.4,1l0.3,0.1c0,0,0,0,0,0.1c0,0.1-0.1,0.2-0.1,0.3
			c-0.1,0.3-0.3,0.7-0.6,1.1c-0.6,0.9-1.4,2-2.3,3c-0.5,0.5-1,1-1.5,1.4c-0.3,0.2-0.5,0.4-0.8,0.6c-0.2,0.2-0.5,0.3-0.8,0.4
			c-0.2,0.1-0.5,0.1-0.7,0.1c-0.1,0-0.2,0-0.3,0c-0.1,0-0.2-0.1-0.2-0.1c-0.1,0-0.1-0.1-0.2-0.1c0,0-0.1-0.1-0.1-0.1
			c0,0,0-0.1-0.1-0.1c0,0,0,0,0.1,0.1c0,0,0.1,0.1,0.1,0.1c0,0,0.1,0.1,0.2,0.1c0.1,0,0.1,0.1,0.2,0.1c0.1,0,0.2,0,0.3,0
			c0.2,0,0.4-0.1,0.7-0.1c0.2-0.1,0.5-0.2,0.7-0.4c0.2-0.2,0.5-0.4,0.7-0.6c0.5-0.4,1-0.9,1.4-1.4c0.9-1,1.7-2.2,2.2-3.1
			c0.3-0.4,0.5-0.8,0.6-1.1c0.1-0.1,0.1-0.2,0.1-0.3c0-0.1,0-0.1,0-0.1c-0.3,0-0.7,0.1-1,0.1c-0.4,0-0.8,0-1.2,0c-0.4,0-0.7,0-0.9,0
			c-0.3,0-0.5,0-0.6,0c-0.1,0-0.2,0-0.2,0s0.1,0,0.2,0c0.1,0,0.3,0,0.6,0c0.3,0,0.6,0,0.9,0c0.4,0,0.8-0.1,1.2-0.1
			c1.7-0.2,4-0.6,6.2-1.4c0.3-0.1,0.5-0.2,0.8-0.3c0.3-0.1,0.5-0.2,0.7-0.3c0.5-0.3,0.9-0.6,1.2-1c0,0,0-0.1,0.1-0.1
			c0-0.1,0-0.2,0-0.2l0.1,0c0.6-0.7,1.1-1.5,1.5-2.1c0.1-0.1,0.1-0.2,0.2-0.2c-1.1,0.4-2.1,0.7-3.1,0.8l0,0.1c0,0,0,0-0.1-0.1
			c-0.7,0.1-1.3,0-1.9-0.1c-0.6-0.1-1.1-0.4-1.4-0.6c-0.2-0.1-0.3-0.3-0.4-0.4c-0.1-0.1-0.2-0.2-0.3-0.3c-0.1-0.2-0.2-0.3-0.2-0.3
			c0,0,0.1,0.1,0.2,0.3c0.1,0.1,0.2,0.2,0.3,0.3c0.1,0.1,0.3,0.2,0.4,0.3c0.3,0.2,0.8,0.4,1.4,0.4c0.4,0,0.9,0,1.4-0.1
			c-0.1-0.1-0.2-0.3-0.3-0.4c-0.1-0.2-0.2-0.4-0.3-0.7c-0.2-0.5-0.4-1.1-0.7-1.6c-0.1-0.3-0.3-0.5-0.6-0.7c-0.2-0.2-0.5-0.4-0.8-0.6
			c-0.3-0.2-0.6-0.3-0.9-0.5c-0.3-0.1-0.6-0.3-0.9-0.4c-0.6-0.2-1.2-0.4-1.7-0.5c-1-0.3-1.6-0.5-1.7-0.5c0.1,0,0.7,0.2,1.7,0.4
			c0.5,0.1,1.1,0.2,1.8,0.4c0.3,0.1,0.7,0.2,1,0.3c0.3,0.1,0.7,0.2,1,0.4c0.3,0.2,0.6,0.4,0.9,0.6c0.1,0.1,0.1,0.1,0.2,0.2l0.1,0.1
			l0,0c0,0,0,0,0.1,0.1c0.1,0.1,0.2,0.3,0.4,0.4c0.4,0.6,0.6,1.2,0.9,1.6c0.1,0.2,0.2,0.4,0.3,0.6c0.1,0.2,0.2,0.3,0.3,0.3
			c0,0,0.1,0.1,0.1,0.1c0,0,0.1,0.1,0.1,0.1c0.1,0,0.1,0.1,0.1,0.1l-0.1,0.1c1.2-0.3,2.5-1,3.9-1.7c0.2-0.2,0.3-0.3,0.4-0.4
			c0.1-0.1,0.2-0.1,0.2-0.1l0.1,0.1c0.5-0.3,1.1-0.6,1.7-1c0.4-0.2,0.9-0.4,1.3-0.7c0.2-0.1,0.5-0.2,0.7-0.3l0.3-0.1L94,112
			c0.7-0.3,1.5-0.5,2.3-0.6c0,0,0,0,0,0c0-0.1,0-0.2,0-0.3c0-0.1,0-0.2,0-0.3c0-0.1,0-0.2,0-0.3c0-0.4,0.1-0.9,0.2-1.4
			c0.1-0.5,0.2-1.1,0.3-1.6c0.1-0.6,0.2-1.2,0.2-1.8c0-0.6-0.2-1.2-0.5-1.8l-0.2-0.4c-0.1-0.1-0.2-0.3-0.3-0.4l0,0c0,0-0.1,0-0.2,0
			c-0.1,0-0.1,0-0.2,0c-0.1,0-0.1,0-0.2,0.1c-0.1,0-0.2,0.1-0.3,0.1c-0.1,0-0.2,0.1-0.3,0.2c-0.2,0.1-0.4,0.3-0.7,0.5
			c-0.5,0.4-0.9,1.1-1.5,1.8c-0.2,0.2-0.3,0.3-0.5,0.5l-0.1,0.1c0,0,0,0-0.1,0.1l-0.1,0.1l-0.3,0.2c-0.2,0.1-0.4,0.3-0.6,0.4
			c-0.2,0.1-0.4,0.2-0.7,0.3c-0.2,0.1-0.5,0.2-0.7,0.2l-0.3,0.1l-0.4,0.1c-0.5,0.1-0.9,0.1-1.4,0.1c-0.2,0-0.4,0-0.7,0
			c-0.2,0-0.4,0-0.6-0.1c-0.2,0-0.4-0.1-0.6-0.1c-0.2,0-0.4-0.1-0.5-0.1c-0.3-0.1-0.6-0.2-0.9-0.3c-0.3-0.1-0.5-0.2-0.7-0.3
			c-0.3-0.2-0.5-0.3-0.6-0.3c0,0,0.2,0.1,0.6,0.2c0.2,0.1,0.4,0.2,0.7,0.2c0.3,0.1,0.6,0.2,0.9,0.2c0.2,0,0.3,0.1,0.5,0.1
			c0.2,0,0.4,0,0.6,0.1c0.2,0,0.4,0,0.6,0c0.2,0,0.4,0,0.6,0c0.4,0,0.9-0.1,1.3-0.2l0.3-0.1l0.3-0.1c0.2-0.1,0.4-0.2,0.6-0.3
			c0.2-0.1,0.4-0.2,0.6-0.3l0.3-0.2c0.1-0.1,0.2-0.1,0.3-0.2l0.1-0.1c0,0-0.1-0.1-0.1-0.1c-0.1-0.1-0.2-0.3-0.4-0.4
			c-0.1-0.2-0.3-0.4-0.4-0.6c-0.1-0.2-0.3-0.4-0.4-0.6c-0.1-0.2-0.3-0.5-0.5-0.7c-0.1-0.1-0.2-0.2-0.3-0.3c-0.1-0.1-0.2-0.2-0.3-0.3
			c-0.1-0.1-0.2-0.2-0.4-0.3c-0.1-0.1-0.2-0.2-0.4-0.2c-0.5-0.3-1.1-0.6-1.7-0.9c-0.5-0.3-1-0.6-1.4-0.9c-0.2-0.2-0.4-0.3-0.5-0.5
			c-0.1-0.1-0.2-0.3-0.3-0.4c-0.1-0.1-0.1-0.2-0.2-0.3c0-0.1,0-0.1,0-0.1c0,0,0,0,0.1,0.1c0,0.1,0.1,0.2,0.2,0.3
			c0.1,0.1,0.2,0.2,0.3,0.4c0.1,0.1,0.3,0.3,0.5,0.4c0.4,0.3,0.9,0.5,1.5,0.7c0.6,0.2,1.2,0.4,1.8,0.7c0.1,0.1,0.3,0.2,0.5,0.2
			c0.1,0.1,0.3,0.2,0.4,0.3c0.1,0.1,0.3,0.2,0.4,0.3c0.1,0.1,0.2,0.2,0.3,0.3c0.2,0.2,0.4,0.5,0.6,0.7c0.2,0.2,0.3,0.4,0.5,0.6
			c0.1,0.2,0.3,0.3,0.4,0.5c0.1,0.1,0.2,0.2,0.3,0.3c0.1,0.1,0.1,0.1,0.2,0.1c0.1-0.1,0.1-0.1,0.2-0.2c0.5-0.7,0.9-1.4,1.5-1.9
			c0.3-0.3,0.5-0.5,0.8-0.7c0.1-0.1,0.3-0.2,0.4-0.2c0.1-0.1,0.2-0.1,0.3-0.2l-0.8,0.1c0,0,0-0.1,0-0.1c0-0.1,0-0.2,0-0.4
			c0,0,0-0.1,0-0.1c-0.3-0.2-0.5-0.3-0.8-0.5c-0.6-0.4-1.1-0.8-1.5-1.3c-0.1-0.1-0.2-0.3-0.3-0.4c0-0.1-0.1-0.1-0.1-0.2l-0.1-0.2
			c-0.1-0.1-0.1-0.3-0.2-0.4c-0.1-0.1-0.1-0.3-0.2-0.4c-0.1-0.3-0.2-0.6-0.3-0.8c-0.1-0.3-0.1-0.5-0.2-0.8c-0.1-0.5-0.2-1-0.3-1.4
			c-0.1-0.4-0.1-0.8-0.2-1.1c-0.1-0.6-0.2-0.9-0.2-0.9s0.1,0.3,0.2,0.9c0.1,0.3,0.1,0.7,0.2,1.1c0.1,0.4,0.2,0.9,0.3,1.4
			c0.1,0.2,0.1,0.5,0.2,0.8c0.1,0.3,0.2,0.5,0.3,0.8c0.1,0.1,0.1,0.3,0.2,0.4c0.1,0.1,0.1,0.3,0.2,0.4l0.1,0.2
			c0,0.1,0.1,0.1,0.1,0.2c0.1,0.1,0.2,0.2,0.3,0.4c0.4,0.5,0.9,0.9,1.5,1.2c0.2,0.1,0.4,0.2,0.6,0.4c0,0,0-0.1,0-0.1
			c0.1-0.3,0.2-0.6,0.3-0.9c0.3-0.6,0.7-1.2,1.1-1.8c0.2-0.3,0.4-0.6,0.5-1c0.1-0.2,0.1-0.4,0.2-0.6c0.1-0.2,0.1-0.4,0.1-0.6
			c0.1-0.4,0.1-0.8,0.1-1.2c0-0.4,0-0.8-0.1-1.1c-0.1-0.7-0.3-1.4-0.5-2c-0.2-0.6-0.4-1-0.5-1.4c-0.1-0.3-0.2-0.5-0.2-0.5
			c0,0,0.1,0.2,0.2,0.5c0.2,0.3,0.4,0.8,0.6,1.3c0.2,0.6,0.5,1.2,0.7,2c0.1,0.4,0.1,0.8,0.2,1.2c0,0.4,0,0.8,0,1.2
			c0,0.4-0.1,0.9-0.3,1.2c-0.1,0.4-0.3,0.8-0.5,1.1c-0.4,0.7-0.8,1.3-1,1.8c-0.1,0.3-0.2,0.5-0.2,0.7c0,0.2,0,0.4,0,0.5
			c0.1,0.1,0.2,0.1,0.3,0.2c0.1,0.1,0.1,0.1,0.2,0.2c0,0,0,0,0,0v0c0.2,0.2,0.4,0.3,0.6,0.5c0.1,0.1,0.2,0.3,0.4,0.4
			c0.1,0.2,0.2,0.3,0.3,0.5c0.4,0.6,0.6,1.3,0.7,2c0.1,0.7,0,1.3-0.1,1.9c-0.1,0.4-0.1,0.8-0.2,1.2c0,0,0,0,0.1,0
			c0.2-0.2,0.5-0.3,0.8-0.4c0.6-0.3,1.3-0.5,2.1-0.8c0.4-0.1,0.7-0.3,1.1-0.5c0.3-0.2,0.6-0.5,0.9-0.8c0.3-0.3,0.5-0.7,0.7-1
			c0.1-0.2,0.2-0.4,0.3-0.5c0.1-0.2,0.2-0.4,0.2-0.6c0.1-0.4,0.2-0.7,0.3-1.1c0-0.2,0.1-0.4,0.1-0.5c0-0.2,0-0.3,0-0.5
			c0-0.3,0-0.6,0-0.9c0-0.1,0-0.2,0-0.4c0-0.1,0-0.2-0.1-0.3c0-0.2-0.1-0.3-0.1-0.4c0-0.1,0-0.1,0-0.1c0,0,0,0.1,0.1,0.1
			c0,0.1,0.1,0.2,0.2,0.4c0,0.1,0.1,0.2,0.1,0.3c0,0.1,0,0.2,0.1,0.4c0,0.3,0.1,0.6,0.1,0.9c0,0.2,0,0.3,0,0.5c0,0.2,0,0.4,0,0.5
			c0,0.4-0.1,0.8-0.2,1.2c0,0.2-0.1,0.4-0.2,0.6c-0.1,0.2-0.1,0.4-0.2,0.6c-0.2,0.4-0.4,0.8-0.7,1.1c-0.3,0.4-0.6,0.7-1,0.9
			c-0.4,0.2-0.8,0.4-1.1,0.6c-0.7,0.3-1.4,0.6-2,0.9c-0.3,0.1-0.5,0.3-0.7,0.4c-0.1,0.1-0.2,0.1-0.2,0.2c-0.1,0.1-0.1,0.1-0.2,0.2
			c0,0.1,0,0.1-0.1,0.1c0,0,0,0.1-0.1,0.1c0,0.1,0,0.1,0,0.1l-0.2-0.1c0,0.2,0,0.3,0,0.5c0,0.1,0,0.2,0,0.3c0,0.1,0,0.2,0,0.3
			c0,0.1,0,0.1,0,0.2c0.2,0,0.4,0,0.6,0c0.3,0,0.5,0,0.7,0l0.3,0l0.2,0l0.2,0c0.3,0,0.5,0.1,0.8,0.1c1,0.2,1.9,0.6,2.7,0.9
			c0.8,0.4,1.5,0.8,2,1c0.6,0.3,1,0.4,1.4,0.4c0.1,0,0.2,0,0.3,0c0.1,0,0.2,0,0.3,0c0.2,0,0.3,0,0.4-0.1c0.1,0,0.1,0,0.2,0
			c0,0,0.1,0,0.1,0c0,0,0,0,0.1,0c0.2-0.1,0.3-0.1,0.4-0.1c0.2-0.1,0.3-0.1,0.3-0.1l0.1,0.2c1.7-0.8,3.4-2.4,4.8-4.1
			c0.3,3.2,0.6,6.7,0.9,10C111.7,122.2,109.4,125.1,107.4,127.6z"/>
		<path class="st4" d="M173.2,143.9c-0.1,0.2-0.1,0.3-0.1,0.3c1,0.1,1.9,0,2.5-0.2c0.4-0.1,0.7-0.2,0.9-0.3c0.2-0.1,0.3-0.2,0.3-0.2
			s-0.1,0.1-0.3,0.2c-0.2,0.1-0.5,0.3-0.9,0.4c-0.8,0.3-2.1,0.5-3.6,0.4c-1.1,0-2.3-0.2-3.5-0.5c0.1,0.1,0.2,0.3,0.2,0.4
			c0.3,0.6,0.5,1.2,0.7,1.9c0.1,0.3,0.3,0.7,0.4,1c0.2,0.3,0.4,0.6,0.6,0.9c0.2,0.3,0.5,0.6,0.7,0.9c0.3,0.3,0.5,0.5,0.8,0.8
			c0.3,0.2,0.6,0.4,0.9,0.6c0.3,0.2,0.6,0.3,0.8,0.4c0.3,0.1,0.5,0.2,0.8,0.2c0.2,0.1,0.4,0,0.6,0.1c0.2,0,0.3,0,0.4,0
			c0.1,0,0.1,0,0.1,0s0,0-0.1,0c-0.1,0-0.2,0-0.4,0c-0.2,0-0.4,0-0.6,0c-0.2,0-0.5-0.1-0.8-0.1c-0.3-0.1-0.6-0.2-0.9-0.3
			c-0.3-0.1-0.6-0.3-0.9-0.5c-0.3-0.2-0.6-0.5-0.9-0.7c-0.3-0.3-0.6-0.6-0.8-0.9c-0.3-0.3-0.5-0.6-0.7-0.9c-0.2-0.3-0.4-0.7-0.6-1
			c-0.3-0.7-0.6-1.3-0.9-1.8c-0.1-0.2-0.3-0.4-0.4-0.6c-0.1-0.2-0.3-0.3-0.4-0.4c0,0-0.1-0.1-0.1-0.1c0,0-0.1-0.1-0.1-0.1
			c0,0,0,0-0.1,0c-0.9-0.2-1.8-0.5-2.7-0.8c-0.9-0.3-1.9-0.7-2.8-1.1c-0.5-0.2-0.9-0.5-1.3-0.7c-0.4-0.2-0.9-0.4-1.3-0.7
			c-0.8-0.4-1.7-0.8-2.5-1.2c-0.6-0.3-1.2-0.5-1.8-0.6c0,0.1,0.1,0.2,0.1,0.4c0.1,0.3,0.2,0.7,0.3,1.1c0.1,0.4,0.2,0.8,0.3,1.3
			c0.1,0.4,0.1,0.9,0.1,1.4c0,0.2,0,0.5,0,0.7c0,0.2,0,0.4,0.1,0.7c0,0.5,0.1,0.9,0.2,1.4c0.1,0.2,0.1,0.4,0.2,0.7
			c0.1,0.2,0.1,0.4,0.2,0.6c0.2,0.4,0.3,0.8,0.6,1.1c0.1,0.1,0.1,0.2,0.2,0.2c0.1,0.1,0.1,0.1,0.2,0.2c0.1,0.1,0.1,0.1,0.2,0.2
			c0.1,0.1,0.1,0.1,0.2,0.2c0.1,0.1,0.1,0.1,0.2,0.2c0.1,0.1,0.1,0.1,0.2,0.1c0.1,0,0.1,0.1,0.2,0.1c0.1,0,0.1,0.1,0.2,0.1
			c0.2,0.2,0.5,0.2,0.7,0.3c0.2,0.1,0.4,0.1,0.5,0.1c0.1,0,0.1,0,0.2,0c0,0-0.1,0-0.2,0c-0.1,0-0.3,0-0.5-0.1
			c-0.2-0.1-0.4-0.1-0.7-0.2c-0.1,0-0.1-0.1-0.2-0.1c-0.1,0-0.1-0.1-0.2-0.1c-0.1,0-0.1-0.1-0.2-0.1c-0.1-0.1-0.1-0.1-0.2-0.2
			c-0.1-0.1-0.1-0.1-0.2-0.2c-0.1-0.1-0.1-0.1-0.2-0.2c-0.1-0.1-0.1-0.1-0.2-0.2c-0.1-0.1-0.1-0.2-0.2-0.2c-0.2-0.3-0.5-0.7-0.7-1.1
			c-0.1-0.2-0.2-0.4-0.3-0.6c-0.1-0.2-0.2-0.4-0.2-0.7c-0.1-0.5-0.3-0.9-0.3-1.4c0-0.2-0.1-0.5-0.1-0.7c0-0.2,0-0.5-0.1-0.7
			c0-0.4-0.1-0.9-0.2-1.3c-0.1-0.4-0.2-0.8-0.3-1.2c-0.1-0.4-0.2-0.7-0.3-1.1c-0.1-0.3-0.2-0.6-0.2-0.8c-0.1,0-0.1,0-0.2,0
			c-0.2,0-0.4-0.1-0.5-0.1c-0.4-0.1-0.7-0.1-1-0.1c-0.2,0-0.3,0-0.5,0c-0.1,0-0.3,0-0.4,0c-0.3,0-0.5,0.1-0.8,0.1
			c-0.2,0-0.5,0.1-0.7,0.1c-0.1,0-0.2,0.1-0.3,0.1c-0.1,0-0.2,0.1-0.2,0.1c-0.1,0-0.1,0-0.2,0.1c0,0-0.1,0-0.1,0c0,0-0.1,0-0.1,0.1
			c-0.2,0.1-0.3,0.1-0.4,0.2c-0.1,0.1-0.2,0.1-0.3,0.1c0.3,2.4,0.6,5.3,0.7,7.9c0.7,0.7,1.3,1.4,2.1,2c1.2,0.9,2.5,1.5,3.9,2
			c2.8,1,6,1.3,9,0.9c0.1,0,0.1,0.1,0,0.1c-2.1,0.6-4.2,0.7-6.3,0.4c0.3,1,1.1,2,1.8,2.9c0.6,0.7,1.3,1.7,2.1,2.1
			c0.1,0,0,0.2-0.1,0.2c-0.9-0.3-1.5-1.1-2.1-1.7c-1-1-1.7-2.1-2.5-3.2c-0.1-0.1-0.1-0.2-0.1-0.3c-0.7-0.1-1.4-0.3-2-0.5
			c-0.6-0.2-1.2-0.4-1.8-0.7c0.3,0.6,0.5,1.2,0.7,1.8c0.3,0.9,0.7,1.8,1,2.7c0.3,0.8,0.3,1.7,0.5,2.5c0,0.1-0.1,0.1-0.1,0
			c-0.2-0.4-0.3-0.8-0.4-1.3c-0.2-1-0.7-1.9-1.1-2.8c-0.6-1.3-1.1-2.7-2.2-3.7c0,0-0.1-0.1-0.1-0.1c-0.8-0.4-1.6-1-2.3-1.5
			c0.1,2.5,0,4.6-0.4,5.3c-0.1,0.3-0.3,0.6-0.4,0.9c0.1,0,0.2,0,0.3,0c0.3,0,0.6,0.1,0.9,0.2c0.6,0.2,1.4,0.5,2.1,0.9
			c0.7,0.5,1.5,1.1,2.2,1.8c1.4,1.4,2.5,3.3,3.6,5.3c0.4,0.7,0.8,1.4,1.2,2.1c0,0,0.1,0,0.1,0c0.2-0.1,0.5-0.2,0.8-0.5
			c0.3-0.2,0.7-0.5,1.1-0.7c0.3-0.2,0.7-0.4,1.1-0.5c0-0.1,0-0.2,0-0.2c0-0.2,0-0.4,0.1-0.7c0-0.2,0.1-0.5,0.2-0.8
			c0.1-0.3,0.2-0.5,0.3-0.8c0.1-0.3,0.3-0.6,0.5-0.8c0.2-0.3,0.4-0.5,0.6-0.8c0.2-0.2,0.4-0.5,0.7-0.7c0.2-0.2,0.5-0.4,0.7-0.6
			c0.5-0.4,0.9-0.7,1.3-0.9c0.2-0.1,0.4-0.2,0.5-0.3c0.2-0.1,0.3-0.2,0.4-0.2c0.2-0.1,0.3-0.2,0.4-0.2c0,0-0.2,0.1-0.3,0.2
			c-0.1,0.1-0.2,0.2-0.4,0.3c-0.2,0.1-0.3,0.2-0.5,0.4c-0.4,0.3-0.8,0.6-1.2,1c-0.2,0.2-0.4,0.4-0.6,0.6c-0.2,0.2-0.4,0.5-0.6,0.7
			c-0.2,0.2-0.3,0.5-0.5,0.8c-0.1,0.3-0.2,0.5-0.3,0.8c-0.1,0.3-0.2,0.5-0.2,0.8c-0.1,0.2-0.1,0.5-0.1,0.7c0,0.2,0,0.4,0,0.6v0
			c0.4-0.1,0.8-0.1,1.2-0.1c0.6,0,1.2,0.1,1.9,0.2c0.6,0.1,1.2,0.2,1.8,0.3c0.2,0,0.3,0,0.5,0.1c0.1-0.1,0.2-0.2,0.3-0.3
			c0.1-0.2,0.3-0.3,0.4-0.5c0.1-0.2,0.3-0.4,0.5-0.7c0.1-0.1,0.2-0.2,0.3-0.3c0.1-0.1,0.2-0.2,0.3-0.3c0.2-0.2,0.5-0.4,0.8-0.6
			c0.1-0.1,0.3-0.1,0.5-0.2c0.2-0.1,0.3-0.1,0.5-0.2c0.6-0.2,1.3-0.4,1.9-0.5c0.6-0.1,1.2-0.3,1.6-0.5c0.1-0.1,0.2-0.1,0.3-0.2
			c0.1-0.1,0.2-0.1,0.3-0.2c0.2-0.1,0.3-0.2,0.4-0.3c0.2-0.2,0.3-0.3,0.3-0.3c0,0-0.1,0.1-0.3,0.3c-0.1,0.1-0.3,0.2-0.4,0.3
			c-0.1,0.1-0.2,0.1-0.3,0.2c-0.1,0.1-0.2,0.1-0.3,0.2c-0.4,0.2-1,0.4-1.6,0.6c-0.6,0.2-1.2,0.3-1.9,0.6c-0.2,0.1-0.3,0.1-0.4,0.2
			c-0.1,0.1-0.3,0.1-0.4,0.2c-0.1,0.1-0.3,0.2-0.4,0.3c-0.1,0.1-0.3,0.2-0.3,0.3c-0.1,0.1-0.2,0.2-0.3,0.3c-0.1,0.1-0.2,0.2-0.3,0.3
			c-0.2,0.2-0.3,0.5-0.4,0.7c-0.1,0.2-0.3,0.4-0.4,0.6c-0.1,0.1-0.1,0.1-0.2,0.2c0.3,0,0.7,0.1,1,0.1c0.6,0,1.2,0.1,1.8,0
			c0.3,0,0.6,0,0.8-0.1c0.3,0,0.5-0.1,0.8-0.1c0.5-0.1,1-0.3,1.4-0.5c0.4-0.2,0.8-0.4,1.1-0.6c0.1-0.1,0.2-0.1,0.2-0.1
			c0.1-0.1,0.1-0.1,0.2-0.2c0.1-0.1,0.2-0.2,0.4-0.3c0.2-0.2,0.4-0.3,0.5-0.4c0.1-0.1,0.1-0.1,0.2-0.2c0,0-0.1,0.1-0.2,0.2
			c-0.1,0.1-0.2,0.3-0.4,0.5c-0.1,0.1-0.2,0.2-0.3,0.3c-0.1,0.1-0.1,0.1-0.2,0.2c-0.1,0.1-0.1,0.1-0.2,0.2c-0.3,0.2-0.7,0.5-1.1,0.7
			c-0.4,0.2-0.9,0.4-1.4,0.5c-0.3,0.1-0.5,0.1-0.8,0.2c-0.3,0.1-0.6,0.1-0.9,0.1c-0.6,0.1-1.2,0.1-1.8,0.1c-0.5,0-0.9,0-1.4-0.1
			c-0.1,0.1-0.1,0.1-0.1,0.1l-0.1-0.1c-0.1,0-0.2,0-0.2,0c-0.6-0.1-1.2-0.1-1.9-0.2c-0.6-0.1-1.2-0.1-1.8-0.1
			c-0.4,0-0.8,0.1-1.2,0.2c0,0.1,0,0.1,0,0.1l-0.6,0c-0.4,0.1-0.7,0.3-1.1,0.5c-0.4,0.2-0.7,0.5-1,0.8c-0.3,0.2-0.6,0.4-0.9,0.6
			c0,0,0,0,0,0c0,0,0,0.1,0.1,0.1c0.6,1,1.2,2,1.8,2.9c0.1,0.1,0.2,0.2,0.3,0.3l0.1,0.2l0.1,0.1l0,0l0,0l0.3,0.3
			c0.1,0.1,0.2,0.2,0.3,0.3c0.4,0.3,0.8,0.7,1.3,0.9c1,0.5,2,0.8,3.1,0.9c0.3,0,0.6,0.1,0.8,0.1c0,0,0.1-0.1,0.1-0.2
			c0.2-0.3,0.5-0.7,0.8-1.2c0.2-0.3,0.4-0.5,0.6-0.8c0.2-0.3,0.5-0.6,0.8-0.8c0.1-0.1,0.2-0.1,0.2-0.2l0.1-0.1l0,0l0,0l0,0l0.1,0
			c0.2-0.1,0.3-0.2,0.5-0.3l0.3-0.2l0.3-0.1l0.6-0.3c0.4-0.2,0.8-0.3,1.2-0.4c0.4-0.1,0.8-0.2,1.2-0.3c0.8-0.2,1.5-0.4,2.1-0.5
			c0.3-0.1,0.6-0.1,0.8-0.2c0.2-0.1,0.5-0.1,0.6-0.2c0.3-0.1,0.5-0.2,0.5-0.2s-0.2,0.1-0.5,0.2c-0.2,0.1-0.4,0.1-0.6,0.2
			c-0.2,0.1-0.5,0.2-0.8,0.3c-0.6,0.2-1.3,0.4-2,0.7c-0.4,0.1-0.7,0.3-1.1,0.4c-0.4,0.2-0.7,0.3-1.1,0.5l-0.5,0.3l-0.3,0.1l-0.2,0.2
			c-0.2,0.1-0.3,0.2-0.5,0.3l-0.1,0l0,0l0,0l0,0l0,0l-0.1,0.1l-0.2,0.2c-0.3,0.3-0.5,0.5-0.7,0.8c-0.2,0.3-0.4,0.5-0.5,0.8
			c-0.2,0.4-0.4,0.7-0.6,1c0.4,0,0.9,0.1,1.3,0.1c1,0.1,2,0.1,2.9,0.3c0.9,0.1,1.7,0.3,2.4,0.6c0.7,0.3,1.2,0.6,1.7,0.9
			c0.2,0.2,0.4,0.3,0.5,0.5c0.1,0.1,0.3,0.3,0.4,0.4c0.2,0.2,0.2,0.3,0.3,0.3c0,0-0.1-0.1-0.3-0.3c-0.1-0.1-0.2-0.2-0.4-0.3
			c-0.1-0.1-0.3-0.3-0.6-0.4c-0.4-0.3-1-0.6-1.7-0.8c-0.7-0.2-1.5-0.3-2.4-0.4c-0.9-0.1-1.8,0-2.9,0c-1,0-2.1,0.1-3.3,0
			c-0.8,0-1.7-0.2-2.5-0.4c0,0,0,0,0,0.1c0.1,0.4,0.3,1,0.5,1.6c0.2,0.7,0.4,1.4,0.6,2.3c0.2,0.8,0.5,1.7,1,2.5
			c0.2,0.4,0.4,0.8,0.7,1.1c0.3,0.4,0.6,0.7,0.9,0.9c0.3,0.3,0.7,0.5,1,0.7c0.3,0.2,0.7,0.3,1,0.4c0.3,0.1,0.6,0.2,0.9,0.2
			c0.3,0.1,0.5,0.1,0.7,0.1c0.4,0,0.6,0,0.6,0s-0.2,0-0.6,0c-0.2,0-0.4,0-0.7-0.1c-0.3,0-0.6-0.1-0.9-0.2c-0.3-0.1-0.7-0.2-1.1-0.4
			c-0.4-0.2-0.7-0.4-1.1-0.6c-0.4-0.3-0.7-0.6-1-0.9c-0.3-0.4-0.6-0.7-0.8-1.1c-0.5-0.8-0.9-1.7-1.2-2.5c-0.3-0.7-0.5-1.4-0.7-2
			c-0.1,0-0.1,0.1-0.2,0.2c-0.1,0.1-0.1,0.1-0.2,0.2c-0.1,0.1-0.1,0.1-0.2,0.2c-0.2,0.1-0.3,0.3-0.5,0.5c-0.1,0.1-0.2,0.2-0.2,0.3
			c-0.1,0.1-0.2,0.2-0.2,0.3c-0.1,0.2-0.3,0.5-0.4,0.7c-0.1,0.3-0.2,0.5-0.3,0.8c-0.1,0.3-0.2,0.6-0.3,0.8c-0.1,0.3-0.1,0.6-0.2,0.8
			c0,0.3-0.1,0.5-0.1,0.8c0,0.3-0.1,0.5-0.1,0.7c0,0.2,0,0.4,0,0.6c0,0.2,0,0.3,0,0.5c0,0.3,0,0.4,0,0.4s0-0.1,0-0.4
			c0-0.1,0-0.3,0-0.5c0-0.2,0-0.4,0-0.6c0-0.2,0-0.5,0-0.7c0-0.3,0.1-0.5,0.1-0.8c0.1-0.3,0.1-0.6,0.2-0.9c0.1-0.3,0.2-0.6,0.2-0.9
			c0.1-0.3,0.2-0.6,0.3-0.8c0.1-0.3,0.3-0.5,0.4-0.8c0.1-0.1,0.2-0.2,0.2-0.4c0.1-0.1,0.1-0.2,0.2-0.3c0.2-0.2,0.3-0.4,0.5-0.6
			c0.1-0.1,0.2-0.2,0.2-0.2c0.1-0.1,0.2-0.1,0.2-0.2c0.1-0.1,0.2-0.2,0.3-0.2c-0.2-0.6-0.4-1.2-0.6-1.5c-0.1-0.4-0.2-0.6-0.2-0.6
			l0.2-0.1c0,0-0.1,0-0.1-0.1c-0.6-0.2-1.2-0.6-1.7-1c-0.1-0.1-0.3-0.2-0.4-0.3l-0.3-0.3l0,0l0,0l0,0l-0.1-0.1l-0.2-0.2
			c-0.1-0.1-0.2-0.2-0.3-0.3c-0.9-0.9-1.6-2-2.2-2.9c-0.7-1-1.3-1.9-1.9-2.9c-0.2-0.3-0.4-0.7-0.7-1c0,0.9,0.1,2.1,0.1,3.3
			c0,0.3,0,0.7,0.1,1c0,0.3,0.1,0.6,0.1,0.9c0.1,0.3,0.1,0.6,0.2,0.9c0.1,0.3,0.2,0.5,0.3,0.7c0,0.1,0.1,0.2,0.1,0.3
			c0.1,0.1,0.1,0.2,0.2,0.3c0.1,0.2,0.2,0.3,0.3,0.4c0.2,0.2,0.3,0.4,0.3,0.4s-0.1-0.1-0.3-0.3c-0.1-0.1-0.2-0.2-0.3-0.4
			c-0.1-0.1-0.1-0.2-0.2-0.3c-0.1-0.1-0.1-0.2-0.2-0.3c-0.1-0.2-0.2-0.5-0.3-0.7c-0.1-0.3-0.2-0.6-0.3-0.9c-0.1-0.3-0.2-0.6-0.2-0.9
			c-0.1-0.3-0.1-0.6-0.2-1c-0.2-1.3-0.3-2.6-0.5-3.6c-0.1-0.5-0.2-0.8-0.2-1.1c0,0,0,0,0,0c-0.7-0.8-1.3-1.6-1.9-2.1
			c-0.6-0.5-1.2-0.9-1.7-1.2c-0.5-0.3-1-0.4-1.4-0.5c-0.2,0-0.4-0.1-0.5-0.1c-0.1,0-0.1,0-0.2,0c0,0-0.1,0-0.1,0c0,0-0.1,0-0.1,0
			c-0.3,0-0.4,0-0.4,0l0-0.7c-0.3,1.2-0.5,2.1-0.9,2.5c0,0,0,0,0,0c0,0.2-0.1,0.4-0.1,0.6c0.1,0.1,0.2,0.1,0.2,0.3
			c0.3,1.2,0.3,2.4,0.5,3.6c0.1,0,0.3,0.1,0.4,0.2c1,1.5,2.7,1.8,3.9,3.1c1.1,1.2,1.4,3,1.6,4.6c0,0.2-0.2,0.3-0.3,0.1
			c-0.6-1.8-1.1-3.8-2.8-4.8c-0.7-0.4-1.4-0.7-2-1.1c0.4,0.9,1,1.7,1.5,2.6c1.2,2.3,1.7,4.8,1.4,7.4c0,0.1-0.3,0.2-0.2,0
			c0.3-3-0.6-5.7-2.3-8.2c-0.8-1.1-1.5-2.1-1.9-3.4c-0.1-0.5-0.3-1-0.4-1.5c-0.1,0.6-0.2,1.3-0.3,1.9c-0.2,1.3-0.3,2.6-0.4,3.9
			c0.1,0.1,0.1,0.2,0.1,0.3c0.2,2.1,0.9,3.8,1.7,5.6c0.7,1.6,0.8,3.1,0.2,4.7c0,0.1-0.1,0.1-0.2,0c-0.1-1,0.2-1.9,0-2.9
			c-0.2-1-0.8-2-1.3-2.9c-0.3-0.6-0.6-1.2-0.8-1.9c0,0.4-0.1,0.8-0.1,1.2c-0.2,1.8-0.5,4-1.8,5.4c0,0-0.1,0-0.1,0
			c0.9-2,1.2-4,1.3-6.2c0.1-2.4,0.3-4.7,0.4-7.1c-0.5,0.7-1.1,1.3-1.5,2.1c-0.7,1.2-1,2.6-1.4,3.9c-0.4,1.1-0.9,2.2-1.6,3.1
			c-0.3,0.4-0.9,1-1.4,1c-0.1,0-0.1-0.1-0.1-0.1c0,0,0,0,0,0c0,0,0-0.1,0.1-0.1c1.9-0.7,2.6-3.7,3-5.4c0.3-1,0.6-2,1.1-3
			c0.6-1,1.4-1.9,2-2.9c0-0.1,0.1-0.1,0.1-0.1c0.2-1.9,0.5-3.9,1-5.8c0.4-1.3,0.6-2.6,0.7-3.8c0.1-2,0-4.2-0.2-6.3
			c-0.1-0.8-0.2-1.6-0.4-2.4c-0.3,0.4-0.6,0.8-0.9,1.2c0,0.1,0,0.1-0.1,0.2c-0.1,0.2-0.3,0.4-0.5,0.5c-0.4,0.5-0.7,1.1-1,1.7
			c0,0,0,0.1,0,0.2c-0.1,1.5-0.2,3-0.4,4.5c-0.1,1.1-0.8,2.1-1.2,3.1c-0.1,0.2-0.4,0.1-0.4-0.2c0.4-1.2,0.9-2.2,1-3.4
			c0-0.7,0.1-1.5,0.1-2.2c-0.2,0.5-0.4,1-0.5,1.5c-0.7,2-1.5,4.8-3.7,5.8c-0.2,0.1-0.4-0.2-0.2-0.3c2.3-1.1,2.6-4.4,3.4-6.6
			c0.4-1.2,1-2.4,1.6-3.6c-0.2,0-0.4,0.1-0.5,0.1c-1.5,0.3-3,1.5-4.1,2.5c-0.1,0.1-0.4,0-0.2-0.2c0.8-1,1.7-1.9,2.8-2.7
			c0.8-0.6,1.8-0.6,2.7-1.1c0.5-0.8,1.2-1.6,1.7-2.4c-0.9-4.3-2.7-9.2-6.1-14.2c-1.5,2.1-2.7,5-5.5,5.2c-0.1,0-0.2-0.2-0.1-0.2
			c1.4-0.6,2.3-1.5,3.2-2.7c-0.5,0.1-1,0-1.6,0c-0.9,0-1.7,0.1-2.5,0.5c-0.2,0.1-0.5-0.2-0.3-0.4c1.1-1,3.2-1.4,4.7-1
			c0.1,0,0.1,0.1,0.2,0.1c0.5-0.7,0.9-1.5,1.4-2.1c-0.4-0.6-0.8-1.1-1.3-1.7c-1.9-2.4-4.2-5.3-6.4-8c0.3-3.4,0.7-6.9,0.9-10.1
			c1.4,1.7,3.1,3.2,4.8,4l0.1-0.2c0,0,0.1,0,0.3,0.1c0.1,0,0.2,0.1,0.4,0.1c0,0,0.1,0,0.1,0c0,0,0,0,0.1,0c0.1,0,0.1,0,0.2,0
			c0.1,0,0.3,0,0.4,0.1c0.1,0,0.2,0,0.3,0c0.1,0,0.2,0,0.3,0c0.4,0,0.8-0.2,1.4-0.4c0.6-0.3,1.2-0.7,2-1c0.8-0.4,1.7-0.8,2.7-0.9
			c0.2,0,0.5-0.1,0.8-0.1l0.2,0l0.2,0l0.3,0c0.2,0,0.4,0,0.7,0c0.2,0,0.4,0,0.6,0c0-0.1,0-0.1,0-0.2c0-0.1,0-0.2,0-0.3
			c0-0.1,0-0.2,0-0.3c0-0.2,0-0.3,0-0.5l-0.2,0.1c0,0,0-0.1,0-0.1c0,0,0-0.1-0.1-0.1c0,0,0,0-0.1-0.1c-0.1-0.1-0.1-0.1-0.2-0.2
			c-0.1-0.1-0.1-0.1-0.2-0.2c-0.2-0.1-0.4-0.3-0.7-0.4c-0.5-0.3-1.2-0.6-2-0.9c-0.4-0.2-0.8-0.4-1.1-0.6c-0.4-0.3-0.7-0.6-1-0.9
			c-0.3-0.4-0.5-0.7-0.7-1.1c-0.1-0.2-0.2-0.4-0.2-0.6c-0.1-0.2-0.1-0.4-0.2-0.6c-0.1-0.4-0.2-0.8-0.2-1.2c0-0.2,0-0.4,0-0.5
			c0-0.2,0-0.3,0-0.5c0-0.3,0-0.6,0.1-0.9c0-0.1,0.1-0.2,0.1-0.4c0-0.1,0.1-0.2,0.1-0.3c0-0.2,0.1-0.3,0.2-0.4c0-0.1,0-0.1,0.1-0.1
			c0,0,0,0.1,0,0.1c0,0.1-0.1,0.2-0.1,0.4c0,0.1,0,0.2-0.1,0.3c0,0.1,0,0.2,0,0.4c0,0.3,0,0.5,0,0.9c0,0.2,0,0.3,0,0.5
			c0,0.2,0,0.3,0.1,0.5c0.1,0.4,0.2,0.7,0.3,1.1c0.1,0.2,0.1,0.4,0.2,0.6c0.1,0.2,0.2,0.4,0.3,0.5c0.2,0.4,0.4,0.7,0.7,1
			c0.3,0.3,0.6,0.6,0.9,0.8c0.3,0.2,0.7,0.3,1.1,0.5c0.7,0.3,1.5,0.5,2.1,0.8c0.3,0.1,0.6,0.3,0.8,0.4c0,0,0,0,0.1,0
			c-0.1-0.4-0.1-0.8-0.2-1.2c-0.1-0.6-0.2-1.3-0.1-1.9c0.1-0.7,0.3-1.4,0.7-2c0.1-0.2,0.2-0.3,0.3-0.5c0.1-0.1,0.2-0.3,0.4-0.4
			c0.2-0.2,0.4-0.4,0.6-0.5l0,0c0,0,0,0,0,0c0.1-0.1,0.1-0.1,0.2-0.2c0.1-0.1,0.2-0.1,0.3-0.2c0-0.1,0-0.3,0-0.5
			c0-0.2-0.1-0.5-0.2-0.7c-0.2-0.5-0.6-1.1-1-1.8c-0.2-0.4-0.4-0.7-0.5-1.1c-0.1-0.4-0.2-0.8-0.3-1.2c0-0.4,0-0.8,0-1.2
			c0-0.4,0.1-0.8,0.2-1.2c0.2-0.8,0.4-1.4,0.7-2c0.2-0.6,0.5-1,0.6-1.3c0.1-0.3,0.2-0.4,0.2-0.5c0,0-0.1,0.2-0.2,0.5
			c-0.1,0.3-0.3,0.8-0.5,1.4c-0.2,0.6-0.4,1.3-0.5,2c-0.1,0.4-0.1,0.8-0.1,1.1c0,0.4,0,0.8,0.1,1.2c0,0.2,0.1,0.4,0.1,0.6
			c0,0.2,0.1,0.4,0.2,0.6c0.1,0.3,0.3,0.7,0.5,1c0.4,0.6,0.9,1.2,1.1,1.8c0.1,0.3,0.2,0.6,0.3,0.9c0,0,0,0.1,0,0.1
			c0.2-0.1,0.4-0.2,0.6-0.4c0.6-0.4,1.1-0.7,1.5-1.2c0.1-0.1,0.2-0.2,0.3-0.4c0-0.1,0.1-0.1,0.1-0.2l0.1-0.2
			c0.1-0.1,0.2-0.3,0.2-0.4c0.1-0.1,0.1-0.3,0.2-0.4c0.1-0.3,0.2-0.5,0.3-0.8c0.1-0.3,0.2-0.5,0.2-0.8c0.1-0.5,0.2-1,0.3-1.4
			c0.1-0.4,0.2-0.8,0.2-1.1c0.1-0.6,0.2-0.9,0.2-0.9s-0.1,0.3-0.2,0.9c0,0.3-0.1,0.7-0.2,1.1c-0.1,0.4-0.1,0.9-0.3,1.4
			c-0.1,0.3-0.1,0.5-0.2,0.8c-0.1,0.3-0.1,0.6-0.3,0.8c-0.1,0.1-0.1,0.3-0.2,0.4c-0.1,0.1-0.1,0.3-0.2,0.4l-0.1,0.2
			c0,0.1-0.1,0.1-0.1,0.2c-0.1,0.1-0.2,0.3-0.3,0.4c-0.4,0.5-1,1-1.5,1.3c-0.3,0.2-0.5,0.3-0.8,0.5c0,0,0,0.1,0,0.1
			c0,0.2,0,0.3,0,0.4c0,0.1,0,0.1,0,0.1l-0.8-0.1c0.1,0,0.2,0.1,0.3,0.2c0.1,0.1,0.3,0.1,0.4,0.2c0.3,0.2,0.5,0.4,0.8,0.7
			c0.5,0.6,0.9,1.3,1.5,1.9c0.1,0.1,0.1,0.1,0.2,0.2c0.1,0,0.1-0.1,0.2-0.1c0.1-0.1,0.2-0.2,0.3-0.3c0.1-0.1,0.3-0.3,0.4-0.5
			c0.2-0.2,0.3-0.4,0.5-0.6c0.2-0.2,0.4-0.4,0.6-0.7c0.1-0.1,0.2-0.2,0.3-0.3c0.1-0.1,0.3-0.2,0.4-0.3c0.2-0.1,0.3-0.2,0.4-0.3
			c0.2-0.1,0.3-0.2,0.5-0.2c0.6-0.3,1.2-0.5,1.8-0.7c0.6-0.2,1.1-0.5,1.5-0.7c0.2-0.1,0.4-0.3,0.5-0.4c0.1-0.1,0.2-0.3,0.3-0.4
			c0.1-0.1,0.1-0.2,0.2-0.3c0,0,0-0.1,0.1-0.1c0,0,0,0,0,0.1c0,0.1-0.1,0.2-0.2,0.3c-0.1,0.1-0.2,0.3-0.3,0.4
			c-0.1,0.2-0.3,0.3-0.5,0.5c-0.4,0.3-0.9,0.6-1.4,0.9c-0.5,0.3-1.1,0.5-1.7,0.9c-0.1,0.1-0.3,0.2-0.4,0.2c-0.1,0.1-0.3,0.2-0.4,0.3
			c-0.1,0.1-0.2,0.2-0.3,0.3c-0.1,0.1-0.2,0.2-0.3,0.3c-0.2,0.2-0.3,0.5-0.5,0.7c-0.2,0.2-0.3,0.4-0.4,0.6c-0.1,0.2-0.3,0.4-0.4,0.6
			c-0.1,0.2-0.3,0.3-0.4,0.4c0,0-0.1,0.1-0.1,0.1l0.1,0.1c0.1,0.1,0.2,0.1,0.3,0.2l0.3,0.2c0.2,0.1,0.4,0.2,0.6,0.3
			c0.2,0.1,0.4,0.2,0.6,0.3l0.3,0.1l0.3,0.1c0.4,0.1,0.9,0.2,1.3,0.2c0.2,0,0.4,0,0.6,0c0.2,0,0.4,0,0.6,0c0.2,0,0.4,0,0.6-0.1
			c0.2,0,0.4-0.1,0.5-0.1c0.3-0.1,0.6-0.2,0.9-0.2c0.3-0.1,0.5-0.2,0.7-0.2c0.4-0.1,0.6-0.2,0.6-0.2c0,0-0.2,0.1-0.6,0.3
			c-0.2,0.1-0.4,0.2-0.7,0.3c-0.3,0.1-0.6,0.2-0.9,0.3c-0.2,0-0.4,0.1-0.5,0.1c-0.2,0-0.4,0.1-0.6,0.1c-0.2,0-0.4,0.1-0.6,0.1
			c-0.2,0-0.4,0-0.7,0c-0.4,0-0.9,0-1.4-0.1l-0.4-0.1l-0.3-0.1c-0.2-0.1-0.5-0.1-0.7-0.2c-0.2-0.1-0.4-0.2-0.7-0.3
			c-0.2-0.1-0.4-0.3-0.6-0.4l-0.3-0.2l-0.1-0.1c0,0-0.1,0-0.1-0.1l-0.1-0.1c-0.2-0.2-0.3-0.3-0.5-0.5c-0.6-0.7-1.1-1.4-1.5-1.8
			c-0.2-0.2-0.5-0.4-0.7-0.5c-0.1-0.1-0.2-0.1-0.3-0.2c-0.1,0-0.2-0.1-0.3-0.1c-0.1,0-0.1-0.1-0.2-0.1c-0.1,0-0.1,0-0.2,0
			c-0.1,0-0.2,0-0.2,0l0,0c-0.1,0.1-0.2,0.2-0.3,0.4l-0.2,0.4c-0.3,0.6-0.5,1.2-0.5,1.8c0,0.6,0.1,1.2,0.2,1.8
			c0.1,0.6,0.2,1.1,0.3,1.6c0.1,0.5,0.2,1,0.2,1.4c0,0.1,0,0.2,0,0.3c0,0.1,0,0.2,0,0.3c0,0.1,0,0.2,0,0.3c0,0,0,0,0,0
			c0.8,0.1,1.5,0.3,2.3,0.6l0.4,0.1l0.3,0.1c0.2,0.1,0.5,0.2,0.7,0.3c0.4,0.2,0.9,0.4,1.3,0.7c0.6,0.3,1.1,0.6,1.7,1l0.1-0.1
			c0,0,0.1,0,0.2,0.1c0.1,0.1,0.3,0.2,0.4,0.4c1.3,0.7,2.6,1.4,3.9,1.7l-0.1-0.1c0,0,0,0,0.1-0.1c0,0,0.1-0.1,0.1-0.1
			c0,0,0.1,0,0.1-0.1c0.1-0.1,0.2-0.2,0.3-0.3c0.1-0.1,0.2-0.4,0.3-0.6c0.2-0.5,0.5-1,0.9-1.6c0.1-0.1,0.2-0.3,0.3-0.4
			c0,0,0,0,0.1-0.1l0,0l0.1-0.1c0.1-0.1,0.1-0.1,0.2-0.2c0.3-0.2,0.6-0.4,0.9-0.6c0.3-0.2,0.7-0.3,1-0.4c0.3-0.1,0.7-0.2,1-0.3
			c0.7-0.2,1.3-0.3,1.8-0.4c1-0.2,1.6-0.3,1.7-0.4c-0.1,0-0.7,0.2-1.7,0.5c-0.5,0.1-1.1,0.3-1.7,0.5c-0.3,0.1-0.6,0.2-0.9,0.4
			c-0.3,0.1-0.6,0.3-0.9,0.5c-0.3,0.2-0.6,0.4-0.8,0.6c-0.3,0.3-0.4,0.5-0.6,0.7c-0.3,0.5-0.5,1.1-0.7,1.6c-0.1,0.3-0.2,0.5-0.3,0.7
			c-0.1,0.2-0.2,0.3-0.3,0.4c0.5,0.1,1,0.1,1.4,0.1c0.6-0.1,1-0.2,1.4-0.4c0.2-0.1,0.3-0.2,0.4-0.3c0.1-0.1,0.2-0.2,0.3-0.3
			c0.1-0.2,0.2-0.2,0.2-0.3c0,0-0.1,0.1-0.2,0.3c-0.1,0.1-0.2,0.2-0.3,0.3c-0.1,0.1-0.2,0.3-0.4,0.4c-0.3,0.3-0.8,0.5-1.4,0.6
			c-0.6,0.1-1.2,0.1-1.9,0.1c-0.1,0-0.1,0.1-0.1,0.1l0-0.1c-1-0.1-2-0.4-3.1-0.8c0.1,0.1,0.1,0.2,0.2,0.2c0.4,0.7,0.9,1.4,1.5,2.1
			l0.1,0c0,0,0,0.1,0,0.2c0,0,0,0.1,0.1,0.1c0.4,0.4,0.8,0.7,1.2,1c0.2,0.1,0.5,0.2,0.7,0.3c0.3,0.1,0.5,0.2,0.8,0.3
			c2.2,0.8,4.5,1.2,6.2,1.4c0.4,0.1,0.8,0.1,1.2,0.1c0.4,0,0.7,0,0.9,0c0.3,0,0.5,0,0.6,0c0.1,0,0.2,0,0.2,0s-0.1,0-0.2,0
			c-0.1,0-0.3,0-0.6,0c-0.3,0-0.6,0-0.9,0c-0.4,0-0.8,0-1.2,0c-0.3,0-0.7,0-1-0.1c0,0,0,0,0,0.1c0,0.1,0.1,0.2,0.1,0.3
			c0.1,0.3,0.3,0.7,0.6,1.1c0.5,0.9,1.3,2,2.2,3.1c0.5,0.5,0.9,1,1.4,1.4c0.2,0.2,0.5,0.4,0.7,0.6c0.2,0.2,0.5,0.3,0.7,0.4
			c0.2,0.1,0.5,0.2,0.7,0.1c0.1,0,0.2,0,0.3,0c0.1,0,0.2-0.1,0.2-0.1c0.1,0,0.1-0.1,0.2-0.1c0,0,0.1-0.1,0.1-0.1
			c0,0,0.1-0.1,0.1-0.1c0,0,0,0-0.1,0.1c0,0-0.1,0.1-0.1,0.1c0,0-0.1,0.1-0.2,0.1c-0.1,0-0.1,0.1-0.2,0.1c-0.1,0-0.2,0.1-0.3,0
			c-0.2,0-0.5,0-0.7-0.1c-0.2-0.1-0.5-0.2-0.8-0.4c-0.3-0.2-0.5-0.3-0.8-0.6c-0.5-0.4-1-0.9-1.5-1.4c-0.9-1-1.8-2.2-2.3-3
			c-0.3-0.4-0.5-0.8-0.6-1.1c-0.1-0.1-0.1-0.3-0.1-0.3c0-0.1,0-0.1,0-0.1l0.3-0.1c-1.6-0.1-3.5-0.4-5.4-1c-0.3-0.1-0.6-0.2-0.8-0.3
			c-0.3-0.1-0.6-0.2-0.8-0.4c-0.4-0.2-0.7-0.4-1-0.7c0,0.2,0,0.4-0.1,0.5c0,0.2-0.1,0.5-0.1,0.8c-0.1,0.3-0.1,0.6-0.2,0.9
			c-0.1,0.3-0.2,0.6-0.2,0.9c-0.1,0.3-0.2,0.6-0.2,0.9c-0.1,0.3-0.1,0.6-0.1,0.9l0,0.2l0,0.2c0,0.2,0,0.3,0,0.4c0,0.1,0,0.3,0,0.4
			c0,0.1,0.1,0.3,0.1,0.4c0,0.1,0,0.1,0,0.2c0,0.1,0,0.1,0.1,0.2c0,0.1,0.1,0.2,0.1,0.3c0.1,0.2,0.2,0.4,0.3,0.6
			c0.1,0.2,0.2,0.3,0.3,0.4c0.2,0.2,0.3,0.4,0.3,0.4s-0.1-0.1-0.3-0.3c-0.1-0.1-0.2-0.2-0.3-0.4c-0.1-0.2-0.2-0.3-0.4-0.6
			c-0.1-0.1-0.1-0.2-0.2-0.3c0-0.1-0.1-0.1-0.1-0.2c0-0.1,0-0.1-0.1-0.2c0-0.1-0.1-0.3-0.1-0.4c0-0.1-0.1-0.3-0.1-0.5
			c0-0.2,0-0.3-0.1-0.5l0-0.2l0-0.2c0-0.3,0-0.7,0.1-1c0.1-0.7,0.2-1.3,0.3-1.9c0-0.3,0.1-0.6,0.1-0.8c0-0.3,0-0.5,0.1-0.8
			c0-0.2,0-0.4,0-0.6c0-0.2,0-0.4,0-0.5c0-0.1,0-0.2,0-0.3c-0.6-0.6-1-1.3-1.4-1.8c-0.4-0.6-0.8-1-1.1-1.3c0,0,0,0-0.1,0
			c-0.8-0.3-1.7-0.8-2.5-1.1c-0.4-0.2-0.7-0.3-1.1-0.4c0,0.1,0,0.2,0.1,0.2c0.3,1.4,0.1,3.1,0.2,4.8l0.1,0.1c0,0,0,0-0.1,0
			c0,0.4,0.1,0.7,0.1,1.1c0.1,0.4,0.1,0.8,0.2,1.2c0,0.2,0.1,0.4,0.2,0.5c0.1,0.2,0.1,0.3,0.2,0.5c0.1,0.2,0.2,0.3,0.3,0.4
			c0.1,0.1,0.2,0.3,0.3,0.4c0.1,0.1,0.2,0.2,0.3,0.3c0.1,0.1,0.2,0.2,0.3,0.3c0.2,0.2,0.4,0.3,0.6,0.4c0.2,0.1,0.3,0.1,0.4,0.2
			c0.1,0,0.1,0,0.1,0.1c0,0-0.1,0-0.1,0c-0.1,0-0.2-0.1-0.4-0.1c-0.2-0.1-0.4-0.2-0.6-0.3c-0.1-0.1-0.2-0.1-0.4-0.2
			c-0.1-0.1-0.3-0.2-0.4-0.3c-0.1-0.1-0.3-0.2-0.4-0.4c-0.1-0.1-0.2-0.3-0.3-0.4c-0.1-0.2-0.2-0.3-0.3-0.5c-0.1-0.2-0.2-0.4-0.3-0.6
			c-0.2-0.4-0.3-0.8-0.4-1.2c-0.1-0.3-0.1-0.6-0.2-0.9c0,0,0,0,0,0c-0.2,0.1-0.3,0.2-0.5,0.3c-0.2,0.1-0.4,0.3-0.6,0.4
			c-0.2,0.2-0.4,0.3-0.6,0.5c-0.2,0.2-0.4,0.4-0.6,0.6c-0.2,0.2-0.4,0.5-0.5,0.7c-0.1,0.3-0.3,0.5-0.4,0.8c-0.1,0.3-0.2,0.5-0.3,0.8
			c0,0.1,0,0.3-0.1,0.4c0,0.1,0,0.1,0,0.2v0.6c0,0.1,0,0.2,0.1,0.4c0,0.2,0.1,0.4,0.2,0.6c0,0.1,0.1,0.2,0.1,0.2
			c0,0.1,0.1,0.1,0.1,0.2c0.1,0.2,0.2,0.3,0.2,0.4c0,0-0.1-0.2-0.2-0.3c0-0.1-0.1-0.1-0.1-0.2c0-0.1-0.1-0.2-0.1-0.2
			c-0.1-0.2-0.2-0.4-0.2-0.6c0-0.1-0.1-0.2-0.1-0.4c0-0.1,0-0.3,0-0.4c0-0.1,0-0.1,0-0.2c0-0.1,0-0.1,0-0.2c0-0.1,0-0.3,0-0.4
			c0.1-0.3,0.1-0.6,0.2-0.9c0.1-0.3,0.2-0.6,0.4-0.9c0.2-0.3,0.3-0.6,0.5-0.8c0.2-0.3,0.4-0.5,0.6-0.7c0.2-0.2,0.4-0.4,0.6-0.6
			c0.2-0.2,0.4-0.4,0.6-0.5c0.2-0.2,0.4-0.3,0.6-0.4c0.1-0.1,0.2-0.1,0.3-0.2c-0.1-0.7-0.2-1.3-0.3-2c-0.1-0.4-0.1-0.8-0.2-1.1
			c-0.1-0.4-0.1-0.7-0.2-0.9c-0.1-0.3-0.2-0.5-0.3-0.7c-0.1-0.2-0.2-0.2-0.3-0.3c0,0,0,0-0.1,0c0,0,0,0,0,0c0,0,0,0,0,0
			c0,0-0.1,0-0.1,0c-0.1,0-0.1-0.1-0.1-0.1l0-0.1c-0.7-0.1-1.3-0.2-2-0.2c-0.2,0-0.4,0-0.6,0c-0.1,0-0.2,0-0.3,0l-0.3,0l-0.3,0
			l-0.2,0c0,0,0,0,0,0l0,0l0,0l0,0l-0.1,0c-0.2,0-0.4,0.1-0.6,0.1c-0.7,0.2-1.4,0.6-2,1c-0.6,0.4-1.3,0.9-1.9,1.3
			c-0.7,0.4-1.4,0.8-2.2,0.9c-0.8,0.1-1.4,0.2-2,0.1c-0.1,0-0.2,0-0.2,0c-0.1,0.2-0.1,0.5,0.1,0.7c0.4,0.4,2.3,3.4,4.3,6.8
			c0.6-1.5,0.4-3.4,1.6-4.7c0.3-0.3,0.8,0.2,0.5,0.5c-0.4,0.5-0.7,1.1-0.8,1.7c0.8,0.4,1.6,0.1,2.3-0.4c0.1-0.1,0.2,0.1,0.1,0.1
			c-0.7,0.6-1.6,1-2.5,0.7c-0.2,0.6-0.3,1.3-0.5,1.9c-0.1,0.2-0.2,0.4-0.3,0.6c0.6,1,1.2,2,1.8,3c1.1-0.2,2.1,0,3.2,0.2
			c0.2,0,0.4,0.1,0.6,0.1c0,0,0.1,0,0.1,0c0,0,0,0,0,0c1.5,0.2,3,0.1,4.5-0.4c0.1,0,0.1,0.1,0.1,0.1c-1.2,0.6-2.4,0.8-3.7,0.8
			c0.3,0.3,0.6,0.6,0.8,0.9c0.6,0.6,1.2,1.2,1.7,1.9c0.1,0.2-0.2,0.4-0.3,0.2c-0.6-0.7-1.3-1.2-2.1-1.7c-0.5-0.3-1.1-0.7-1.3-1.2
			c-1,0-2,0-3.1,0.1c1.4,2.4,2.5,4.4,2.7,5.2c0.1,0.4,0.2,1.1,0.4,2.2c0,0,0,0,0,0c0,0,0.1,0,0.2,0c0.1,0,0.2-0.1,0.4-0.1
			c0.1,0,0.3-0.1,0.4-0.1c0.1,0,0.3-0.1,0.5-0.1c0.3,0,0.6-0.1,1-0.1c0.3,0,0.7,0,1.1,0c0.4,0,0.8,0.1,1.2,0.1
			c0.4,0.1,0.8,0.2,1.2,0.3c0-0.1,0-0.3,0-0.4c0-0.3,0-0.7,0-1c0-0.4,0-0.7,0-1.1c0-0.4,0.1-0.7,0.1-1.1l0.1-0.6
			c0-0.2,0.1-0.4,0.1-0.5c0.1-0.4,0.2-0.7,0.3-1c0.1-0.3,0.2-0.6,0.4-0.9c0.1-0.3,0.3-0.6,0.4-0.8c0.1-0.3,0.3-0.5,0.4-0.7
			c0.1-0.2,0.2-0.4,0.3-0.5c0.1-0.2,0.2-0.4,0.3-0.4c0,0.1-0.1,0.2-0.2,0.4c-0.1,0.1-0.2,0.3-0.3,0.5c-0.1,0.2-0.2,0.4-0.3,0.7
			c-0.1,0.3-0.2,0.5-0.3,0.8c-0.1,0.3-0.2,0.6-0.3,0.9c-0.1,0.3-0.2,0.7-0.2,1c0,0.2-0.1,0.4-0.1,0.5l-0.1,0.5
			c0,0.4-0.1,0.7-0.1,1.1c0,0.4,0,0.7,0,1c0,0.3,0.1,0.7,0.1,1c0,0.2,0.1,0.3,0.1,0.4c0,0.1,0.1,0.2,0.1,0.4
			c0.1,0.1,0.3,0.1,0.4,0.2c0.8,0.3,1.7,0.7,2.5,1.2c0.8,0.5,1.7,1,2.5,1.5c0.1,0.1,0.3,0.2,0.4,0.3c0.1,0,0.1,0,0.2-0.1
			c0.3-0.1,0.8-0.2,1.3-0.3c0-0.1-0.1-0.2-0.1-0.5c-0.1-0.1-0.1-0.3-0.2-0.5c-0.1-0.2-0.2-0.4-0.3-0.6c-0.1-0.2-0.3-0.5-0.4-0.8
			c-0.1-0.1-0.2-0.3-0.2-0.5c0-0.1-0.1-0.2-0.1-0.3c0-0.1-0.1-0.2-0.1-0.3c0-0.1,0-0.2-0.1-0.3c0,0,0,0,0-0.1l0,0l0-0.1l0-0.1
			c0-0.2,0-0.4,0-0.6c0-0.4,0-0.8,0.1-1.2c0.1-0.4,0.2-0.7,0.3-1.1c0.1-0.4,0.3-0.7,0.4-1c0.1-0.3,0.3-0.6,0.5-0.9
			c0.2-0.3,0.3-0.5,0.5-0.8c0.3-0.5,0.6-0.8,0.9-1c0.1-0.1,0.2-0.2,0.3-0.3c0,0,0.1-0.1,0.1-0.1c0,0,0,0-0.1,0.1
			c-0.1,0.1-0.1,0.2-0.2,0.3c-0.2,0.2-0.5,0.6-0.8,1.1c-0.1,0.2-0.3,0.5-0.4,0.8c-0.1,0.3-0.3,0.6-0.4,0.9c-0.1,0.3-0.2,0.7-0.3,1
			c-0.1,0.3-0.1,0.7-0.2,1.1c0,0.4,0,0.7,0,1.1c0,0.2,0,0.3,0.1,0.5l0,0.1l0,0.1l0,0v0c0,0,0,0,0,0c0,0.1,0.1,0.1,0.1,0.2
			c0,0.1,0,0.1,0.1,0.2c0,0.1,0.1,0.1,0.1,0.2c0.1,0.1,0.1,0.3,0.2,0.4c0.2,0.3,0.3,0.5,0.5,0.7c0.2,0.2,0.3,0.5,0.4,0.7
			c0.1,0.2,0.2,0.4,0.3,0.6c0.1,0.2,0.1,0.4,0.1,0.4c0.1,0,0.1-0.1,0.2-0.1c0.3-0.1,0.6-0.3,1-0.5c0.2-0.1,0.3-0.2,0.5-0.3
			c0.1-0.1,0.3-0.3,0.4-0.4l0.1,0c0,0,0,0,0,0l0.1-0.1l0.2-0.2c0.1-0.2,0.2-0.3,0.4-0.5c0.2-0.3,0.4-0.7,0.6-1.1
			c0.2-0.4,0.4-0.7,0.6-1.1c0.2-0.3,0.4-0.7,0.7-1c0.1-0.1,0.3-0.3,0.4-0.4c0.1-0.1,0.3-0.2,0.4-0.3c0.1-0.1,0.3-0.2,0.4-0.2
			c0.1,0,0.3-0.1,0.4-0.1c0.3-0.1,0.5-0.1,0.7-0.1c0.3,0,0.5-0.1,0.6-0.1c0,0-0.2,0-0.6,0.1c-0.2,0-0.4,0.1-0.6,0.2
			c-0.1,0.1-0.2,0.1-0.4,0.2c-0.1,0.1-0.2,0.1-0.4,0.2c-0.1,0.1-0.2,0.2-0.4,0.3c-0.1,0.1-0.2,0.2-0.3,0.4c-0.2,0.3-0.4,0.6-0.6,1
			c-0.2,0.4-0.3,0.7-0.5,1.1c-0.2,0.4-0.4,0.8-0.6,1.1c-0.1,0.2-0.2,0.4-0.4,0.6l-0.2,0.2l-0.1,0.1c0,0,0,0-0.1,0.1l-0.1,0.1
			c-0.2,0.2-0.3,0.3-0.5,0.5c-0.2,0.1-0.3,0.3-0.5,0.4c-0.3,0.2-0.7,0.4-1,0.6c-0.3,0.2-0.7,0.3-1,0.4c-0.3,0.1-0.6,0.2-0.9,0.3
			c0.3,0.2,0.7,0.5,1,0.7c0.8,0.5,1.7,0.9,2.5,1.3c0.9,0.4,1.7,0.8,2.6,1.1c1.7,0.6,3.3,1.1,4.8,1.3c0.3,0,0.6,0.1,0.9,0.1l-0.2-0.1
			c0,0,0.1-0.1,0.1-0.3c0-0.1,0.1-0.2,0.2-0.4c0.1-0.1,0.2-0.3,0.3-0.5c0.1-0.2,0.2-0.4,0.4-0.5c0.1-0.2,0.3-0.3,0.5-0.5
			c0.2-0.2,0.4-0.3,0.6-0.5c0.2-0.2,0.4-0.3,0.7-0.4c0.2-0.1,0.5-0.3,0.7-0.4c0.2-0.1,0.5-0.2,0.7-0.3c0.5-0.2,0.9-0.4,1.2-0.5
			c0.7-0.3,1.2-0.5,1.2-0.5c-0.1,0-0.5,0.2-1.2,0.5c-0.4,0.2-0.8,0.4-1.2,0.6c-0.2,0.1-0.4,0.2-0.7,0.3c-0.2,0.1-0.5,0.3-0.7,0.4
			c-0.2,0.1-0.4,0.3-0.6,0.4c-0.2,0.2-0.4,0.3-0.6,0.5c-0.2,0.2-0.3,0.3-0.5,0.5c-0.1,0.2-0.3,0.3-0.4,0.5c-0.1,0.2-0.2,0.3-0.2,0.5
			C173.3,143.7,173.3,143.8,173.2,143.9z"/>
		<path class="st4" d="M176.5,179.5c-0.2-0.1-0.3-0.2-0.5-0.3c-0.2-0.1-0.4-0.3-0.5-0.4c-0.2-0.2-0.4-0.3-0.6-0.5
			c-0.1-0.1-0.2-0.2-0.3-0.3c-0.1-0.1-0.2-0.2-0.3-0.3c-0.2-0.2-0.4-0.4-0.5-0.6c-0.2-0.2-0.3-0.4-0.5-0.7c-0.2-0.2-0.3-0.5-0.4-0.7
			c-0.1-0.2-0.2-0.4-0.4-0.7c-0.1-0.2-0.2-0.4-0.3-0.6c-0.1-0.2-0.2-0.4-0.2-0.5c0-0.2-0.1-0.3-0.1-0.4c0-0.2-0.1-0.4-0.1-0.4
			l-0.3,0.1c0,0,0,0.1,0.1,0.4c0,0.1,0.1,0.3,0.1,0.4c0.1,0.2,0.1,0.3,0.2,0.5c0.1,0.2,0.2,0.4,0.3,0.6c0.1,0.2,0.2,0.4,0.4,0.7
			c0.1,0.2,0.3,0.5,0.5,0.7c0.2,0.2,0.3,0.4,0.5,0.7c0.2,0.2,0.4,0.4,0.6,0.6c0.1,0.1,0.2,0.2,0.3,0.3c0.1,0.1,0.2,0.2,0.3,0.3
			c0.2,0.2,0.4,0.3,0.6,0.5c0.2,0.1,0.4,0.3,0.6,0.4C176.1,179.4,176.3,179.5,176.5,179.5c0.1,0.1,0.3,0.2,0.4,0.2
			c0.2,0.1,0.4,0.1,0.4,0.1s-0.1,0-0.4-0.1C176.8,179.7,176.6,179.6,176.5,179.5z"/>
		<path class="st4" d="M154.7,97.3c0,0,0.4-0.1,1.1-0.3c0.3-0.1,0.7-0.2,1.1-0.4c0.2-0.1,0.4-0.2,0.6-0.3c0.2-0.1,0.4-0.2,0.6-0.3
			c0.2-0.1,0.4-0.2,0.6-0.4c0.2-0.1,0.4-0.3,0.5-0.4c0.1-0.1,0.2-0.2,0.2-0.2c0.1-0.1,0.1-0.2,0.2-0.2c0.1-0.1,0.2-0.3,0.3-0.4
			c0.1-0.1,0.2-0.3,0.3-0.4c0.1-0.1,0.1-0.2,0.2-0.3c0.1-0.2,0.2-0.3,0.2-0.3s-0.1,0.1-0.2,0.3c-0.1,0.1-0.1,0.2-0.2,0.3
			c-0.1,0.1-0.2,0.2-0.3,0.4c-0.1,0.1-0.2,0.3-0.4,0.4c-0.1,0.1-0.1,0.1-0.2,0.2c-0.1,0.1-0.2,0.1-0.2,0.2c-0.2,0.1-0.3,0.3-0.5,0.4
			c-0.2,0.1-0.4,0.2-0.6,0.4c-0.2,0.1-0.4,0.2-0.6,0.3c-0.2,0.1-0.4,0.2-0.6,0.2c-0.4,0.1-0.8,0.2-1.1,0.3c-0.7,0.2-1.1,0.3-1.1,0.3
			L154.7,97.3z"/>
		<path class="st4" d="M73.9,173.5l-0.3-0.1c0,0,0,0.1-0.1,0.4c0,0.1-0.1,0.3-0.1,0.4c0,0.2-0.1,0.3-0.2,0.5
			c-0.1,0.2-0.2,0.4-0.3,0.6c-0.1,0.2-0.2,0.4-0.4,0.7c-0.1,0.2-0.3,0.5-0.4,0.7c-0.1,0.2-0.3,0.4-0.5,0.7c-0.2,0.2-0.4,0.4-0.5,0.6
			c-0.1,0.1-0.2,0.2-0.3,0.3c-0.1,0.1-0.2,0.2-0.3,0.3c-0.2,0.2-0.4,0.3-0.6,0.5c-0.2,0.1-0.4,0.3-0.5,0.4c-0.2,0.1-0.3,0.2-0.5,0.3
			c-0.2,0.1-0.3,0.2-0.4,0.2c-0.2,0.1-0.4,0.1-0.4,0.1s0.1,0,0.4-0.1c0.1,0,0.2-0.1,0.4-0.2c0.2-0.1,0.3-0.2,0.5-0.3
			c0.2-0.1,0.4-0.2,0.6-0.4c0.2-0.2,0.4-0.3,0.6-0.5c0.1-0.1,0.2-0.2,0.3-0.3c0.1-0.1,0.2-0.2,0.3-0.3c0.2-0.2,0.4-0.4,0.6-0.6
			c0.2-0.2,0.4-0.4,0.5-0.7c0.2-0.2,0.3-0.4,0.5-0.7c0.2-0.2,0.3-0.5,0.4-0.7c0.1-0.2,0.2-0.4,0.3-0.6c0.1-0.2,0.2-0.4,0.2-0.5
			c0.1-0.2,0.1-0.3,0.1-0.4C73.9,173.7,73.9,173.5,73.9,173.5z"/>
		<path class="st4" d="M85,94.2c0.1,0.1,0.2,0.3,0.3,0.4c0.1,0.1,0.2,0.3,0.3,0.4c0.1,0.1,0.1,0.2,0.2,0.2c0.1,0.1,0.2,0.1,0.2,0.2
			c0.2,0.2,0.3,0.3,0.5,0.4c0.2,0.1,0.4,0.3,0.6,0.4c0.2,0.1,0.4,0.2,0.6,0.3c0.2,0.1,0.4,0.2,0.6,0.3c0.4,0.2,0.8,0.3,1.1,0.4
			c0.7,0.2,1.1,0.3,1.1,0.3l0.1-0.3c0,0-0.4-0.1-1.1-0.3c-0.3-0.1-0.7-0.2-1.1-0.3c-0.2-0.1-0.4-0.1-0.6-0.2
			c-0.2-0.1-0.4-0.2-0.6-0.3c-0.2-0.1-0.4-0.2-0.6-0.4c-0.2-0.1-0.4-0.3-0.5-0.4c-0.1-0.1-0.2-0.1-0.2-0.2c-0.1-0.1-0.1-0.1-0.2-0.2
			c-0.1-0.1-0.2-0.3-0.4-0.4C85.2,94.5,85.1,94.3,85,94.2c-0.1-0.1-0.1-0.2-0.2-0.3c-0.1-0.2-0.2-0.3-0.2-0.3s0.1,0.1,0.2,0.3
			C84.9,94,85,94.1,85,94.2z"/>
	</g>
</g>
<g id="Layer_15" class="st0">
	<g class="st2">
		<path class="st17" d="M160.8,129.4L149,115.7c0.1,0.7,0.1,1.5,0.1,2.2c0,13.8-11.2,25-25,25c-13.8,0-25-11.2-25-25
			c0-0.7,0-1.5,0.1-2.2l-11.8,13.7l16.2,16.7h41.1L160.8,129.4z"/>
		<path class="st18" d="M103.9,110.1l-4.8,5.6c-0.1,0.7-0.1,1.5-0.1,2.2c0,13.8,11.2,25,25,25c13.8,0,25-11.2,25-25
			c0-0.7,0-1.5-0.1-2.2l-4.8-5.6c-2.2-2.5-3.3-5.8-3-9.2c0-0.4,0.1-0.8,0.1-1.2c-4.5-4.3-10.6-6.9-17.3-6.9
			c-6.7,0-12.8,2.6-17.3,6.9C107.4,103.4,106.5,107.2,103.9,110.1z"/>
		<path class="st18" d="M158.4,163.2l26-26.9c3.3-3.4,3.5-8.8,0.4-12.4l-24.1-27.9c-1.6-1.9-3.8-3-6.3-3.2c-0.2,0-0.5,0-0.7,0
			c-2.2,0-4.3,0.8-6,2.2c-1.9,1.6-3,3.8-3.2,6.3c-0.2,2.5,0.6,4.8,2.2,6.7l18.6,21.6l-16,16.6h-4.7h-41.1h-4.7l-16-16.6l18.6-21.6
			c3.3-3.8,2.9-9.7-1-13c-1.7-1.5-3.9-2.2-6-2.2c-2.6,0-5.2,1.1-7,3.2l-24.1,27.9c-3.1,3.6-3,9,0.4,12.4l26,26.9v4.9v11.2h68.7V168
			V163.2z"/>
		<polygon class="st5" points="131.2,88.9 144.8,75.9 136.6,72.7 142.7,62.8 133.2,63.2 129,78 135.6,77.1 		"/>
		<polygon class="st5" points="144.7,85.8 166.9,79.6 159.9,71.5 172.2,64.3 161.7,59.2 148.7,72.7 156.3,75.6 		"/>
	</g>
</g>
<g id="Layer_16" class="st0">
	<g class="st2">
		<path class="st18" d="M127,59.3c-5.7,7-4.7,17.3,2.3,23c7,5.7,17.3,4.7,23-2.3c5.7-7,4.7-17.3-2.3-23
			C143,51.3,132.7,52.3,127,59.3z"/>
		<path class="st18" d="M169.9,134.5c-3.2-2.2-6.4-4.1-9.6-5.8c0.1,0.6,0.1,1.2,0,1.9c-0.5,3.6-3.6,6.3-7.2,6.3h0
			c-0.3,0-0.7,0-1-0.1c-9.2-1.3-17.2-4.3-23.7-8.9c-2.6-1.8-4.9-4-7-6.3c-2,0.2-4,0.5-5.8,0.9c0.8-1.7,1.6-3.4,2.5-5
			c-0.9-1.3-1.8-2.7-2.5-4.1c-4.7-8.6-5.5-16.4-5.6-19.3l0-0.1c0-2,0.7-3.8,2-5.2c1.3-1.4,3.1-2.2,5.1-2.2l0.2,0
			c3.9,0,7.2,3.2,7.3,7.1l0,0.4c0,0.5,0.1,1.1,0.2,1.6c0.2,1.3,0.6,3.5,1.5,5.9c0.3,0.8,0.6,1.6,0.9,2.3c3-5.9,3.1-13.3-1.1-18.6
			c-4.9-6.3-16.6-5.3-23.8,3.9c-9.1,11.5-15.7,24.9-19.3,39.1c-2.6,10.4,2.4,19.4,9.3,21c0.9,0.3,1.8,0.4,2.7,0.4h28.3l10,31.8
			c1.2,3.9,4.8,6.4,8.7,6.4c0.9,0,1.8-0.1,2.7-0.4c4.8-1.5,7.5-6.6,5.9-11.4h0l-11.2-35.6c6.3,1.3,13,4.1,20.1,9
			c4.1,2.9,9.8,1.9,12.7-2.3C175,143,174,137.4,169.9,134.5z"/>
		<polygon class="st18" points="126.2,190.3 119.4,153.2 79.4,153.2 72.6,190.3 		"/>
		<path class="st18" d="M123.2,95.8c-0.1-0.8-0.2-1.3-0.2-1.7c0-0.2,0-0.3,0-0.4c0,0,0,0,0,0h0c-0.1-3.2-2.7-5.8-6-5.7
			c-3.2,0.1-5.8,2.7-5.7,6l0,0c0,0.5,0.2,9.1,5.5,18.8c0.6,1.1,1.3,2.2,2.1,3.4c1.2,1.8,2.6,3.6,4.3,5.4c1.8,1.9,3.8,3.6,6.1,5.3
			c5.8,4.2,13.4,7.4,23,8.7c0.3,0,0.5,0.1,0.8,0.1c2.9,0,5.4-2.1,5.8-5c0.1-0.9,0-1.7-0.2-2.5c-0.6-2.1-2.4-3.8-4.8-4.1
			c-8-1.1-13.6-3.6-17.8-6.6c-4.9-3.5-7.9-7.8-9.9-11.9c-0.6-1.2-1-2.3-1.4-3.4C123.9,99.4,123.5,97.3,123.2,95.8z"/>
		<polygon class="st5" points="163.7,119.7 177.4,107.1 170.6,104.7 179.6,94.1 177.1,92.3 167.1,105.9 173.4,107.5 163.1,119.3 		
			"/>
		<polygon class="st5" points="189,112.4 187.9,110 174.9,115.8 178.8,119.7 166.3,124 166.5,124.5 182,121 178,116.5 		"/>
		<polygon class="st5" points="159.9,105.5 156.5,118 157,118.1 162.8,103.6 156.9,104.3 159.8,93.1 157.3,92.7 154.6,106.5 		"/>
	</g>
</g>
<g id="Layer_17" class="st0">
	<g id="_x31_.1" class="st2">
		<g>
			<path class="st18" d="M111.5,53.5c0.4-0.7,2.4-3.7,6.3-4.7c5.3-1.4,9.5,2.4,9.7,2.6c-0.8,4.2-1.4,9.8-0.6,16.4
				c0.4,3.5,1.2,6.6,1.9,9.2c0.3,1.1,0.8,2.5,2.1,3.2c2.6,1.4,6.2-1.5,9.2-2.8c7.2-3.2,15.4,0.3,19.4,1.9
				c15.5,6.5,21.1,32.9,17.1,52.5c-2.7,13.4-9.8,22.9-14.9,28.4c-4.7,5.3-15.1,15.4-31.6,19.5c-20.8,5.1-40.9-1.7-46.1-8.2
				c-4.5-5.6-5.7-7.9-5.7-7.9c-1.1-2.2-2-4.5-4.3-7.1c-2.5-2.8-3.8-2.8-4.2-2.8c-2.3,0-3.9,2.8-4.5,3.9c-1.3,2.4-1.3,4.8-1.3,6
				c0.7,4.5,1.5,9,2.2,13.5c-1.7,0.7-4.8,1.7-8.8,1.4c-2.5-0.2-4.5-0.8-5.8-1.4c-1-2.6-4.1-12.2,0.1-23c0.6-1.5,5.9-14.2,17.5-17.4
				c5.8-1.6,7.5-1.8,18.8,1.3c2,0.5,12.4,3.1,22.3-2.9c8.9-5.4,14.1-15.7,13.6-26.6c-0.4-2.4-1.1-6-2.5-10.2
				c-2-6.1-3.4-7.3-5.4-12.7c-2.5-6.5-3.2-11.9-3.9-17.3C111.8,64.5,111.4,59.5,111.5,53.5z"/>
		</g>
		<path class="st5" d="M166.7,122.9c0.1-0.4,0.2-0.7,0.2-1.1c0-2.4-1.9-4.3-4.3-4.3c-2.4,0-4.3,1.9-4.3,4.3c0,0.4,0.1,0.8,0.2,1.1
			c-0.7,0-1.3,0-2,0c-0.1-1-0.9-1.8-1.9-1.8s-1.9,0.8-1.9,1.8c-3.2,0-6.4,0-9.5,0c0.3-0.5,0.5-1.1,0.5-1.8c0-2-1.6-3.6-3.6-3.6
			c-2,0-3.6,1.6-3.6,3.6c0,0.7,0.2,1.3,0.5,1.8c-3.4,0-6.7,0-10.1,0c-1.8,3.8-6,11.4-14.6,16c-2.1,1.1-12.7,7.1-23,3.8
			c-3.4-1.1-6.1-3-11.1-3c-3.6,0-6.5,0.9-8.4,1.7c-0.1,0.1-2.5,1.2-2.6,3.9c-0.2,2.6,1.8,4.1,1.9,4.2c1.1-0.2,2.9-0.2,4.7,0.6
			c2.4,1.1,3.5,3,6.3,7.8c1.3,2.2,2.7,4.4,4,6.7c4.5,8.2,18.8,11.4,21.3,11.9c18.2,3.8,41.9-4.4,55.8-22.4
			c8.8-11.3,11.4-23.5,12.3-31.2C171.1,122.9,168.9,122.9,166.7,122.9z"/>
		<circle class="st5" cx="134.4" cy="113.6" r="3.1"/>
		<circle class="st5" cx="141.3" cy="104.9" r="2.1"/>
		<circle class="st5" cx="148.2" cy="99.3" r="1"/>
		<path class="st5" d="M139.2,93.2c0,0.5-0.4,0.8-0.8,0.8c-0.5,0-0.8-0.4-0.8-0.8s0.4-0.8,0.8-0.8C138.8,92.4,139.2,92.7,139.2,93.2
			z"/>
		<circle class="st5" cx="142.4" cy="88.3" r="1.1"/>
		<circle class="st5" cx="155.2" cy="115.1" r="2.4"/>
		
			<ellipse transform="matrix(0.1602 -0.9871 0.9871 0.1602 23.0954 239.398)" class="st5" cx="152.2" cy="106.1" rx="2.1" ry="2.1"/>
		<circle class="st5" cx="147.9" cy="117.5" r="1.7"/>
		<circle class="st5" cx="162.4" cy="111.6" r="1.1"/>
		<path class="st5" d="M157.6,105.5c0,0.3-0.2,0.6-0.6,0.6c-0.3,0-0.6-0.2-0.6-0.6c0-0.3,0.2-0.6,0.6-0.6
			C157.3,104.9,157.6,105.2,157.6,105.5z"/>
		<path class="st5" d="M154.3,101c0,0.4-0.3,0.7-0.7,0.7c-0.4,0-0.7-0.3-0.7-0.7c0-0.4,0.3-0.7,0.7-0.7
			C154,100.3,154.3,100.6,154.3,101z"/>
		<circle class="st5" cx="144.6" cy="95.8" r="1.1"/>
	</g>
</g>
<g id="Layer_18" class="st0">
	<g class="st2">
		<g>
			<path class="st19" d="M124.6,74.4c28.1,0,50.9,22.8,50.9,50.9c0,28.1-22.8,50.9-50.9,50.9c-28.1,0-50.9-22.8-50.9-50.9
				C73.8,97.1,96.5,74.4,124.6,74.4L124.6,74.4z"/>
			<path class="st19" d="M127.3,67.7v18.2c0,1.5-1.2,2.6-2.6,2.6h0c-1.5,0-2.6-1.2-2.6-2.6V67.7c-2.4-1-4-3.4-4-6.1
				c0-3.7,3-6.7,6.7-6.7c3.7,0,6.7,3,6.7,6.7C131.3,64.4,129.7,66.7,127.3,67.7L127.3,67.7z"/>
			<path class="st19" d="M111.1,70.9l2.7,10c0.2,0.8-0.3,1.6-1.1,1.9l0,0c-0.8,0.2-1.6-0.3-1.9-1.1l-2.7-10
				c-1.5-0.2-2.7-1.3-3.1-2.8c-0.5-2,0.7-4.1,2.7-4.7c2-0.5,4.1,0.7,4.7,2.7C112.8,68.5,112.3,70,111.1,70.9L111.1,70.9z"/>
			<path class="st19" d="M142.4,72.1l-3.1,9.9c-0.3,0.8-1.1,1.2-1.9,1h0c-0.8-0.3-1.2-1.1-1-1.9l3.1-9.9c-1.1-1-1.6-2.5-1.1-4
				c0.6-2,2.8-3.1,4.8-2.5c2,0.6,3.1,2.8,2.5,4.8C145.1,71,143.8,72,142.4,72.1L142.4,72.1z"/>
			<path class="st19" d="M169.3,91.4l-8.2,6.4c-0.7,0.5-1.6,0.4-2.1-0.3v0c-0.5-0.7-0.4-1.6,0.3-2.1l8.2-6.4c-0.4-1.4,0.1-3,1.3-4
				c1.7-1.3,4.1-1,5.4,0.7c1.3,1.7,1,4.1-0.7,5.4C172.2,92.1,170.6,92.1,169.3,91.4L169.3,91.4z"/>
			<path class="st19" d="M180.4,120l-10.3,1.1c-0.8,0.1-1.6-0.5-1.7-1.3l0,0c-0.1-0.8,0.5-1.6,1.3-1.7l10.3-1.1
				c0.4-1.4,1.7-2.5,3.2-2.7c2.1-0.2,4,1.3,4.2,3.4c0.2,2.1-1.3,4-3.4,4.2C182.6,122,181.1,121.2,180.4,120L180.4,120z"/>
			<path class="st19" d="M173.8,152l-9.2-4.8c-0.7-0.4-1-1.3-0.6-2l0,0c0.4-0.7,1.3-1,2-0.6l9.2,4.8c1.1-0.9,2.8-1.1,4.2-0.4
				c1.9,1,2.6,3.3,1.6,5.1c-1,1.9-3.3,2.6-5.1,1.6C174.5,154.9,173.7,153.5,173.8,152L173.8,152z"/>
			<path class="st19" d="M152,174.1l-5.2-9c-0.4-0.7-0.2-1.6,0.5-2.1l0,0c0.7-0.4,1.6-0.2,2.1,0.5l5.2,9c1.5-0.2,3,0.5,3.8,1.9
				c1.1,1.8,0.4,4.2-1.4,5.2c-1.8,1.1-4.2,0.4-5.2-1.4C151,176.9,151.1,175.3,152,174.1L152,174.1z"/>
			<path class="st19" d="M119.9,181l0.7-10.4c0.1-0.8,0.8-1.5,1.6-1.4l0,0c0.8,0.1,1.5,0.8,1.4,1.6l-0.7,10.4
				c1.3,0.7,2.2,2.1,2.1,3.7c-0.1,2.1-2,3.7-4.1,3.5c-2.1-0.1-3.7-2-3.5-4.1C117.5,182.8,118.5,181.5,119.9,181L119.9,181z"/>
			<path class="st19" d="M90.3,169.4l6.2-8.3c0.5-0.7,1.5-0.8,2.1-0.3l0,0c0.7,0.5,0.8,1.5,0.3,2.1l-6.2,8.3
				c0.7,1.3,0.7,2.9-0.3,4.2c-1.3,1.7-3.7,2-5.3,0.8c-1.7-1.3-2-3.7-0.8-5.3C87.3,169.6,88.8,169.1,90.3,169.4L90.3,169.4z"/>
			<path class="st19" d="M72.2,144.7l9.7-3.8c0.8-0.3,1.7,0.1,2,0.9l0,0c0.3,0.8-0.1,1.7-0.9,2l-9.7,3.8c-0.1,1.5-1,2.8-2.4,3.4
				c-2,0.8-4.2-0.2-4.9-2.2c-0.8-2,0.2-4.2,2.2-4.9C69.5,143.3,71.1,143.7,72.2,144.7L72.2,144.7z"/>
			<path class="st19" d="M69.7,114.5l10.2,1.8c0.8,0.1,1.4,0.9,1.2,1.8l0,0c-0.1,0.8-0.9,1.4-1.8,1.2l-10.2-1.8
				c-0.8,1.2-2.3,1.9-3.9,1.7c-2.1-0.4-3.5-2.4-3.1-4.4c0.4-2.1,2.4-3.5,4.4-3.1C68.2,111.9,69.4,113.1,69.7,114.5L69.7,114.5z"/>
			<path class="st19" d="M84,86.7l7.6,7c0.6,0.6,0.7,1.5,0.1,2.1l0,0c-0.6,0.6-1.5,0.7-2.1,0.1L82,89c-1.3,0.6-3,0.4-4.1-0.7
				c-1.6-1.4-1.7-3.8-0.2-5.4s3.8-1.7,5.4-0.2C84.1,83.7,84.5,85.3,84,86.7L84,86.7z"/>
			<path class="st19" d="M158.4,78.6l-10,15.2c-0.8,1.2-2.5,1.6-3.7,0.8h0c-1.2-0.8-1.6-2.5-0.8-3.7l10-15.2c-1.4-2.2-1.5-5,0-7.3
				c2-3.1,6.2-3.9,9.3-1.9c3.1,2,3.9,6.2,1.9,9.3C163.7,78,161,79.1,158.4,78.6L158.4,78.6z"/>
			<path class="st19" d="M178.5,104.9l-16.7,7.2c-1.3,0.6-2.9,0-3.5-1.4v0c-0.6-1.3,0-2.9,1.4-3.5l16.7-7.2c0-2.6,1.5-5,4-6.1
				c3.4-1.5,7.3,0.1,8.8,3.5c1.5,3.4-0.1,7.3-3.5,8.8C183.2,107.2,180.4,106.6,178.5,104.9L178.5,104.9z"/>
			<path class="st19" d="M180.8,137.8l-17.9-3.1c-1.4-0.3-2.4-1.6-2.2-3.1v0c0.3-1.4,1.6-2.4,3.1-2.2l17.9,3.1
				c1.4-2.2,4-3.4,6.7-2.9c3.6,0.6,6.1,4.1,5.4,7.7c-0.6,3.6-4.1,6.1-7.7,5.4C183.5,142.3,181.4,140.3,180.8,137.8L180.8,137.8z"/>
			<path class="st19" d="M164.7,166.6l-13.2-12.4c-1.1-1-1.1-2.7-0.1-3.7v0c1-1.1,2.7-1.1,3.7-0.1l13.2,12.4c2.4-1,5.2-0.6,7.2,1.3
				c2.7,2.5,2.8,6.8,0.3,9.4c-2.5,2.7-6.8,2.8-9.4,0.3C164.4,171.8,163.9,169,164.7,166.6L164.7,166.6z"/>
			<path class="st19" d="M135.5,181.8l-4.2-17.7c-0.3-1.4,0.5-2.9,2-3.2l0,0c1.4-0.3,2.9,0.5,3.2,2l4.2,17.7c2.5,0.4,4.7,2.4,5.3,5
				c0.9,3.6-1.4,7.2-4.9,8.1c-3.6,0.9-7.2-1.4-8.1-4.9C132.3,186,133.4,183.3,135.5,181.8L135.5,181.8z"/>
			<path class="st19" d="M102.6,178.4l6.2-17.1c0.5-1.4,2-2.1,3.4-1.6h0c1.4,0.5,2.1,2,1.6,3.4l-6.2,17.1c1.9,1.8,2.6,4.6,1.7,7.1
				c-1.3,3.5-5.1,5.3-8.5,4c-3.5-1.3-5.3-5.1-4-8.5C97.7,180.3,100.1,178.6,102.6,178.4L102.6,178.4z"/>
			<path class="st19" d="M77,157.6l14.5-10.9c1.2-0.9,2.8-0.6,3.7,0.5l0,0c0.9,1.2,0.6,2.8-0.5,3.7l-14.5,10.9
				c0.6,2.5-0.3,5.3-2.5,6.9c-3,2.2-7.1,1.6-9.4-1.3c-2.2-3-1.6-7.1,1.3-9.4C71.9,156.4,74.8,156.3,77,157.6L77,157.6z"/>
			<path class="st19" d="M67.1,128l18.1-1.7c1.4-0.1,2.7,0.9,2.9,2.4v0c0.1,1.4-0.9,2.7-2.4,2.9l-18.1,1.7c-0.8,2.5-3,4.3-5.7,4.6
				c-3.7,0.3-6.9-2.3-7.3-6c-0.3-3.7,2.3-6.9,6-7.3C63.4,124.3,65.9,125.8,67.1,128L67.1,128z"/>
			<path class="st19" d="M74.4,97.2l16.3,8.1c1.3,0.7,1.8,2.2,1.2,3.6v0c-0.7,1.3-2.2,1.8-3.6,1.2L72,101.9c-2,1.7-4.8,2.1-7.3,0.9
				c-3.3-1.6-4.6-5.7-3-9c1.6-3.3,5.7-4.6,9-3C73.2,92.1,74.5,94.6,74.4,97.2L74.4,97.2z"/>
			<path class="st19" d="M96.9,74.8l9.5,15.5c0.8,1.2,0.4,2.9-0.9,3.6v0c-1.2,0.8-2.9,0.4-3.6-0.9l-9.5-15.5
				c-2.6,0.4-5.2-0.8-6.6-3.1c-1.9-3.1-0.9-7.3,2.2-9.2c3.1-1.9,7.3-0.9,9.2,2.2C98.5,69.8,98.4,72.7,96.9,74.8L96.9,74.8z"/>
			<path class="st20" d="M123.4,104.7c2.2,0,4,1.8,4,4.1c0,2.2-1.8,4.1-4,4.1c-2.2,0-4-1.8-4-4.1
				C119.4,106.6,121.2,104.7,123.4,104.7L123.4,104.7z"/>
			<path class="st20" d="M145.5,123.3c1.2,0,2.1,1,2.1,2.2c0,1.2-1,2.2-2.1,2.2c-1.2,0-2.1-1-2.1-2.2
				C143.3,124.3,144.3,123.3,145.5,123.3L145.5,123.3z"/>
			<path class="st20" d="M135.4,88.4c1.2,0,2.1,1,2.1,2.2c0,1.2-1,2.2-2.1,2.2c-1.2,0-2.1-1-2.1-2.2
				C133.3,89.4,134.2,88.4,135.4,88.4L135.4,88.4z"/>
			<path class="st20" d="M87.7,120.1c1.2,0,2.1,1,2.1,2.2c0,1.2-1,2.2-2.1,2.2c-1.2,0-2.1-1-2.1-2.2
				C85.5,121.1,86.5,120.1,87.7,120.1L87.7,120.1z"/>
			<path class="st20" d="M109.1,142c2.2,0,4,1.8,4,4.1c0,2.2-1.8,4.1-4,4.1c-2.2,0-4-1.8-4-4.1C105.1,143.8,106.9,142,109.1,142
				L109.1,142z"/>
			<path class="st20" d="M138,153.5c2.2,0,4,1.8,4,4.1c0,2.2-1.8,4.1-4,4.1c-2.2,0-4-1.8-4-4.1C134,155.3,135.8,153.5,138,153.5
				L138,153.5z"/>
			<path class="st20" d="M159.7,103.3c2.2,0,4,1.8,4,4.1c0,2.2-1.8,4.1-4,4.1c-2.2,0-4-1.8-4-4.1
				C155.7,105.1,157.5,103.3,159.7,103.3L159.7,103.3z"/>
			<path class="st20" d="M96,99.3c1.2,0,2.1,1,2.1,2.2c0,1.2-1,2.2-2.1,2.2c-1.2,0-2.1-1-2.1-2.2C93.8,100.3,94.8,99.3,96,99.3
				L96,99.3z"/>
			<path class="st20" d="M160.3,138.7c1.2,0,2.1,1,2.1,2.2c0,1.2-1,2.2-2.1,2.2c-1.2,0-2.1-1-2.1-2.2
				C158.2,139.7,159.1,138.7,160.3,138.7L160.3,138.7z"/>
			<path class="st20" d="M114.6,165.3c1.2,0,2.1,1,2.1,2.2c0,1.2-1,2.2-2.1,2.2c-1.2,0-2.1-1-2.1-2.2
				C112.4,166.3,113.4,165.3,114.6,165.3L114.6,165.3z"/>
			<path class="st20" d="M125.7,130.1c1.2,0,2.1,1,2.1,2.2s-1,2.2-2.1,2.2c-1.2,0-2.1-1-2.1-2.2S124.5,130.1,125.7,130.1
				L125.7,130.1z"/>
			<path class="st20" d="M112.7,80.8c1.2,0,2.1,1,2.1,2.2c0,1.2-1,2.2-2.1,2.2c-1.2,0-2.1-1-2.1-2.2
				C110.6,81.7,111.6,80.8,112.7,80.8L112.7,80.8z"/>
			<path class="st20" d="M90,147.7c1.2,0,2.1,1,2.1,2.2c0,1.2-1,2.2-2.1,2.2c-1.2,0-2.1-1-2.1-2.2C87.8,148.7,88.8,147.7,90,147.7
				L90,147.7z"/>
			<path class="st20" d="M107.7,120.7c1.2,0,2.1,1,2.1,2.2c0,1.2-1,2.2-2.1,2.2c-1.2,0-2.1-1-2.1-2.2
				C105.6,121.7,106.5,120.7,107.7,120.7L107.7,120.7z"/>
		</g>
	</g>
</g>
<g id="Layer_19" class="st0">
	<path class="st21" d="M161.6,63.6c-0.7,0.7-0.7,1.9,0,2.6l5.3,5.3l-13.9,13.9l-9.6-9.6c-2.8-2.8-7.3-2.8-10,0s-2.8,7.3,0,10l4,4
		l-50.9,50.9l-0.1,0.7c0,0.3-0.5,6.2,2,11.8l-5.7,5.7l3,3l-20,20c-0.7,0.7-0.7,1.9,0,2.6c0.7,0.7,1.9,0.7,2.6,0l20-20l3,3l5.6-5.6
		c5.7,2.6,11.6,1.9,11.9,1.9l0.6-0.1l50.9-50.9l4,4c2.8,2.8,7.3,2.8,10,0c2.8-2.8,2.8-7.3,0-10l-9.6-9.6L178.5,83l5.3,5.3
		c0.7,0.7,1.9,0.7,2.6,0c0.7-0.7,0.7-1.9,0-2.6l-22.2-22.2C163.5,62.9,162.3,62.9,161.6,63.6z M91.2,162.1l-3.3-3.3l2.5-2.5
		c0.1,0.2,0.2,0.3,0.4,0.5c0.1,0.2,0.3,0.3,0.4,0.5c0,0,0,0,0,0c0.1,0.2,0.3,0.3,0.4,0.5c0.1,0.2,0.3,0.3,0.4,0.5
		c0.1,0.1,0.3,0.3,0.4,0.4c0.1,0.1,0.2,0.2,0.3,0.3c0.1,0.1,0.1,0.1,0.2,0.2c0.1,0.1,0.2,0.2,0.3,0.3c0.1,0.1,0.3,0.2,0.4,0.3
		L91.2,162.1z M115.8,151.8c0.7,0.7,0.7,1.9,0,2.6c-0.7,0.7-1.9,0.7-2.6,0l-8.7-8.7c-0.7-0.7-0.7-1.9,0-2.6c0.7-0.7,1.9-0.7,2.6,0
		L115.8,151.8z M128.7,139c0.7,0.7,0.7,1.9,0,2.6c-0.7,0.7-1.9,0.7-2.6,0l-7.2-7.2c-0.7-0.7-0.7-1.9,0-2.6c0.7-0.7,1.9-0.7,2.6,0
		L128.7,139z M141.8,125.9c0.7,0.7,0.7,1.9,0,2.6c-0.7,0.7-1.9,0.7-2.6,0l-8.7-8.7c-0.7-0.7-0.7-1.9,0-2.6c0.7-0.7,1.9-0.7,2.6,0
		L141.8,125.9z M153.7,113.9c-2,0.3-9.4,1.1-16.5-2.1c-5.6-2.6-10.3-3.2-13.7-3.1L140,92.3l17.7,17.7L153.7,113.9z M171.7,109.1
		c1.3,1.3,1.3,3.5,0,4.9c-1.3,1.3-3.5,1.3-4.9,0l-4-4L140,87.1l-4-4c-1.3-1.3-1.3-3.5,0-4.9c1.3-1.3,3.5-1.3,4.9,0L171.7,109.1z"/>
</g>
</svg>
